<svg width="38" height="53" viewBox="0 0 38 53" fill="none" xmlns="http://www.w3.org/2000/svg">
<rect x="10.5" y="6.5" width="3" height="6" fill="white" stroke="black"/>
<rect x="17.5" y="6.5" width="3" height="6" fill="white" stroke="black"/>
<rect x="0.5" y="14.5" width="3" height="6" transform="rotate(-90 0.5 14.5)" fill="white" stroke="black"/>
<rect x="0.5" y="45.5" width="3" height="6" transform="rotate(-90 0.5 45.5)" fill="white" stroke="black"/>
<rect x="10.5" y="46.5" width="3" height="6" fill="white" stroke="black"/>
<rect x="17.5" y="46.5" width="3" height="6" fill="white" stroke="black"/>
<path d="M4.03409 46V11.0909H18.0114C20.5795 11.0909 22.7216 11.4716 24.4375 12.233C26.1534 12.9943 27.4432 14.0511 28.3068 15.4034C29.1705 16.7443 29.6023 18.2898 29.6023 20.0398C29.6023 21.4034 29.3295 22.6023 28.7841 23.6364C28.2386 24.6591 27.4886 25.5 26.5341 26.1591C25.5909 26.8068 24.5114 27.267 23.2955 27.5398V27.8807C24.625 27.9375 25.8693 28.3125 27.0284 29.0057C28.1989 29.6989 29.1477 30.6705 29.875 31.9205C30.6023 33.1591 30.9659 34.6364 30.9659 36.3523C30.9659 38.2045 30.5057 39.858 29.5852 41.3125C28.6761 42.7557 27.3295 43.8977 25.5455 44.7386C23.7614 45.5795 21.5625 46 18.9489 46H4.03409ZM11.4148 39.9659H17.4318C19.4886 39.9659 20.9886 39.5739 21.9318 38.7898C22.875 37.9943 23.3466 36.9375 23.3466 35.6193C23.3466 34.6534 23.1136 33.8011 22.6477 33.0625C22.1818 32.3239 21.517 31.7443 20.6534 31.3239C19.8011 30.9034 18.7841 30.6932 17.6023 30.6932H11.4148V39.9659ZM11.4148 25.6989H16.8864C17.8977 25.6989 18.7955 25.5227 19.5795 25.1705C20.375 24.8068 21 24.2955 21.4545 23.6364C21.9205 22.9773 22.1534 22.1875 22.1534 21.267C22.1534 20.0057 21.7045 18.9886 20.8068 18.2159C19.9205 17.4432 18.6591 17.0568 17.0227 17.0568H11.4148V25.6989Z" fill="white"/>
<path d="M4.03409 46H3.03409V47H4.03409V46ZM4.03409 11.0909V10.0909H3.03409V11.0909H4.03409ZM24.4375 12.233L24.0319 13.147L24.0319 13.147L24.4375 12.233ZM28.3068 15.4034L27.464 15.9417L27.4661 15.9449L28.3068 15.4034ZM28.7841 23.6364L29.6665 24.107L29.6686 24.1029L28.7841 23.6364ZM26.5341 26.1591L27.1002 26.9834L27.1023 26.982L26.5341 26.1591ZM23.2955 27.5398L23.0766 26.564L22.2955 26.7392V27.5398H23.2955ZM23.2955 27.8807H22.2955V28.8389L23.2528 28.8798L23.2955 27.8807ZM27.0284 29.0057L26.5151 29.8639L26.5188 29.8661L27.0284 29.0057ZM29.875 31.9205L29.0106 32.4234L29.0127 32.4268L29.875 31.9205ZM29.5852 41.3125L28.7402 40.7778L28.7391 40.7795L29.5852 41.3125ZM25.5455 44.7386L25.1191 43.8341L25.1191 43.8341L25.5455 44.7386ZM11.4148 39.9659H10.4148V40.9659H11.4148V39.9659ZM21.9318 38.7898L22.5711 39.5588L22.5765 39.5542L21.9318 38.7898ZM22.6477 33.0625L21.8019 33.596L21.8019 33.596L22.6477 33.0625ZM20.6534 31.3239L20.211 32.2207L20.2157 32.223L20.6534 31.3239ZM11.4148 30.6932V29.6932H10.4148V30.6932H11.4148ZM11.4148 25.6989H10.4148V26.6989H11.4148V25.6989ZM19.5795 25.1705L19.9894 26.0826L19.9953 26.0799L19.5795 25.1705ZM21.4545 23.6364L20.6379 23.0591L20.6313 23.0686L21.4545 23.6364ZM20.8068 18.2159L20.1497 18.9697L20.1544 18.9738L20.8068 18.2159ZM11.4148 17.0568V16.0568H10.4148V17.0568H11.4148ZM5.03409 46V11.0909H3.03409V46H5.03409ZM4.03409 12.0909H18.0114V10.0909H4.03409V12.0909ZM18.0114 12.0909C20.4882 12.0909 22.4815 12.4591 24.0319 13.147L24.8431 11.3189C22.9616 10.4841 20.6709 10.0909 18.0114 10.0909V12.0909ZM24.0319 13.147C25.5995 13.8426 26.7231 14.7814 27.464 15.9417L29.1496 14.8652C28.1633 13.3208 26.7073 12.1461 24.8431 11.3189L24.0319 13.147ZM27.4661 15.9449C28.2157 17.1088 28.6023 18.4624 28.6023 20.0398H30.6023C30.6023 18.1171 30.1252 16.3799 29.1475 14.8619L27.4661 15.9449ZM28.6023 20.0398C28.6023 21.2679 28.3575 22.3017 27.8996 23.1698L29.6686 24.1029C30.3016 22.9028 30.6023 21.5389 30.6023 20.0398H28.6023ZM27.9017 23.1658C27.4315 24.0476 26.7892 24.7677 25.9659 25.3362L27.1023 26.982C28.1881 26.2323 29.0458 25.2706 29.6664 24.107L27.9017 23.1658ZM25.968 25.3348C25.1389 25.9042 24.1793 26.3167 23.0766 26.564L23.5143 28.5155C24.8434 28.2174 26.043 27.7095 27.1002 26.9834L25.968 25.3348ZM22.2955 27.5398V27.8807H24.2955V27.5398H22.2955ZM23.2528 28.8798C24.4136 28.9294 25.4965 29.2548 26.5152 29.8639L27.5417 28.1474C26.2421 27.3702 24.8364 26.9456 23.3382 26.8816L23.2528 28.8798ZM26.5188 29.8661C27.5332 30.4668 28.3636 31.3112 29.0107 32.4233L30.7393 31.4176C29.9319 30.0297 28.8646 28.9309 27.538 28.1453L26.5188 29.8661ZM29.0127 32.4268C29.6337 33.4845 29.9659 34.7796 29.9659 36.3523H31.9659C31.9659 34.4931 31.5709 32.8337 30.7373 31.4141L29.0127 32.4268ZM29.9659 36.3523C29.9659 38.0302 29.5517 39.4954 28.7402 40.7778L30.4302 41.8472C31.4597 40.2205 31.9659 38.3789 31.9659 36.3523H29.9659ZM28.7391 40.7795C27.9468 42.0374 26.7583 43.0615 25.1191 43.8341L25.9718 45.6432C27.9008 44.734 29.4055 43.474 30.4313 41.8455L28.7391 40.7795ZM25.1191 43.8341C23.5043 44.5952 21.4608 45 18.9489 45V47C21.6642 47 24.0184 46.5639 25.9718 45.6432L25.1191 43.8341ZM18.9489 45H4.03409V47H18.9489V45ZM11.4148 40.9659H17.4318V38.9659H11.4148V40.9659ZM17.4318 40.9659C19.5769 40.9659 21.3616 40.5642 22.5711 39.5588L21.2925 38.0208C20.6156 38.5835 19.4004 38.9659 17.4318 38.9659V40.9659ZM22.5765 39.5542C23.762 38.5544 24.3466 37.2093 24.3466 35.6193H22.3466C22.3466 36.6657 21.988 37.4342 21.2871 38.0253L22.5765 39.5542ZM24.3466 35.6193C24.3466 34.4853 24.0707 33.444 23.4935 32.529L21.8019 33.596C22.1566 34.1583 22.3466 34.8215 22.3466 35.6193H24.3466ZM23.4935 32.529C22.9185 31.6174 22.1049 30.9183 21.0911 30.4248L20.2157 32.223C20.9292 32.5703 21.4451 33.0304 21.8019 33.596L23.4935 32.529ZM21.0958 30.4271C20.0766 29.9242 18.901 29.6932 17.6023 29.6932V31.6932C18.6672 31.6932 19.5257 31.8826 20.211 32.2207L21.0958 30.4271ZM17.6023 29.6932H11.4148V31.6932H17.6023V29.6932ZM10.4148 30.6932V39.9659H12.4148V30.6932H10.4148ZM11.4148 26.6989H16.8864V24.6989H11.4148V26.6989ZM16.8864 26.6989C18.0143 26.6989 19.0557 26.5021 19.9894 26.0826L19.1697 24.2583C18.5353 24.5433 17.7811 24.6989 16.8864 24.6989V26.6989ZM19.9953 26.0799C20.9393 25.6484 21.7114 25.0254 22.2778 24.2041L20.6313 23.0686C20.2886 23.5656 19.8107 23.9652 19.1638 24.261L19.9953 26.0799ZM22.2711 24.2136C22.8727 23.3627 23.1534 22.3641 23.1534 21.267H21.1534C21.1534 22.0109 20.9683 22.5919 20.638 23.0591L22.2711 24.2136ZM23.1534 21.267C23.1534 19.736 22.5934 18.4343 21.4592 17.458L20.1544 18.9738C20.8157 19.543 21.1534 20.2754 21.1534 21.267H23.1534ZM21.464 17.4621C20.3351 16.478 18.8064 16.0568 17.0227 16.0568V18.0568C18.5118 18.0568 19.5058 18.4083 20.1497 18.9697L21.464 17.4621ZM17.0227 16.0568H11.4148V18.0568H17.0227V16.0568ZM10.4148 17.0568V25.6989H12.4148V17.0568H10.4148Z" fill="black"/>
<rect x="14.5" y="6.5" width="3" height="6" fill="#1E32EA" stroke="black"/>
<rect x="21.5" y="6.5" width="3" height="6" fill="#1E32EA" stroke="black"/>
<rect x="4.5" y="14.5" width="3" height="6" transform="rotate(-90 4.5 14.5)" fill="#1E32EA" stroke="black"/>
<rect x="4.5" y="45.5" width="3" height="6" transform="rotate(-90 4.5 45.5)" fill="#1E32EA" stroke="black"/>
<rect x="14.5" y="46.5" width="3" height="6" fill="#1E32EA" stroke="black"/>
<rect x="21.5" y="46.5" width="3" height="6" fill="#1E32EA" stroke="black"/>
<path d="M8.03409 46V11.0909H22.0114C24.5795 11.0909 26.7216 11.4716 28.4375 12.233C30.1534 12.9943 31.4432 14.0511 32.3068 15.4034C33.1705 16.7443 33.6023 18.2898 33.6023 20.0398C33.6023 21.4034 33.3295 22.6023 32.7841 23.6364C32.2386 24.6591 31.4886 25.5 30.5341 26.1591C29.5909 26.8068 28.5114 27.267 27.2955 27.5398V27.8807C28.625 27.9375 29.8693 28.3125 31.0284 29.0057C32.1989 29.6989 33.1477 30.6705 33.875 31.9205C34.6023 33.1591 34.9659 34.6364 34.9659 36.3523C34.9659 38.2045 34.5057 39.858 33.5852 41.3125C32.6761 42.7557 31.3295 43.8977 29.5455 44.7386C27.7614 45.5795 25.5625 46 22.9489 46H8.03409ZM15.4148 39.9659H21.4318C23.4886 39.9659 24.9886 39.5739 25.9318 38.7898C26.875 37.9943 27.3466 36.9375 27.3466 35.6193C27.3466 34.6534 27.1136 33.8011 26.6477 33.0625C26.1818 32.3239 25.517 31.7443 24.6534 31.3239C23.8011 30.9034 22.7841 30.6932 21.6023 30.6932H15.4148V39.9659ZM15.4148 25.6989H20.8864C21.8977 25.6989 22.7955 25.5227 23.5795 25.1705C24.375 24.8068 25 24.2955 25.4545 23.6364C25.9205 22.9773 26.1534 22.1875 26.1534 21.267C26.1534 20.0057 25.7045 18.9886 24.8068 18.2159C23.9205 17.4432 22.6591 17.0568 21.0227 17.0568H15.4148V25.6989Z" fill="#1E32EA"/>
<path d="M8.03409 46H7.03409V47H8.03409V46ZM8.03409 11.0909V10.0909H7.03409V11.0909H8.03409ZM28.4375 12.233L28.0319 13.147L28.0319 13.147L28.4375 12.233ZM32.3068 15.4034L31.464 15.9417L31.4661 15.9449L32.3068 15.4034ZM32.7841 23.6364L33.6665 24.107L33.6686 24.1029L32.7841 23.6364ZM30.5341 26.1591L31.1002 26.9834L31.1023 26.982L30.5341 26.1591ZM27.2955 27.5398L27.0766 26.564L26.2955 26.7392V27.5398H27.2955ZM27.2955 27.8807H26.2955V28.8389L27.2528 28.8798L27.2955 27.8807ZM31.0284 29.0057L30.5151 29.8639L30.5188 29.8661L31.0284 29.0057ZM33.875 31.9205L33.0106 32.4234L33.0127 32.4268L33.875 31.9205ZM33.5852 41.3125L32.7402 40.7778L32.7391 40.7795L33.5852 41.3125ZM29.5455 44.7386L29.1191 43.8341L29.1191 43.8341L29.5455 44.7386ZM15.4148 39.9659H14.4148V40.9659H15.4148V39.9659ZM25.9318 38.7898L26.5711 39.5588L26.5765 39.5542L25.9318 38.7898ZM26.6477 33.0625L25.8019 33.596L25.8019 33.596L26.6477 33.0625ZM24.6534 31.3239L24.211 32.2207L24.2157 32.223L24.6534 31.3239ZM15.4148 30.6932V29.6932H14.4148V30.6932H15.4148ZM15.4148 25.6989H14.4148V26.6989H15.4148V25.6989ZM23.5795 25.1705L23.9894 26.0826L23.9953 26.0799L23.5795 25.1705ZM25.4545 23.6364L24.6379 23.0591L24.6313 23.0686L25.4545 23.6364ZM24.8068 18.2159L24.1497 18.9697L24.1544 18.9738L24.8068 18.2159ZM15.4148 17.0568V16.0568H14.4148V17.0568H15.4148ZM9.03409 46V11.0909H7.03409V46H9.03409ZM8.03409 12.0909H22.0114V10.0909H8.03409V12.0909ZM22.0114 12.0909C24.4882 12.0909 26.4815 12.4591 28.0319 13.147L28.8431 11.3189C26.9616 10.4841 24.6709 10.0909 22.0114 10.0909V12.0909ZM28.0319 13.147C29.5995 13.8426 30.7231 14.7814 31.464 15.9417L33.1496 14.8652C32.1633 13.3208 30.7073 12.1461 28.8431 11.3189L28.0319 13.147ZM31.4661 15.9449C32.2157 17.1088 32.6023 18.4624 32.6023 20.0398H34.6023C34.6023 18.1171 34.1252 16.3799 33.1475 14.8619L31.4661 15.9449ZM32.6023 20.0398C32.6023 21.2679 32.3575 22.3017 31.8996 23.1698L33.6686 24.1029C34.3016 22.9028 34.6023 21.5389 34.6023 20.0398H32.6023ZM31.9017 23.1658C31.4315 24.0476 30.7892 24.7677 29.9659 25.3362L31.1023 26.982C32.1881 26.2323 33.0458 25.2706 33.6664 24.107L31.9017 23.1658ZM29.968 25.3348C29.1389 25.9042 28.1793 26.3167 27.0766 26.564L27.5143 28.5155C28.8434 28.2174 30.043 27.7095 31.1002 26.9834L29.968 25.3348ZM26.2955 27.5398V27.8807H28.2955V27.5398H26.2955ZM27.2528 28.8798C28.4136 28.9294 29.4965 29.2548 30.5152 29.8639L31.5417 28.1474C30.2421 27.3702 28.8364 26.9456 27.3382 26.8816L27.2528 28.8798ZM30.5188 29.8661C31.5332 30.4668 32.3636 31.3112 33.0107 32.4233L34.7393 31.4176C33.9319 30.0297 32.8646 28.9309 31.538 28.1453L30.5188 29.8661ZM33.0127 32.4268C33.6337 33.4845 33.9659 34.7796 33.9659 36.3523H35.9659C35.9659 34.4931 35.5709 32.8337 34.7373 31.4141L33.0127 32.4268ZM33.9659 36.3523C33.9659 38.0302 33.5517 39.4954 32.7402 40.7778L34.4302 41.8472C35.4597 40.2205 35.9659 38.3789 35.9659 36.3523H33.9659ZM32.7391 40.7795C31.9468 42.0374 30.7583 43.0615 29.1191 43.8341L29.9718 45.6432C31.9008 44.734 33.4055 43.474 34.4313 41.8455L32.7391 40.7795ZM29.1191 43.8341C27.5043 44.5952 25.4608 45 22.9489 45V47C25.6642 47 28.0184 46.5639 29.9718 45.6432L29.1191 43.8341ZM22.9489 45H8.03409V47H22.9489V45ZM15.4148 40.9659H21.4318V38.9659H15.4148V40.9659ZM21.4318 40.9659C23.5769 40.9659 25.3616 40.5642 26.5711 39.5588L25.2925 38.0208C24.6156 38.5835 23.4004 38.9659 21.4318 38.9659V40.9659ZM26.5765 39.5542C27.762 38.5544 28.3466 37.2093 28.3466 35.6193H26.3466C26.3466 36.6657 25.988 37.4342 25.2871 38.0253L26.5765 39.5542ZM28.3466 35.6193C28.3466 34.4853 28.0707 33.444 27.4935 32.529L25.8019 33.596C26.1566 34.1583 26.3466 34.8215 26.3466 35.6193H28.3466ZM27.4935 32.529C26.9185 31.6174 26.1049 30.9183 25.0911 30.4248L24.2157 32.223C24.9292 32.5703 25.4451 33.0304 25.8019 33.596L27.4935 32.529ZM25.0958 30.4271C24.0766 29.9242 22.901 29.6932 21.6023 29.6932V31.6932C22.6672 31.6932 23.5257 31.8826 24.211 32.2207L25.0958 30.4271ZM21.6023 29.6932H15.4148V31.6932H21.6023V29.6932ZM14.4148 30.6932V39.9659H16.4148V30.6932H14.4148ZM15.4148 26.6989H20.8864V24.6989H15.4148V26.6989ZM20.8864 26.6989C22.0143 26.6989 23.0557 26.5021 23.9894 26.0826L23.1697 24.2583C22.5353 24.5433 21.7811 24.6989 20.8864 24.6989V26.6989ZM23.9953 26.0799C24.9393 25.6484 25.7114 25.0254 26.2778 24.2041L24.6313 23.0686C24.2886 23.5656 23.8107 23.9652 23.1638 24.261L23.9953 26.0799ZM26.2711 24.2136C26.8727 23.3627 27.1534 22.3641 27.1534 21.267H25.1534C25.1534 22.0109 24.9683 22.5919 24.638 23.0591L26.2711 24.2136ZM27.1534 21.267C27.1534 19.736 26.5934 18.4343 25.4592 17.458L24.1544 18.9738C24.8157 19.543 25.1534 20.2754 25.1534 21.267H27.1534ZM25.464 17.4621C24.3351 16.478 22.8064 16.0568 21.0227 16.0568V18.0568C22.5118 18.0568 23.5058 18.4083 24.1497 18.9697L25.464 17.4621ZM21.0227 16.0568H15.4148V18.0568H21.0227V16.0568ZM14.4148 17.0568V25.6989H16.4148V17.0568H14.4148Z" fill="black"/>
</svg>
