<svg width="72" height="102" viewBox="0 0 72 102" fill="none" xmlns="http://www.w3.org/2000/svg">
<rect x="22.4048" y="6.7381" width="7.7619" height="14.3583" fill="white" stroke="black"/>
<rect x="37.7381" y="6.7381" width="7.7619" height="14.3583" fill="white" stroke="black"/>
<rect x="0.5" y="28.7" width="7.77619" height="14.3333" transform="rotate(-90 0.5 28.7)" fill="white" stroke="black"/>
<rect x="0.5" y="87.2762" width="7.77619" height="14.3333" transform="rotate(-90 0.5 87.2762)" fill="white" stroke="black"/>
<rect x="22.5" y="86.5" width="7.7619" height="14.3333" fill="white" stroke="black"/>
<rect x="37.8333" y="86.5" width="7.7619" height="14.3333" fill="white" stroke="black"/>
<path d="M15.6889 87V21.5455H41.8963C46.7116 21.5455 50.728 22.2592 53.9453 23.6868C57.1626 25.1143 59.581 27.0959 61.2003 29.6314C62.8196 32.1456 63.6293 35.0433 63.6293 38.3246C63.6293 40.8814 63.1179 43.1293 62.0952 45.0682C61.0724 46.9858 59.6662 48.5625 57.8764 49.7983C56.108 51.0128 54.0838 51.8757 51.804 52.3871V53.0263C54.2969 53.1328 56.63 53.8359 58.8033 55.1357C60.9979 56.4354 62.777 58.2571 64.1406 60.6009C65.5043 62.9233 66.1861 65.6932 66.1861 68.9105C66.1861 72.3835 65.3232 75.4837 63.5973 78.2109C61.8928 80.9169 59.3679 83.0582 56.0227 84.6349C52.6776 86.2116 48.5547 87 43.6541 87H15.6889ZM29.5277 75.6861H40.8097C44.6662 75.6861 47.4787 74.951 49.2472 73.4808C51.0156 71.9893 51.8999 70.0078 51.8999 67.5362C51.8999 65.7251 51.4631 64.1271 50.5895 62.7422C49.7159 61.3572 48.4695 60.2706 46.8501 59.4822C45.2521 58.6939 43.3452 58.2997 41.1293 58.2997H29.5277V75.6861ZM29.5277 48.9354H39.7869C41.6832 48.9354 43.3665 48.6051 44.8366 47.9446C46.3281 47.2628 47.5 46.304 48.3523 45.0682C49.2259 43.8324 49.6626 42.3516 49.6626 40.6257C49.6626 38.2607 48.821 36.3537 47.1378 34.9048C45.4759 33.456 43.1108 32.7315 40.0426 32.7315H29.5277V48.9354Z" fill="white"/>
<path d="M15.6889 87H14.6889V88H15.6889V87ZM15.6889 21.5455V20.5455H14.6889V21.5455H15.6889ZM53.9453 23.6868L53.5397 24.6008L53.5397 24.6008L53.9453 23.6868ZM61.2003 29.6314L60.3575 30.1696L60.3596 30.1729L61.2003 29.6314ZM62.0952 45.0682L62.9775 45.5388L62.9797 45.5347L62.0952 45.0682ZM57.8764 49.7983L58.4425 50.6226L58.4446 50.6212L57.8764 49.7983ZM51.804 52.3871L51.5851 51.4113L50.804 51.5865V52.3871H51.804ZM51.804 53.0263H50.804V53.9845L51.7613 54.0254L51.804 53.0263ZM58.8033 55.1357L58.29 55.9939L58.2937 55.9961L58.8033 55.1357ZM64.1406 60.6009L63.2763 61.1037L63.2783 61.1072L64.1406 60.6009ZM63.5973 78.2109L62.7523 77.6762L62.7512 77.6779L63.5973 78.2109ZM56.0227 84.6349L55.5964 83.7304L55.5964 83.7304L56.0227 84.6349ZM29.5277 75.6861H28.5277V76.6861H29.5277V75.6861ZM49.2472 73.4808L49.8864 74.2498L49.8919 74.2453L49.2472 73.4808ZM50.5895 62.7422L49.7437 63.2757L49.7437 63.2757L50.5895 62.7422ZM46.8501 59.4822L46.4077 60.3791L46.4124 60.3814L46.8501 59.4822ZM29.5277 58.2997V57.2997H28.5277V58.2997H29.5277ZM29.5277 48.9354H28.5277V49.9354H29.5277V48.9354ZM44.8366 47.9446L45.2465 48.8568L45.2524 48.8541L44.8366 47.9446ZM48.3523 45.0682L47.5356 44.4909L47.5291 44.5004L48.3523 45.0682ZM47.1378 34.9048L46.4806 35.6586L46.4854 35.6627L47.1378 34.9048ZM29.5277 32.7315V31.7315H28.5277V32.7315H29.5277ZM16.6889 87V21.5455H14.6889V87H16.6889ZM15.6889 22.5455H41.8963V20.5455H15.6889V22.5455ZM41.8963 22.5455C46.6203 22.5455 50.4879 23.2467 53.5397 24.6008L54.3509 22.7727C50.968 21.2717 46.803 20.5455 41.8963 20.5455V22.5455ZM53.5397 24.6008C56.6088 25.9626 58.8608 27.8262 60.3575 30.1696L62.0431 29.0931C60.3011 26.3656 57.7165 24.2661 54.3509 22.7727L53.5397 24.6008ZM60.3596 30.1729C61.8649 32.5101 62.6293 35.216 62.6293 38.3246H64.6293C64.6293 34.8707 63.7743 31.7811 62.041 29.0899L60.3596 30.1729ZM62.6293 38.3246C62.6293 40.7459 62.1458 42.8287 61.2107 44.6016L62.9797 45.5347C64.09 43.4298 64.6293 41.0169 64.6293 38.3246H62.6293ZM61.2128 44.5976C60.2653 46.3743 58.9668 47.8302 57.3082 48.9754L58.4446 50.6212C60.3656 49.2948 61.8796 47.5973 62.9775 45.5388L61.2128 44.5976ZM57.3103 48.974C55.6559 50.1101 53.7517 50.9253 51.5851 51.4113L52.0228 53.3628C54.4159 52.8261 56.56 51.9154 58.4425 50.6226L57.3103 48.974ZM50.804 52.3871V53.0263H52.804V52.3871H50.804ZM51.7613 54.0254C54.0855 54.1247 56.2572 54.7782 58.29 55.9939L59.3165 54.2774C57.0027 52.8937 54.5083 52.1409 51.8467 52.0272L51.7613 54.0254ZM58.2937 55.9961C60.3322 57.2033 61.9929 58.8979 63.2763 61.1037L65.005 60.098C63.5611 57.6163 61.6636 55.6674 59.3128 54.2752L58.2937 55.9961ZM63.2783 61.1072C64.5357 63.2487 65.1861 65.8364 65.1861 68.9105H67.1861C67.1861 65.5499 66.4729 62.5979 65.003 60.0945L63.2783 61.1072ZM65.1861 68.9105C65.1861 72.2092 64.3692 75.1211 62.7523 77.6762L64.4423 78.7457C66.2772 75.8462 67.1861 72.5578 67.1861 68.9105H65.1861ZM62.7512 77.6779C61.1634 80.1986 58.7966 82.222 55.5964 83.7304L56.4491 85.5395C59.9392 83.8945 62.6221 81.6352 64.4434 78.7439L62.7512 77.6779ZM55.5964 83.7304C52.4205 85.2273 48.453 86 43.6541 86V88C48.6564 88 52.9346 87.196 56.4491 85.5395L55.5964 83.7304ZM43.6541 86H15.6889V88H43.6541V86ZM29.5277 76.6861H40.8097V74.6861H29.5277V76.6861ZM40.8097 76.6861C44.7544 76.6861 47.8517 75.9413 49.8864 74.2498L48.6079 72.7118C47.1057 73.9607 44.578 74.6861 40.8097 74.6861V76.6861ZM49.8919 74.2453C51.9026 72.5495 52.8999 70.2796 52.8999 67.5362H50.8999C50.8999 69.7361 50.1287 71.4292 48.6025 72.7164L49.8919 74.2453ZM52.8999 67.5362C52.8999 65.557 52.4201 63.77 51.4353 62.2087L49.7437 63.2757C50.506 64.4843 50.8999 65.8933 50.8999 67.5362H52.8999ZM51.4353 62.2087C50.4526 60.6507 49.0573 59.4446 47.2879 58.5831L46.4124 60.3814C47.8816 61.0966 48.9792 62.0637 49.7437 63.2757L51.4353 62.2087ZM47.2926 58.5854C45.5276 57.7147 43.4621 57.2997 41.1293 57.2997V59.2997C43.2283 59.2997 44.9767 59.6731 46.4077 60.379L47.2926 58.5854ZM41.1293 57.2997H29.5277V59.2997H41.1293V57.2997ZM28.5277 58.2997V75.6861H30.5277V58.2997H28.5277ZM29.5277 49.9354H39.7869V47.9354H29.5277V49.9354ZM39.7869 49.9354C41.7998 49.9354 43.6267 49.5845 45.2465 48.8568L44.4268 47.0324C43.1063 47.6257 41.5666 47.9354 39.7869 47.9354V49.9354ZM45.2524 48.8541C46.8924 48.1044 48.2114 47.0339 49.1755 45.6359L47.5291 44.5004C46.7886 45.5741 45.7639 46.4212 44.4209 47.0351L45.2524 48.8541ZM49.1689 45.6454C50.178 44.2178 50.6626 42.5282 50.6626 40.6257H48.6626C48.6626 42.1749 48.2737 43.447 47.5357 44.4909L49.1689 45.6454ZM50.6626 40.6257C50.6626 37.9909 49.7099 35.7993 47.7902 34.1469L46.4854 35.6627C47.9322 36.908 48.6626 38.5304 48.6626 40.6257H50.6626ZM47.7949 34.1511C45.8905 32.4908 43.2581 31.7315 40.0426 31.7315V33.7315C42.9635 33.7315 45.0612 34.4211 46.4807 35.6586L47.7949 34.1511ZM40.0426 31.7315H29.5277V33.7315H40.0426V31.7315ZM28.5277 32.7315V48.9354H30.5277V32.7315H28.5277Z" fill="black"/>
<rect x="27.4048" y="6.7381" width="7.7619" height="14.3583" fill="#1E32EA" stroke="black"/>
<rect x="42.7381" y="6.7381" width="7.7619" height="14.3583" fill="#1E32EA" stroke="black"/>
<rect x="5.5" y="28.7" width="7.77619" height="14.3333" transform="rotate(-90 5.5 28.7)" fill="#1E32EA" stroke="black"/>
<rect x="5.5" y="87.2762" width="7.77619" height="14.3333" transform="rotate(-90 5.5 87.2762)" fill="#1E32EA" stroke="black"/>
<rect x="27.5" y="86.5" width="7.7619" height="14.3333" fill="#1E32EA" stroke="black"/>
<rect x="42.8333" y="86.5" width="7.7619" height="14.3333" fill="#1E32EA" stroke="black"/>
<path d="M20.6889 87V21.5455H46.8963C51.7116 21.5455 55.728 22.2592 58.9453 23.6868C62.1626 25.1143 64.581 27.0959 66.2003 29.6314C67.8196 32.1456 68.6293 35.0433 68.6293 38.3246C68.6293 40.8814 68.1179 43.1293 67.0952 45.0682C66.0724 46.9858 64.6662 48.5625 62.8764 49.7983C61.108 51.0128 59.0838 51.8757 56.804 52.3871V53.0263C59.2969 53.1328 61.63 53.8359 63.8033 55.1357C65.9979 56.4354 67.777 58.2571 69.1406 60.6009C70.5043 62.9233 71.1861 65.6932 71.1861 68.9105C71.1861 72.3835 70.3232 75.4837 68.5973 78.2109C66.8928 80.9169 64.3679 83.0582 61.0227 84.6349C57.6776 86.2116 53.5547 87 48.6541 87H20.6889ZM34.5277 75.6861H45.8097C49.6662 75.6861 52.4787 74.951 54.2472 73.4808C56.0156 71.9893 56.8999 70.0078 56.8999 67.5362C56.8999 65.7251 56.4631 64.1271 55.5895 62.7422C54.7159 61.3572 53.4695 60.2706 51.8501 59.4822C50.2521 58.6939 48.3452 58.2997 46.1293 58.2997H34.5277V75.6861ZM34.5277 48.9354H44.7869C46.6832 48.9354 48.3665 48.6051 49.8366 47.9446C51.3281 47.2628 52.5 46.304 53.3523 45.0682C54.2259 43.8324 54.6626 42.3516 54.6626 40.6257C54.6626 38.2607 53.821 36.3537 52.1378 34.9048C50.4759 33.456 48.1108 32.7315 45.0426 32.7315H34.5277V48.9354Z" fill="#1E32EA"/>
<path d="M20.6889 87H19.6889V88H20.6889V87ZM20.6889 21.5455V20.5455H19.6889V21.5455H20.6889ZM58.9453 23.6868L58.5397 24.6008L58.5397 24.6008L58.9453 23.6868ZM66.2003 29.6314L65.3575 30.1696L65.3596 30.1729L66.2003 29.6314ZM67.0952 45.0682L67.9775 45.5388L67.9797 45.5347L67.0952 45.0682ZM62.8764 49.7983L63.4425 50.6226L63.4446 50.6212L62.8764 49.7983ZM56.804 52.3871L56.5851 51.4113L55.804 51.5865V52.3871H56.804ZM56.804 53.0263H55.804V53.9845L56.7613 54.0254L56.804 53.0263ZM63.8033 55.1357L63.29 55.9939L63.2937 55.9961L63.8033 55.1357ZM69.1406 60.6009L68.2763 61.1037L68.2783 61.1072L69.1406 60.6009ZM68.5973 78.2109L67.7523 77.6762L67.7512 77.6779L68.5973 78.2109ZM61.0227 84.6349L60.5964 83.7304L60.5964 83.7304L61.0227 84.6349ZM34.5277 75.6861H33.5277V76.6861H34.5277V75.6861ZM54.2472 73.4808L54.8864 74.2498L54.8919 74.2453L54.2472 73.4808ZM55.5895 62.7422L54.7437 63.2757L54.7437 63.2757L55.5895 62.7422ZM51.8501 59.4822L51.4077 60.3791L51.4124 60.3814L51.8501 59.4822ZM34.5277 58.2997V57.2997H33.5277V58.2997H34.5277ZM34.5277 48.9354H33.5277V49.9354H34.5277V48.9354ZM49.8366 47.9446L50.2465 48.8568L50.2524 48.8541L49.8366 47.9446ZM53.3523 45.0682L52.5356 44.4909L52.5291 44.5004L53.3523 45.0682ZM52.1378 34.9048L51.4806 35.6586L51.4854 35.6627L52.1378 34.9048ZM34.5277 32.7315V31.7315H33.5277V32.7315H34.5277ZM21.6889 87V21.5455H19.6889V87H21.6889ZM20.6889 22.5455H46.8963V20.5455H20.6889V22.5455ZM46.8963 22.5455C51.6203 22.5455 55.4879 23.2467 58.5397 24.6008L59.3509 22.7727C55.968 21.2717 51.803 20.5455 46.8963 20.5455V22.5455ZM58.5397 24.6008C61.6088 25.9626 63.8608 27.8262 65.3575 30.1696L67.0431 29.0931C65.3011 26.3656 62.7165 24.2661 59.3509 22.7727L58.5397 24.6008ZM65.3596 30.1729C66.8649 32.5101 67.6293 35.216 67.6293 38.3246H69.6293C69.6293 34.8707 68.7743 31.7811 67.041 29.0899L65.3596 30.1729ZM67.6293 38.3246C67.6293 40.7459 67.1458 42.8287 66.2107 44.6016L67.9797 45.5347C69.09 43.4298 69.6293 41.0169 69.6293 38.3246H67.6293ZM66.2128 44.5976C65.2653 46.3743 63.9668 47.8302 62.3082 48.9754L63.4446 50.6212C65.3656 49.2948 66.8796 47.5973 67.9775 45.5388L66.2128 44.5976ZM62.3103 48.974C60.6559 50.1101 58.7517 50.9253 56.5851 51.4113L57.0228 53.3628C59.4159 52.8261 61.56 51.9154 63.4425 50.6226L62.3103 48.974ZM55.804 52.3871V53.0263H57.804V52.3871H55.804ZM56.7613 54.0254C59.0855 54.1247 61.2572 54.7782 63.29 55.9939L64.3165 54.2774C62.0027 52.8937 59.5083 52.1409 56.8467 52.0272L56.7613 54.0254ZM63.2937 55.9961C65.3322 57.2033 66.9929 58.8979 68.2763 61.1037L70.005 60.098C68.5611 57.6163 66.6636 55.6674 64.3128 54.2752L63.2937 55.9961ZM68.2783 61.1072C69.5357 63.2487 70.1861 65.8364 70.1861 68.9105H72.1861C72.1861 65.5499 71.4729 62.5979 70.003 60.0945L68.2783 61.1072ZM70.1861 68.9105C70.1861 72.2092 69.3692 75.1211 67.7523 77.6762L69.4423 78.7457C71.2772 75.8462 72.1861 72.5578 72.1861 68.9105H70.1861ZM67.7512 77.6779C66.1634 80.1986 63.7966 82.222 60.5964 83.7304L61.4491 85.5395C64.9392 83.8945 67.6221 81.6352 69.4434 78.7439L67.7512 77.6779ZM60.5964 83.7304C57.4205 85.2273 53.453 86 48.6541 86V88C53.6564 88 57.9346 87.196 61.4491 85.5395L60.5964 83.7304ZM48.6541 86H20.6889V88H48.6541V86ZM34.5277 76.6861H45.8097V74.6861H34.5277V76.6861ZM45.8097 76.6861C49.7544 76.6861 52.8517 75.9413 54.8864 74.2498L53.6079 72.7118C52.1057 73.9607 49.578 74.6861 45.8097 74.6861V76.6861ZM54.8919 74.2453C56.9026 72.5495 57.8999 70.2796 57.8999 67.5362H55.8999C55.8999 69.7361 55.1287 71.4292 53.6025 72.7164L54.8919 74.2453ZM57.8999 67.5362C57.8999 65.557 57.4201 63.77 56.4353 62.2087L54.7437 63.2757C55.506 64.4843 55.8999 65.8933 55.8999 67.5362H57.8999ZM56.4353 62.2087C55.4526 60.6507 54.0573 59.4446 52.2879 58.5831L51.4124 60.3814C52.8816 61.0966 53.9792 62.0637 54.7437 63.2757L56.4353 62.2087ZM52.2926 58.5854C50.5276 57.7147 48.4621 57.2997 46.1293 57.2997V59.2997C48.2283 59.2997 49.9767 59.6731 51.4077 60.379L52.2926 58.5854ZM46.1293 57.2997H34.5277V59.2997H46.1293V57.2997ZM33.5277 58.2997V75.6861H35.5277V58.2997H33.5277ZM34.5277 49.9354H44.7869V47.9354H34.5277V49.9354ZM44.7869 49.9354C46.7998 49.9354 48.6267 49.5845 50.2465 48.8568L49.4268 47.0324C48.1063 47.6257 46.5666 47.9354 44.7869 47.9354V49.9354ZM50.2524 48.8541C51.8924 48.1044 53.2114 47.0339 54.1755 45.6359L52.5291 44.5004C51.7886 45.5741 50.7639 46.4212 49.4209 47.0351L50.2524 48.8541ZM54.1689 45.6454C55.178 44.2178 55.6626 42.5282 55.6626 40.6257H53.6626C53.6626 42.1749 53.2737 43.447 52.5357 44.4909L54.1689 45.6454ZM55.6626 40.6257C55.6626 37.9909 54.7099 35.7993 52.7902 34.1469L51.4854 35.6627C52.9322 36.908 53.6626 38.5304 53.6626 40.6257H55.6626ZM52.7949 34.1511C50.8905 32.4908 48.2581 31.7315 45.0426 31.7315V33.7315C47.9635 33.7315 50.0612 34.4211 51.4807 35.6586L52.7949 34.1511ZM45.0426 31.7315H34.5277V33.7315H45.0426V31.7315ZM33.5277 32.7315V48.9354H35.5277V32.7315H33.5277Z" fill="black"/>
</svg>
