<svg width="499" height="384" viewBox="0 0 499 384" fill="none" xmlns="http://www.w3.org/2000/svg">
<g clip-path="url(#clip0_19_13)">
<path d="M9.21074 368.019C1.21257 371.439 -1.07724 375.173 3.30506 380.111C4.28919 381.219 5.50963 381.991 6.85577 382.503C13.2394 384.934 15.8739 376.308 11.3425 371.197" stroke="black"/>
</g>
<g clip-path="url(#clip1_19_13)">
<path d="M473.466 144.754C468.176 143.852 458.681 140.117 454.595 138.362L474.538 133.142L450.882 128.202L468.782 119.004L446.309 112.452L468.026 104.812L444.585 101.27" stroke="black"/>
</g>
<rect x="103.95" y="70.5891" width="268.422" height="246.484" rx="35" transform="rotate(-0.122304 103.95 70.5891)" fill="#3636F1"/>
<rect x="86.501" y="49.0719" width="267.422" height="245.484" rx="34.5" transform="rotate(-0.122304 86.501 49.0719)" stroke="black"/>
<path d="M87.3497 234.476L133.061 174.506C141.659 163.227 158.733 163.537 166.915 175.121L190.611 208.67C199.223 220.862 217.446 220.43 225.471 207.845L244.761 177.591C252.736 165.084 270.812 164.563 279.494 176.589L304.938 211.83C313.012 223.012 329.49 223.508 338.221 212.831L380.115 161.6" stroke="white" stroke-width="2"/>
<g clip-path="url(#clip2_19_13)">
<path d="M61.142 0.971308C59.5271 9.51896 61.352 13.5004 67.8939 12.6117C69.363 12.4121 70.6834 11.8282 71.859 10.9959C77.4339 7.0486 71.7379 0.0555809 64.9688 0.971314" stroke="#5F6FFF"/>
</g>
<path d="M455.306 336.166V336.166C457.517 329.962 463.908 326.284 470.383 327.489L476.809 328.685C478.23 328.949 479.498 329.741 480.36 330.901L482.124 333.277C485.503 337.826 480.133 343.703 475.298 340.747V340.747C474.975 340.55 474.675 340.318 474.403 340.055L471.605 337.348C466.834 332.734 459.194 338.074 461.888 344.14V344.14C464.333 349.643 458.098 354.942 453.061 351.642L448.123 348.408" stroke="black"/>
<g clip-path="url(#clip3_19_13)">
<path d="M405.742 24.4751C409.237 26.1528 413.431 24.6794 415.109 21.1842C416.786 17.6889 415.313 13.4954 411.818 11.8177C408.323 10.14 404.129 11.6134 402.451 15.1087C400.774 18.6039 402.247 22.7974 405.742 24.4751Z" fill="white" stroke="black" stroke-linecap="round" stroke-linejoin="round"/>
<path d="M418.581 30.1273C422.076 31.805 426.269 30.3316 427.947 26.8364C429.625 23.3412 428.151 19.1476 424.656 17.4699C421.161 15.7922 416.967 17.2656 415.29 20.7608C413.612 24.2561 415.085 28.4496 418.581 30.1273Z" fill="white" stroke="black" stroke-linecap="round" stroke-linejoin="round"/>
<path d="M409.183 23.4312C410.781 24.1983 412.699 23.5245 413.466 21.9263C414.233 20.3281 413.559 18.4105 411.961 17.6434C410.363 16.8762 408.445 17.55 407.678 19.1482C406.911 20.7464 407.585 22.664 409.183 23.4312Z" fill="black"/>
<path d="M421.965 28.9009C423.563 29.668 425.48 28.9943 426.248 27.3961C427.015 25.7978 426.341 23.8802 424.743 23.1131C423.145 22.346 421.227 23.0197 420.46 24.6179C419.693 26.2161 420.366 28.1337 421.965 28.9009Z" fill="black"/>
</g>
<defs>
<clipPath id="clip0_19_13">
<rect width="15" height="17" fill="white" transform="translate(-0.000183105 367)"/>
</clipPath>
<clipPath id="clip1_19_13">
<rect width="37" height="51" fill="white" transform="translate(429 120.843) rotate(-53.7617)"/>
</clipPath>
<clipPath id="clip2_19_13">
<rect width="15" height="14" fill="white" transform="translate(59.9998)"/>
</clipPath>
<clipPath id="clip3_19_13">
<rect width="30" height="16" fill="white" transform="translate(404.924 7) rotate(25.641)"/>
</clipPath>
</defs>
</svg>
