<svg width="68" height="89" viewBox="0 0 68 89" fill="none" xmlns="http://www.w3.org/2000/svg">
<path d="M32.892 87H9.68892V21.5455H33.0838C39.6676 21.5455 45.3352 22.8558 50.0866 25.4766C54.8381 28.076 58.4922 31.8153 61.049 36.6946C63.6271 41.5739 64.9162 47.4119 64.9162 54.2088C64.9162 61.027 63.6271 66.8864 61.049 71.7869C58.4922 76.6875 54.8168 80.4482 50.0227 83.0689C45.25 85.6896 39.5398 87 32.892 87ZM23.5277 75.1428H32.3168C36.4077 75.1428 39.8487 74.4183 42.6399 72.9695C45.4524 71.4993 47.5618 69.2301 48.968 66.1619C50.3956 63.0724 51.1094 59.0881 51.1094 54.2088C51.1094 49.3722 50.3956 45.4197 48.968 42.3516C47.5618 39.2834 45.4631 37.0249 42.6719 35.576C39.8807 34.1271 36.4396 33.4027 32.3487 33.4027H23.5277V75.1428Z" fill="white"/>
<path d="M9.68892 87H8.68892V88H9.68892V87ZM9.68892 21.5455V20.5455H8.68892V21.5455H9.68892ZM50.0866 25.4766L49.6037 26.3522L49.6067 26.3539L50.0866 25.4766ZM61.049 36.6946L60.1632 37.1588L60.1648 37.1618L61.049 36.6946ZM61.049 71.7869L60.164 71.3213L60.1624 71.3244L61.049 71.7869ZM50.0227 83.0689L49.5431 82.1914L49.5414 82.1923L50.0227 83.0689ZM23.5277 75.1428H22.5277V76.1428H23.5277V75.1428ZM42.6399 72.9695L43.1006 73.857L43.1032 73.8557L42.6399 72.9695ZM48.968 66.1619L48.0603 65.7425L48.059 65.7453L48.968 66.1619ZM48.968 42.3516L48.059 42.7682L48.0614 42.7734L48.968 42.3516ZM42.6719 35.576L43.1326 34.6884L43.1326 34.6884L42.6719 35.576ZM23.5277 33.4027V32.4027H22.5277V33.4027H23.5277ZM32.892 86H9.68892V88H32.892V86ZM10.6889 87V21.5455H8.68892V87H10.6889ZM9.68892 22.5455H33.0838V20.5455H9.68892V22.5455ZM33.0838 22.5455C39.5345 22.5455 45.0286 23.8287 49.6037 26.3522L50.5696 24.6009C45.6418 21.8829 39.8007 20.5455 33.0838 20.5455V22.5455ZM49.6067 26.3539C54.1819 28.8569 57.6963 32.451 60.1633 37.1588L61.9348 36.2305C59.2881 31.1796 55.4942 27.2951 50.5666 24.5993L49.6067 26.3539ZM60.1648 37.1618C62.6512 41.8674 63.9162 47.5376 63.9162 54.2088H65.9162C65.9162 47.2863 64.603 41.2803 61.9332 36.2274L60.1648 37.1618ZM63.9162 54.2088C63.9162 60.9017 62.6511 66.5938 60.164 71.3213L61.934 72.2525C64.6032 67.1789 65.9162 61.1522 65.9162 54.2088H63.9162ZM60.1624 71.3244C57.696 76.0516 54.1612 79.6668 49.5431 82.1914L50.5024 83.9463C55.4723 81.2295 59.2883 77.3234 61.9356 72.2495L60.1624 71.3244ZM49.5414 82.1923C44.9454 84.716 39.4084 86 32.892 86V88C39.6712 88 45.5546 86.6632 50.504 83.9454L49.5414 82.1923ZM23.5277 76.1428H32.3168V74.1428H23.5277V76.1428ZM32.3168 76.1428C36.5214 76.1428 40.1308 75.3986 43.1006 73.857L42.1792 72.0819C39.5667 73.438 36.2939 74.1428 32.3168 74.1428V76.1428ZM43.1032 73.8557C46.1252 72.276 48.3847 69.8347 49.8771 66.5786L48.059 65.7453C46.7389 68.6255 44.7796 70.7226 42.1767 72.0832L43.1032 73.8557ZM49.8758 66.5814C51.3846 63.3162 52.1094 59.1747 52.1094 54.2088H50.1094C50.1094 59.0014 49.4066 62.8287 48.0603 65.7425L49.8758 66.5814ZM52.1094 54.2088C52.1094 49.2845 51.3843 45.1741 49.8747 41.9297L48.0614 42.7734C49.4069 45.6654 50.1094 49.4598 50.1094 54.2088H52.1094ZM49.8771 41.9349C48.3853 38.68 46.1364 36.2477 43.1326 34.6884L42.2112 36.4635C44.7897 37.802 46.7383 39.8867 48.059 42.7682L49.8771 41.9349ZM43.1326 34.6884C40.1627 33.1468 36.5534 32.4027 32.3487 32.4027V34.4027C36.3259 34.4027 39.5986 35.1074 42.2112 36.4635L43.1326 34.6884ZM32.3487 32.4027H23.5277V34.4027H32.3487V32.4027ZM22.5277 33.4027V75.1428H24.5277V33.4027H22.5277Z" fill="black"/>
<rect x="0.5" y="46.5" width="29" height="13" fill="white" stroke="black"/>
<path d="M35.892 89H12.6889V23.5455H36.0838C42.6676 23.5455 48.3352 24.8558 53.0866 27.4766C57.8381 30.076 61.4922 33.8153 64.049 38.6946C66.6271 43.5739 67.9162 49.4119 67.9162 56.2088C67.9162 63.027 66.6271 68.8864 64.049 73.7869C61.4922 78.6875 57.8168 82.4482 53.0227 85.0689C48.25 87.6896 42.5398 89 35.892 89ZM26.5277 77.1428H35.3168C39.4077 77.1428 42.8487 76.4183 45.6399 74.9695C48.4524 73.4993 50.5618 71.2301 51.968 68.1619C53.3956 65.0724 54.1094 61.0881 54.1094 56.2088C54.1094 51.3722 53.3956 47.4197 51.968 44.3516C50.5618 41.2834 48.4631 39.0249 45.6719 37.576C42.8807 36.1271 39.4396 35.4027 35.3487 35.4027H26.5277V77.1428Z" fill="#FDC019"/>
<path d="M12.6889 89H11.6889V90H12.6889V89ZM12.6889 23.5455V22.5455H11.6889V23.5455H12.6889ZM53.0866 27.4766L52.6037 28.3522L52.6067 28.3539L53.0866 27.4766ZM64.049 38.6946L63.1632 39.1588L63.1648 39.1618L64.049 38.6946ZM64.049 73.7869L63.164 73.3213L63.1624 73.3244L64.049 73.7869ZM53.0227 85.0689L52.5431 84.1914L52.5414 84.1923L53.0227 85.0689ZM26.5277 77.1428H25.5277V78.1428H26.5277V77.1428ZM45.6399 74.9695L46.1006 75.857L46.1032 75.8557L45.6399 74.9695ZM51.968 68.1619L51.0603 67.7425L51.059 67.7453L51.968 68.1619ZM51.968 44.3516L51.059 44.7682L51.0614 44.7734L51.968 44.3516ZM45.6719 37.576L46.1326 36.6884L46.1326 36.6884L45.6719 37.576ZM26.5277 35.4027V34.4027H25.5277V35.4027H26.5277ZM35.892 88H12.6889V90H35.892V88ZM13.6889 89V23.5455H11.6889V89H13.6889ZM12.6889 24.5455H36.0838V22.5455H12.6889V24.5455ZM36.0838 24.5455C42.5345 24.5455 48.0286 25.8287 52.6037 28.3522L53.5696 26.6009C48.6418 23.8829 42.8007 22.5455 36.0838 22.5455V24.5455ZM52.6067 28.3539C57.1819 30.8569 60.6963 34.451 63.1633 39.1588L64.9348 38.2305C62.2881 33.1796 58.4942 29.2951 53.5666 26.5993L52.6067 28.3539ZM63.1648 39.1618C65.6512 43.8674 66.9162 49.5376 66.9162 56.2088H68.9162C68.9162 49.2863 67.603 43.2803 64.9332 38.2274L63.1648 39.1618ZM66.9162 56.2088C66.9162 62.9017 65.6511 68.5938 63.164 73.3213L64.934 74.2525C67.6032 69.1789 68.9162 63.1522 68.9162 56.2088H66.9162ZM63.1624 73.3244C60.696 78.0516 57.1612 81.6668 52.5431 84.1914L53.5024 85.9463C58.4723 83.2295 62.2883 79.3234 64.9356 74.2495L63.1624 73.3244ZM52.5414 84.1923C47.9454 86.716 42.4084 88 35.892 88V90C42.6712 90 48.5546 88.6632 53.504 85.9454L52.5414 84.1923ZM26.5277 78.1428H35.3168V76.1428H26.5277V78.1428ZM35.3168 78.1428C39.5214 78.1428 43.1308 77.3986 46.1006 75.857L45.1792 74.0819C42.5667 75.438 39.2939 76.1428 35.3168 76.1428V78.1428ZM46.1032 75.8557C49.1252 74.276 51.3847 71.8347 52.8771 68.5786L51.059 67.7453C49.7389 70.6255 47.7796 72.7226 45.1767 74.0832L46.1032 75.8557ZM52.8758 68.5814C54.3846 65.3162 55.1094 61.1747 55.1094 56.2088H53.1094C53.1094 61.0014 52.4066 64.8287 51.0603 67.7425L52.8758 68.5814ZM55.1094 56.2088C55.1094 51.2845 54.3843 47.1741 52.8747 43.9297L51.0614 44.7734C52.4069 47.6654 53.1094 51.4598 53.1094 56.2088H55.1094ZM52.8771 43.9349C51.3853 40.68 49.1364 38.2477 46.1326 36.6884L45.2112 38.4635C47.7897 39.802 49.7383 41.8867 51.059 44.7682L52.8771 43.9349ZM46.1326 36.6884C43.1627 35.1468 39.5534 34.4027 35.3487 34.4027V36.4027C39.3259 36.4027 42.5986 37.1074 45.2112 38.4635L46.1326 36.6884ZM35.3487 34.4027H26.5277V36.4027H35.3487V34.4027ZM25.5277 35.4027V77.1428H27.5277V35.4027H25.5277Z" fill="black"/>
<rect x="4.5" y="49.5" width="29" height="13" fill="white" stroke="black"/>
</svg>
