<svg width="78" height="101" viewBox="0 0 78 101" fill="none" xmlns="http://www.w3.org/2000/svg">
<path d="M36.8528 87H13.6497V21.5455H37.0446C43.6284 21.5455 49.296 22.8558 54.0474 25.4766C58.7989 28.076 62.453 31.8153 65.0098 36.6946C67.5879 41.5739 68.877 47.4119 68.877 54.2088C68.877 61.027 67.5879 66.8864 65.0098 71.7869C62.453 76.6875 58.7775 80.4482 53.9835 83.0689C49.2108 85.6896 43.5006 87 36.8528 87ZM27.4885 75.1428H36.2775C40.3685 75.1428 43.8095 74.4183 46.6007 72.9695C49.4132 71.4993 51.5226 69.2301 52.9288 66.1619C54.3564 63.0724 55.0702 59.0881 55.0702 54.2088C55.0702 49.3722 54.3564 45.4197 52.9288 42.3516C51.5226 39.2834 49.4239 37.0249 46.6327 35.576C43.8415 34.1271 40.4004 33.4027 36.3095 33.4027H27.4885V75.1428Z" fill="white"/>
<path d="M13.6497 87H12.6497V88H13.6497V87ZM13.6497 21.5455V20.5455H12.6497V21.5455H13.6497ZM54.0474 25.4766L53.5645 26.3522L53.5675 26.3539L54.0474 25.4766ZM65.0098 36.6946L64.124 37.1588L64.1256 37.1618L65.0098 36.6946ZM65.0098 71.7869L64.1248 71.3213L64.1232 71.3244L65.0098 71.7869ZM53.9835 83.0689L53.5038 82.1914L53.5022 82.1923L53.9835 83.0689ZM27.4885 75.1428H26.4885V76.1428H27.4885V75.1428ZM46.6007 72.9695L47.0614 73.857L47.064 73.8557L46.6007 72.9695ZM52.9288 66.1619L52.021 65.7425L52.0198 65.7453L52.9288 66.1619ZM52.9288 42.3516L52.0197 42.7682L52.0222 42.7734L52.9288 42.3516ZM46.6327 35.576L47.0934 34.6884L47.0934 34.6884L46.6327 35.576ZM27.4885 33.4027V32.4027H26.4885V33.4027H27.4885ZM36.8528 86H13.6497V88H36.8528V86ZM14.6497 87V21.5455H12.6497V87H14.6497ZM13.6497 22.5455H37.0446V20.5455H13.6497V22.5455ZM37.0446 22.5455C43.4953 22.5455 48.9894 23.8287 53.5645 26.3522L54.5304 24.6009C49.6026 21.8829 43.7615 20.5455 37.0446 20.5455V22.5455ZM53.5675 26.3539C58.1427 28.8569 61.6571 32.451 64.124 37.1588L65.8955 36.2305C63.2488 31.1796 59.455 27.2951 54.5274 24.5993L53.5675 26.3539ZM64.1256 37.1618C66.612 41.8674 67.877 47.5376 67.877 54.2088H69.877C69.877 47.2863 68.5638 41.2803 65.894 36.2274L64.1256 37.1618ZM67.877 54.2088C67.877 60.9017 66.6119 66.5938 64.1248 71.3213L65.8948 72.2525C68.564 67.1789 69.877 61.1522 69.877 54.2088H67.877ZM64.1232 71.3244C61.6568 76.0516 58.122 79.6668 53.5038 82.1914L54.4632 83.9463C59.4331 81.2295 63.2491 77.3234 65.8964 72.2495L64.1232 71.3244ZM53.5022 82.1923C48.9062 84.716 43.3691 86 36.8528 86V88C43.632 88 49.5154 86.6632 54.4648 83.9454L53.5022 82.1923ZM27.4885 76.1428H36.2775V74.1428H27.4885V76.1428ZM36.2775 76.1428C40.4822 76.1428 44.0916 75.3986 47.0614 73.857L46.14 72.0819C43.5274 73.438 40.2547 74.1428 36.2775 74.1428V76.1428ZM47.064 73.8557C50.086 72.276 52.3455 69.8347 53.8379 66.5786L52.0198 65.7453C50.6996 68.6255 48.7404 70.7226 46.1374 72.0832L47.064 73.8557ZM53.8366 66.5814C55.3453 63.3162 56.0702 59.1747 56.0702 54.2088H54.0702C54.0702 59.0014 53.3674 62.8287 52.0211 65.7425L53.8366 66.5814ZM56.0702 54.2088C56.0702 49.2845 55.345 45.1741 53.8355 41.9297L52.0222 42.7734C53.3677 45.6654 54.0702 49.4598 54.0702 54.2088H56.0702ZM53.8379 41.9349C52.3461 38.68 50.0972 36.2477 47.0934 34.6884L46.1719 36.4635C48.7505 37.802 50.6991 39.8867 52.0198 42.7682L53.8379 41.9349ZM47.0934 34.6884C44.1235 33.1468 40.5141 32.4027 36.3095 32.4027V34.4027C40.2867 34.4027 43.5594 35.1074 46.1719 36.4635L47.0934 34.6884ZM36.3095 32.4027H27.4885V34.4027H36.3095V32.4027ZM26.4885 33.4027V75.1428H28.4885V33.4027H26.4885Z" fill="black"/>
<rect x="0.5" y="45.5" width="43.7059" height="19.7941" fill="white" stroke="black"/>
<path d="M41.3234 89.9706H18.1203V24.516H41.5152C48.099 24.516 53.7666 25.8264 58.518 28.4472C63.2694 31.0466 66.9236 34.7859 69.4804 39.6652C72.0585 44.5445 73.3476 50.3825 73.3476 57.1794C73.3476 63.9976 72.0585 69.857 69.4804 74.7575C66.9236 79.6581 63.2481 83.4187 58.4541 86.0395C53.6814 88.6602 47.9711 89.9706 41.3234 89.9706ZM31.9591 78.1133H40.7481C44.839 78.1133 48.2801 77.3889 51.0713 75.94C53.8838 74.4699 55.9932 72.2007 57.3994 69.1325C58.827 66.043 59.5407 62.0587 59.5407 57.1794C59.5407 52.3427 58.827 48.3903 57.3994 45.3222C55.9932 42.254 53.8944 39.9954 51.1032 38.5466C48.312 37.0977 44.871 36.3733 40.7801 36.3733H31.9591V78.1133Z" fill="#FDC019"/>
<path d="M18.1203 89.9706H17.1203V90.9706H18.1203V89.9706ZM18.1203 24.516V23.516H17.1203V24.516H18.1203ZM58.518 28.4472L58.035 29.3228L58.0381 29.3244L58.518 28.4472ZM69.4804 39.6652L68.5946 40.1293L68.5962 40.1324L69.4804 39.6652ZM69.4804 74.7575L68.5954 74.2919L68.5938 74.295L69.4804 74.7575ZM58.4541 86.0395L57.9744 85.162L57.9728 85.1629L58.4541 86.0395ZM31.9591 78.1133H30.9591V79.1133H31.9591V78.1133ZM51.0713 75.94L51.532 76.8276L51.5345 76.8263L51.0713 75.94ZM57.3994 69.1325L56.4916 68.7131L56.4903 68.7159L57.3994 69.1325ZM57.3994 45.3222L56.4903 45.7388L56.4927 45.744L57.3994 45.3222ZM51.1032 38.5466L51.564 37.659L51.564 37.659L51.1032 38.5466ZM31.9591 36.3733V35.3733H30.9591V36.3733H31.9591ZM41.3234 88.9706H18.1203V90.9706H41.3234V88.9706ZM19.1203 89.9706V24.516H17.1203V89.9706H19.1203ZM18.1203 25.516H41.5152V23.516H18.1203V25.516ZM41.5152 25.516C47.9659 25.516 53.46 26.7993 58.035 29.3228L59.001 27.5715C54.0732 24.8535 48.2321 23.516 41.5152 23.516V25.516ZM58.0381 29.3244C62.6133 31.8275 66.1277 35.4216 68.5946 40.1293L70.3661 39.201C67.7194 34.1502 63.9256 30.2657 58.998 27.5699L58.0381 29.3244ZM68.5962 40.1324C71.0826 44.838 72.3476 50.5082 72.3476 57.1794H74.3476C74.3476 50.2569 73.0344 44.2509 70.3645 39.198L68.5962 40.1324ZM72.3476 57.1794C72.3476 63.8723 71.0824 69.5644 68.5954 74.2919L70.3654 75.2231C73.0346 70.1495 74.3476 64.1228 74.3476 57.1794H72.3476ZM68.5938 74.295C66.1274 79.0222 62.5926 82.6374 57.9744 85.162L58.9338 86.9169C63.9037 84.2 67.7197 80.294 70.367 75.2201L68.5938 74.295ZM57.9728 85.1629C53.3768 87.6866 47.8397 88.9706 41.3234 88.9706V90.9706C48.1026 90.9706 53.9859 89.6338 58.9354 86.916L57.9728 85.1629ZM31.9591 79.1133H40.7481V77.1133H31.9591V79.1133ZM40.7481 79.1133C44.9528 79.1133 48.5622 78.3692 51.532 76.8276L50.6106 75.0525C47.998 76.4086 44.7253 77.1133 40.7481 77.1133V79.1133ZM51.5345 76.8263C54.5566 75.2466 56.8161 72.8053 58.3085 69.5492L56.4903 68.7159C55.1702 71.5961 53.211 73.6932 50.608 75.0538L51.5345 76.8263ZM58.3072 69.552C59.8159 66.2868 60.5407 62.1453 60.5407 57.1794H58.5407C58.5407 61.972 57.838 65.7993 56.4916 68.7131L58.3072 69.552ZM60.5407 57.1794C60.5407 52.2551 59.8156 48.1447 58.3061 44.9003L56.4927 45.744C57.8383 48.636 58.5407 52.4304 58.5407 57.1794H60.5407ZM58.3085 44.9055C56.8167 41.6506 54.5678 39.2183 51.564 37.659L50.6425 39.4341C53.2211 40.7726 55.1697 42.8573 56.4903 45.7388L58.3085 44.9055ZM51.564 37.659C48.5941 36.1174 44.9847 35.3733 40.7801 35.3733V37.3733C44.7573 37.3733 48.03 38.078 50.6425 39.4341L51.564 37.659ZM40.7801 35.3733H31.9591V37.3733H40.7801V35.3733ZM30.9591 36.3733V78.1133H32.9591V36.3733H30.9591Z" fill="black"/>
<rect x="2.5" y="47.5" width="43.7059" height="19.7941" fill="white" stroke="black"/>
</svg>
