<svg width="48" height="68" viewBox="0 0 48 68" fill="none" xmlns="http://www.w3.org/2000/svg">
<path d="M19.6193 56H4.66619V13.8182H19.7429C23.9858 13.8182 27.6383 14.6626 30.7003 16.3516C33.7623 18.0268 36.1172 20.4366 37.7649 23.581C39.4264 26.7254 40.2571 30.4877 40.2571 34.8679C40.2571 39.2618 39.4264 43.0379 37.7649 46.196C36.1172 49.3542 33.7486 51.7777 30.6591 53.4666C27.5833 55.1555 23.9034 56 19.6193 56ZM13.5845 48.3587H19.2486C21.8849 48.3587 24.1025 47.8918 25.9013 46.9581C27.7138 46.0107 29.0732 44.5483 29.9794 42.571C30.8994 40.58 31.3594 38.0123 31.3594 34.8679C31.3594 31.7509 30.8994 29.2038 29.9794 27.2266C29.0732 25.2493 27.7206 23.7938 25.9219 22.8601C24.1231 21.9264 21.9055 21.4595 19.2692 21.4595H13.5845V48.3587Z" fill="white"/>
<path d="M4.66619 56H3.66619V57H4.66619V56ZM4.66619 13.8182V12.8182H3.66619V13.8182H4.66619ZM30.7003 16.3516L30.2173 17.2272L30.2203 17.2289L30.7003 16.3516ZM37.7649 23.581L36.8792 24.0451L36.8808 24.0481L37.7649 23.581ZM37.7649 46.196L36.8799 45.7304L36.8783 45.7335L37.7649 46.196ZM30.6591 53.4666L30.1794 52.5892L30.1778 52.5901L30.6591 53.4666ZM13.5845 48.3587H12.5845V49.3587H13.5845V48.3587ZM25.9013 46.9581L26.362 47.8456L26.3645 47.8443L25.9013 46.9581ZM29.9794 42.571L29.0716 42.1516L29.0703 42.1544L29.9794 42.571ZM29.9794 27.2266L29.0703 27.6432L29.0727 27.6484L29.9794 27.2266ZM25.9219 22.8601L26.3826 21.9725L26.3826 21.9725L25.9219 22.8601ZM13.5845 21.4595V20.4595H12.5845V21.4595H13.5845ZM19.6193 55H4.66619V57H19.6193V55ZM5.66619 56V13.8182H3.66619V56H5.66619ZM4.66619 14.8182H19.7429V12.8182H4.66619V14.8182ZM19.7429 14.8182C23.8527 14.8182 27.3317 15.6356 30.2173 17.2272L31.1833 15.4759C27.9449 13.6897 24.1189 12.8182 19.7429 12.8182V14.8182ZM30.2203 17.2289C33.1062 18.8077 35.3213 21.0722 36.8792 24.0451L38.6507 23.1168C36.9131 19.8009 34.4184 17.2458 31.1802 15.4743L30.2203 17.2289ZM36.8808 24.0481C38.4505 27.019 39.2571 30.6133 39.2571 34.8679H41.2571C41.2571 30.362 40.4023 26.4318 38.6491 23.1138L36.8808 24.0481ZM39.2571 34.8679C39.2571 39.1366 38.4503 42.7454 36.8799 45.7304L38.6499 46.6616C40.4024 43.3304 41.2571 39.3871 41.2571 34.8679H39.2571ZM36.8783 45.7335C35.321 48.7183 33.093 50.9964 30.1794 52.5892L31.1388 54.3441C34.4041 52.559 36.9133 49.9901 38.6515 46.6586L36.8783 45.7335ZM30.1778 52.5901C27.2788 54.1819 23.772 55 19.6193 55V57C24.0348 57 27.8879 56.1291 31.1404 54.3432L30.1778 52.5901ZM13.5845 49.3587H19.2486V47.3587H13.5845V49.3587ZM19.2486 49.3587C21.9987 49.3587 24.3846 48.8721 26.362 47.8456L25.4406 46.0705C23.8204 46.9115 21.7712 47.3587 19.2486 47.3587V49.3587ZM26.3645 47.8443C28.3865 46.7874 29.8961 45.1529 30.8885 42.9877L29.0703 42.1544C28.2502 43.9437 27.041 45.2339 25.438 46.0719L26.3645 47.8443ZM30.8872 42.9905C31.8883 40.8238 32.3594 38.099 32.3594 34.8679H30.3594C30.3594 37.9257 29.9104 40.3362 29.0716 42.1516L30.8872 42.9905ZM32.3594 34.8679C32.3594 31.6633 31.888 28.9582 30.8861 26.8047L29.0727 27.6484C29.9107 29.4495 30.3594 31.8386 30.3594 34.8679H32.3594ZM30.8885 26.8099C29.8967 24.6459 28.394 23.0166 26.3826 21.9725L25.4612 23.7476C27.0473 24.571 28.2497 25.8526 29.0703 27.6432L30.8885 26.8099ZM26.3826 21.9725C24.4052 20.9461 22.0193 20.4595 19.2692 20.4595V22.4595C21.7918 22.4595 23.841 22.9067 25.4612 23.7476L26.3826 21.9725ZM19.2692 20.4595H13.5845V22.4595H19.2692V20.4595ZM12.5845 21.4595V48.3587H14.5845V21.4595H12.5845Z" fill="black"/>
<rect x="0.5" y="31.5" width="18" height="8" fill="white" stroke="black"/>
<path d="M22.6193 58H7.66619V15.8182H22.7429C26.9858 15.8182 30.6383 16.6626 33.7003 18.3516C36.7623 20.0268 39.1172 22.4366 40.7649 25.581C42.4264 28.7254 43.2571 32.4877 43.2571 36.8679C43.2571 41.2618 42.4264 45.0379 40.7649 48.196C39.1172 51.3542 36.7486 53.7777 33.6591 55.4666C30.5833 57.1555 26.9034 58 22.6193 58ZM16.5845 50.3587H22.2486C24.8849 50.3587 27.1025 49.8918 28.9013 48.9581C30.7138 48.0107 32.0732 46.5483 32.9794 44.571C33.8994 42.58 34.3594 40.0123 34.3594 36.8679C34.3594 33.7509 33.8994 31.2038 32.9794 29.2266C32.0732 27.2493 30.7206 25.7938 28.9219 24.8601C27.1231 23.9264 24.9055 23.4595 22.2692 23.4595H16.5845V50.3587Z" fill="#FDC019"/>
<path d="M7.66619 58H6.66619V59H7.66619V58ZM7.66619 15.8182V14.8182H6.66619V15.8182H7.66619ZM33.7003 18.3516L33.2173 19.2272L33.2203 19.2289L33.7003 18.3516ZM40.7649 25.581L39.8792 26.0451L39.8808 26.0481L40.7649 25.581ZM40.7649 48.196L39.8799 47.7304L39.8783 47.7335L40.7649 48.196ZM33.6591 55.4666L33.1794 54.5892L33.1778 54.5901L33.6591 55.4666ZM16.5845 50.3587H15.5845V51.3587H16.5845V50.3587ZM28.9013 48.9581L29.362 49.8456L29.3645 49.8443L28.9013 48.9581ZM32.9794 44.571L32.0716 44.1516L32.0703 44.1544L32.9794 44.571ZM32.9794 29.2266L32.0703 29.6432L32.0727 29.6484L32.9794 29.2266ZM28.9219 24.8601L29.3826 23.9725L29.3826 23.9725L28.9219 24.8601ZM16.5845 23.4595V22.4595H15.5845V23.4595H16.5845ZM22.6193 57H7.66619V59H22.6193V57ZM8.66619 58V15.8182H6.66619V58H8.66619ZM7.66619 16.8182H22.7429V14.8182H7.66619V16.8182ZM22.7429 16.8182C26.8527 16.8182 30.3317 17.6356 33.2173 19.2272L34.1833 17.4759C30.9449 15.6897 27.1189 14.8182 22.7429 14.8182V16.8182ZM33.2203 19.2289C36.1062 20.8077 38.3213 23.0722 39.8792 26.0451L41.6507 25.1168C39.9131 21.8009 37.4184 19.2458 34.1802 17.4743L33.2203 19.2289ZM39.8808 26.0481C41.4505 29.019 42.2571 32.6133 42.2571 36.8679H44.2571C44.2571 32.362 43.4023 28.4318 41.6491 25.1138L39.8808 26.0481ZM42.2571 36.8679C42.2571 41.1366 41.4503 44.7454 39.8799 47.7304L41.6499 48.6616C43.4024 45.3304 44.2571 41.3871 44.2571 36.8679H42.2571ZM39.8783 47.7335C38.321 50.7183 36.093 52.9964 33.1794 54.5892L34.1388 56.3441C37.4041 54.559 39.9133 51.9901 41.6515 48.6586L39.8783 47.7335ZM33.1778 54.5901C30.2788 56.1819 26.772 57 22.6193 57V59C27.0348 59 30.8879 58.1291 34.1404 56.3432L33.1778 54.5901ZM16.5845 51.3587H22.2486V49.3587H16.5845V51.3587ZM22.2486 51.3587C24.9987 51.3587 27.3846 50.8721 29.362 49.8456L28.4406 48.0705C26.8204 48.9115 24.7712 49.3587 22.2486 49.3587V51.3587ZM29.3645 49.8443C31.3865 48.7874 32.8961 47.1529 33.8885 44.9877L32.0703 44.1544C31.2502 45.9437 30.041 47.2339 28.438 48.0719L29.3645 49.8443ZM33.8872 44.9905C34.8883 42.8238 35.3594 40.099 35.3594 36.8679H33.3594C33.3594 39.9257 32.9104 42.3362 32.0716 44.1516L33.8872 44.9905ZM35.3594 36.8679C35.3594 33.6633 34.888 30.9582 33.8861 28.8047L32.0727 29.6484C32.9107 31.4495 33.3594 33.8386 33.3594 36.8679H35.3594ZM33.8885 28.8099C32.8967 26.6459 31.394 25.0166 29.3826 23.9725L28.4612 25.7476C30.0473 26.571 31.2497 27.8526 32.0703 29.6432L33.8885 28.8099ZM29.3826 23.9725C27.4052 22.9461 25.0193 22.4595 22.2692 22.4595V24.4595C24.7918 24.4595 26.841 24.9067 28.4612 25.7476L29.3826 23.9725ZM22.2692 22.4595H16.5845V24.4595H22.2692V22.4595ZM15.5845 23.4595V50.3587H17.5845V23.4595H15.5845Z" fill="black"/>
<rect x="4.5" y="32.5" width="18" height="8" fill="white" stroke="black"/>
</svg>
