<svg width="58" height="104" viewBox="0 0 58 104" fill="none" xmlns="http://www.w3.org/2000/svg">
<path d="M3.05529 64.2193L24.2037 4.00648V76.466L3.05529 64.2193Z" fill="white" stroke="black"/>
<path d="M27.4259 85.5435L2.23084 68.6867L27.4259 101.634V85.5435Z" fill="white" stroke="black"/>
<path d="M50.8204 64.2464L26.4849 6.20208L31.3415 76.4663L50.8204 64.2464Z" fill="white" stroke="black"/>
<path d="M28.4259 85.5316L51.558 68.7654L28.4259 101.536V85.5316Z" fill="white" stroke="black"/>
<path d="M7.35159 63.1453L28.5 2.93241V75.3919L7.35159 63.1453Z" fill="#1E32EA" stroke="black"/>
<path d="M31.7222 84.4695L6.52713 67.6127L31.7222 100.56V84.4695Z" fill="#1E32EA" stroke="black"/>
<path d="M55.1167 63.1724L30.7812 5.12802L35.6378 75.3922L55.1167 63.1724Z" fill="#1E32EA" stroke="black"/>
<path d="M32.7222 84.4575L55.8543 67.6913L32.7222 100.462V84.4575Z" fill="#1E32EA" stroke="black"/>
</svg>
