<svg width="27" height="48" viewBox="0 0 27 48" fill="none" xmlns="http://www.w3.org/2000/svg">
<path d="M1.7478 29.7749L11 3.43241V35.1327L1.7478 29.7749Z" fill="white" stroke="black"/>
<path d="M12.5 39.9647L2.23084 33.0941L12.5 46.523V39.9647Z" fill="white" stroke="black"/>
<path d="M23.3236 29.802L12.7072 4.47986L14.8259 35.1329L23.3236 29.802Z" fill="white" stroke="black"/>
<path d="M13.5 39.9528L22.8543 33.1728L13.5 46.4246V39.9528Z" fill="white" stroke="black"/>
<path d="M3.7478 29.2749L13 2.93241V34.6327L3.7478 29.2749Z" fill="#1E32EA" stroke="black"/>
<path d="M14.5 39.4647L4.23084 32.5941L14.5 46.023V39.4647Z" fill="#1E32EA" stroke="black"/>
<path d="M25.3236 29.302L14.7072 3.97986L16.8259 34.6329L25.3236 29.302Z" fill="#1E32EA" stroke="black"/>
<path d="M15.5 39.4528L24.8543 32.6728L15.5 45.9246V39.4528Z" fill="#1E32EA" stroke="black"/>
</svg>
