<svg width="527" height="384" viewBox="0 0 527 384" fill="none" xmlns="http://www.w3.org/2000/svg">
<g clip-path="url(#clip0_19_13)">
<path d="M37.2107 368.019C29.2125 371.439 26.9227 375.173 31.305 380.111C32.2891 381.219 33.5096 381.991 34.8557 382.503C41.2394 384.934 43.8739 376.308 39.3425 371.197" stroke="black"/>
</g>
<g clip-path="url(#clip1_19_13)">
<path d="M500.34 137.998C495.781 135.167 488.397 128.125 485.275 124.958L505.715 127.648L485.671 114.149L505.718 112.384L487.377 97.8364L510.372 98.9549L490 86.8309" stroke="black"/>
</g>
<rect x="131.95" y="70.5891" width="268.422" height="246.484" rx="35" transform="rotate(-0.122304 131.95 70.5891)" fill="#F36A06" fill-opacity="0.93"/>
<rect x="116.501" y="47.0719" width="267.422" height="245.484" rx="34.5" transform="rotate(-0.122304 116.501 47.0719)" stroke="black"/>
<path d="M322.449 236.762L285.698 173.264L359.064 173.185L322.449 236.762Z" fill="white"/>
<circle cx="294.5" cy="152.5" r="14.5" fill="#242DFF"/>
<circle cx="294.5" cy="114.5" r="14.5" fill="white"/>
<circle cx="350.5" cy="242.5" r="14.5" fill="#242DFF"/>
<circle cx="258.5" cy="152.5" r="14.5" fill="white"/>
<circle cx="350.5" cy="114.5" r="14.5" fill="white"/>
<circle cx="350.5" cy="152.5" r="14.5" fill="white"/>
<circle cx="258.5" cy="114.5" r="14.5" fill="#242DFF"/>
<path d="M170.061 106.939C169.475 106.354 168.525 106.354 167.939 106.939L158.393 116.485C157.808 117.071 157.808 118.021 158.393 118.607C158.979 119.192 159.929 119.192 160.515 118.607L169 110.121L177.485 118.607C178.071 119.192 179.021 119.192 179.607 118.607C180.192 118.021 180.192 117.071 179.607 116.485L170.061 106.939ZM170.5 257V108H167.5V257H170.5Z" fill="white"/>
<path d="M207.061 106.939C206.475 106.354 205.525 106.354 204.939 106.939L195.393 116.485C194.808 117.071 194.808 118.021 195.393 118.607C195.979 119.192 196.929 119.192 197.515 118.607L206 110.121L214.485 118.607C215.071 119.192 216.021 119.192 216.607 118.607C217.192 118.021 217.192 117.071 216.607 116.485L207.061 106.939ZM207.5 257V108H204.5V257H207.5Z" fill="white"/>
<g clip-path="url(#clip2_19_13)">
<path d="M89.142 0.971308C87.5271 9.51896 89.352 13.5004 95.8939 12.6117C97.363 12.4121 98.6834 11.8282 99.859 10.9959C105.434 7.0486 99.7379 0.0555809 92.9688 0.971314" stroke="#5F6FFF"/>
</g>
<path d="M19.6346 113.972V113.972C19.263 107.397 23.724 101.525 30.1587 100.121L36.5443 98.7273C37.9563 98.4192 39.4326 98.6561 40.6772 99.3907L43.2258 100.895C48.1061 103.775 45.44 111.276 39.8366 110.43V110.43C39.4624 110.373 39.0956 110.276 38.7428 110.139L35.1129 108.732C28.9249 106.332 23.9582 114.221 28.7965 118.764V118.764C33.1865 122.886 29.4993 130.19 23.5758 129.106L17.7693 128.043" stroke="black"/>
<g clip-path="url(#clip3_19_13)">
<path d="M469.545 369.058C474.757 371.56 481.01 369.362 483.512 364.151C486.013 358.939 483.816 352.686 478.604 350.184C473.392 347.682 467.139 349.879 464.638 355.091C462.136 360.303 464.333 366.556 469.545 369.058Z" fill="white" stroke="black" stroke-linecap="round" stroke-linejoin="round"/>
<path d="M488.689 377.486C493.901 379.988 500.154 377.791 502.655 372.579C505.157 367.367 502.96 361.114 497.748 358.612C492.536 356.11 486.283 358.308 483.781 363.519C481.28 368.731 483.477 374.984 488.689 377.486Z" fill="white" stroke="black" stroke-linecap="round" stroke-linejoin="round"/>
<path d="M466.789 361.964C469.172 363.108 472.031 362.103 473.175 359.72C474.319 357.337 473.314 354.477 470.931 353.334C468.548 352.19 465.689 353.194 464.545 355.577C463.401 357.961 464.405 360.82 466.789 361.964Z" fill="black"/>
<path d="M485.848 370.12C488.231 371.264 491.091 370.259 492.235 367.876C493.378 365.493 492.374 362.634 489.991 361.49C487.608 360.346 484.748 361.35 483.604 363.734C482.46 366.117 483.465 368.976 485.848 370.12Z" fill="black"/>
</g>
<defs>
<clipPath id="clip0_19_13">
<rect width="15" height="17" fill="white" transform="translate(27.9998 367)"/>
</clipPath>
<clipPath id="clip1_19_13">
<rect width="37" height="51" fill="white" transform="translate(468.182 99.0771) rotate(-31.5956)"/>
</clipPath>
<clipPath id="clip2_19_13">
<rect width="15" height="14" fill="white" transform="translate(87.9998)"/>
</clipPath>
<clipPath id="clip3_19_13">
<rect width="44.7342" height="23.8582" fill="white" transform="translate(468.324 343) rotate(25.641)"/>
</clipPath>
</defs>
</svg>
