<svg width="533" height="384" viewBox="0 0 533 384" fill="none" xmlns="http://www.w3.org/2000/svg">
<g clip-path="url(#clip0_19_13)">
<path d="M26.2107 368.019C18.2126 371.439 15.9228 375.173 20.3051 380.111C21.2892 381.219 22.5096 381.991 23.8558 382.503C30.2394 384.934 32.8739 376.308 28.3425 371.197" stroke="black"/>
</g>
<g clip-path="url(#clip1_19_13)">
<path d="M15.0227 90.006C11.8939 85.6459 7.76628 76.3145 6.0936 72.1939L23.9481 82.5001L10.5948 62.3583L29.7916 68.3985L18.4132 47.9405L39.2299 57.7723L25.0474 38.776" stroke="black"/>
</g>
<rect x="120.95" y="70.5891" width="268.422" height="246.484" rx="35" transform="rotate(-0.122304 120.95 70.5891)" fill="#22CD94" fill-opacity="0.93"/>
<rect x="103.501" y="51.0719" width="267.422" height="245.484" rx="34.5" transform="rotate(-0.122304 103.501 51.0719)" stroke="black"/>
<path d="M121 275L196.348 188.129L242.716 228.669L354 114M354 114V168.439M354 114L301.836 119.791" stroke="white" stroke-width="7"/>
<g clip-path="url(#clip2_19_13)">
<path d="M78.142 0.971308C76.5271 9.51896 78.352 13.5004 84.8939 12.6117C86.363 12.4121 87.6835 11.8282 88.8591 10.9959C94.434 7.0486 88.738 0.0555809 81.9688 0.971314" stroke="#5F6FFF"/>
</g>
<path d="M484.056 89.0545V89.0545C483.684 82.4789 488.145 76.6076 494.58 75.2032L500.966 73.8096C502.378 73.5015 503.854 73.7384 505.098 74.473L507.647 75.9771C512.527 78.8574 509.861 86.3583 504.258 85.5122V85.5122C503.884 85.4557 503.517 85.3582 503.164 85.2214L499.534 83.8139C493.346 81.4147 488.379 89.3032 493.218 93.8461V93.8461C497.608 97.9681 493.921 105.272 487.997 104.188L482.191 103.125" stroke="black"/>
<g clip-path="url(#clip3_19_13)">
<path d="M422.742 24.4751C426.237 26.1528 430.431 24.6794 432.109 21.1842C433.786 17.6889 432.313 13.4954 428.818 11.8177C425.323 10.14 421.129 11.6134 419.451 15.1087C417.774 18.6039 419.247 22.7974 422.742 24.4751Z" fill="white" stroke="black" stroke-linecap="round" stroke-linejoin="round"/>
<path d="M435.581 30.1273C439.076 31.805 443.269 30.3316 444.947 26.8364C446.625 23.3412 445.151 19.1476 441.656 17.4699C438.161 15.7922 433.967 17.2656 432.29 20.7608C430.612 24.2561 432.085 28.4496 435.581 30.1273Z" fill="white" stroke="black" stroke-linecap="round" stroke-linejoin="round"/>
<path d="M426.183 23.4312C427.781 24.1983 429.699 23.5245 430.466 21.9263C431.233 20.3281 430.559 18.4105 428.961 17.6434C427.363 16.8762 425.445 17.55 424.678 19.1482C423.911 20.7464 424.585 22.664 426.183 23.4312Z" fill="black"/>
<path d="M438.965 28.9009C440.563 29.668 442.48 28.9943 443.248 27.3961C444.015 25.7978 443.341 23.8802 441.743 23.1131C440.145 22.346 438.227 23.0197 437.46 24.6179C436.693 26.2161 437.366 28.1337 438.965 28.9009Z" fill="black"/>
</g>
<defs>
<clipPath id="clip0_19_13">
<rect width="15" height="17" fill="white" transform="translate(16.9998 367)"/>
</clipPath>
<clipPath id="clip1_19_13">
<rect width="37" height="51" fill="white" transform="translate(0.203857 41.7421) rotate(-9.0989)"/>
</clipPath>
<clipPath id="clip2_19_13">
<rect width="15" height="14" fill="white" transform="translate(76.9999)"/>
</clipPath>
<clipPath id="clip3_19_13">
<rect width="30" height="16" fill="white" transform="translate(421.924 7) rotate(25.641)"/>
</clipPath>
</defs>
</svg>
