<svg width="464" height="394" viewBox="0 0 464 394" fill="none" xmlns="http://www.w3.org/2000/svg">
<g clip-path="url(#clip0_19_13)">
<path d="M457.211 1.01895C449.213 4.43942 446.923 8.17286 451.305 13.1106C452.289 14.2195 453.51 14.9909 454.856 15.5035C461.24 17.9343 463.874 9.30845 459.343 4.19698" stroke="black"/>
</g>
<g clip-path="url(#clip1_19_13)">
<path d="M13 88C10.6 83.2 8 73.3333 7 69L23 82L13 60L31 69L23 47L42 60L31 39" stroke="black"/>
</g>
<g filter="url(#filter0_d_19_13)">
<rect x="115" y="59.573" width="268.422" height="246.484" rx="35" transform="rotate(-0.122304 115 59.573)" fill="#46E1A0" fill-opacity="0.52" shape-rendering="crispEdges"/>
</g>
<g filter="url(#filter1_d_19_13)">
<rect x="85.5011" y="46.0719" width="267.422" height="245.484" rx="34.5" transform="rotate(-0.122304 85.5011 46.0719)" stroke="black" shape-rendering="crispEdges"/>
</g>
<path d="M102.176 183.149L147.888 123.18C156.485 111.901 173.56 112.211 181.742 123.795L205.438 157.343C214.049 169.535 232.273 169.104 240.298 156.518L259.588 126.265C267.562 113.758 285.638 113.236 294.321 125.262L319.765 160.503C327.838 171.686 344.316 172.181 353.047 161.504L394.942 110.273" stroke="black" stroke-width="2"/>
<circle cx="146.901" cy="88.85" r="10.85" fill="#DE1D29"/>
<circle cx="168.85" cy="152.85" r="10.85" fill="#40DF77"/>
<circle cx="272.901" cy="151.85" r="10.85" fill="#41DF77"/>
<circle cx="337.85" cy="192.85" r="10.85" fill="#DE1D29"/>
<path d="M436.002 283.272L429.859 292.667C426.292 298.121 428.707 305.476 434.812 307.755V307.755C440.706 309.956 443.206 316.928 440.054 322.373L439.615 323.133C436.371 328.736 438.694 335.915 444.605 338.557L445.644 339.021C452 341.862 454.585 349.517 451.252 355.63L445.187 366.751" stroke="#385CDC"/>
<g clip-path="url(#clip2_19_13)">
<path d="M1.14214 239.971C-0.472767 248.519 1.35216 252.5 7.89405 251.612C9.36316 251.412 10.6836 250.828 11.8592 249.996C17.4341 246.049 11.7381 239.056 4.96894 239.971" stroke="#5F6FFF"/>
</g>
<path d="M60.4347 231.455H63.6591L67.9773 241.994H68.1477L72.4659 231.455H75.6903V246H73.1619V236.007H73.027L69.0071 245.957H67.1179L63.098 235.986H62.9631V246H60.4347V231.455ZM81.5852 246.22C80.8939 246.22 80.2713 246.097 79.7173 245.851C79.1681 245.6 78.7325 245.231 78.4105 244.743C78.0933 244.255 77.9347 243.654 77.9347 242.939C77.9347 242.323 78.0483 241.814 78.2756 241.412C78.5028 241.009 78.813 240.688 79.206 240.446C79.599 240.205 80.0417 240.022 80.5341 239.899C81.0313 239.771 81.545 239.679 82.0753 239.622C82.7145 239.556 83.233 239.497 83.6307 239.445C84.0284 239.388 84.3172 239.303 84.4972 239.189C84.6818 239.071 84.7741 238.888 84.7741 238.642V238.599C84.7741 238.064 84.6155 237.65 84.2983 237.357C83.9811 237.063 83.5241 236.916 82.9276 236.916C82.2978 236.916 81.7983 237.054 81.429 237.328C81.0644 237.603 80.8182 237.927 80.6903 238.301L78.2898 237.96C78.4792 237.297 78.7917 236.743 79.2273 236.298C79.6629 235.848 80.1955 235.512 80.8253 235.29C81.455 235.062 82.151 234.949 82.9134 234.949C83.4389 234.949 83.9621 235.01 84.483 235.134C85.0038 235.257 85.4796 235.46 85.9105 235.744C86.3414 236.024 86.687 236.405 86.9474 236.888C87.2126 237.371 87.3452 237.974 87.3452 238.699V246H84.8736V244.501H84.7884C84.6321 244.804 84.4119 245.089 84.1278 245.354C83.8485 245.614 83.4957 245.825 83.0696 245.986C82.6482 246.142 82.1534 246.22 81.5852 246.22ZM82.2528 244.331C82.7689 244.331 83.2164 244.229 83.5952 244.026C83.974 243.817 84.2652 243.543 84.4688 243.202C84.6771 242.861 84.7812 242.489 84.7812 242.087V240.801C84.7008 240.867 84.5634 240.929 84.3693 240.986C84.1799 241.043 83.9669 241.092 83.7301 241.135C83.4934 241.178 83.259 241.215 83.027 241.249C82.795 241.282 82.5938 241.31 82.4233 241.334C82.0398 241.386 81.6965 241.471 81.3935 241.589C81.0904 241.708 80.8513 241.874 80.6761 242.087C80.5009 242.295 80.4134 242.565 80.4134 242.896C80.4134 243.37 80.5862 243.727 80.9318 243.969C81.2775 244.21 81.7178 244.331 82.2528 244.331ZM92.2741 242.577L92.267 239.473H92.679L96.5994 235.091H99.6037L94.7812 240.46H94.2486L92.2741 242.577ZM89.9304 246V231.455H92.5014V246H89.9304ZM96.777 246L93.2259 241.036L94.9588 239.224L99.8523 246H96.777ZM105.697 246.213C104.604 246.213 103.659 245.986 102.864 245.531C102.073 245.072 101.464 244.423 101.038 243.585C100.612 242.742 100.399 241.75 100.399 240.609C100.399 239.487 100.612 238.502 101.038 237.655C101.469 236.803 102.071 236.14 102.842 235.666C103.614 235.188 104.521 234.949 105.562 234.949C106.235 234.949 106.869 235.058 107.466 235.276C108.067 235.489 108.598 235.82 109.057 236.27C109.521 236.72 109.885 237.293 110.151 237.989C110.416 238.68 110.548 239.504 110.548 240.46V241.249H101.607V239.516H108.084C108.079 239.023 107.973 238.585 107.764 238.202C107.556 237.813 107.265 237.508 106.891 237.286C106.521 237.063 106.09 236.952 105.598 236.952C105.072 236.952 104.611 237.08 104.213 237.335C103.815 237.586 103.505 237.918 103.283 238.33C103.065 238.737 102.954 239.184 102.949 239.672V241.185C102.949 241.819 103.065 242.364 103.297 242.818C103.529 243.268 103.853 243.614 104.27 243.855C104.687 244.092 105.174 244.21 105.733 244.21C106.107 244.21 106.446 244.158 106.749 244.054C107.052 243.945 107.314 243.786 107.537 243.578C107.759 243.37 107.928 243.112 108.041 242.804L110.442 243.074C110.29 243.708 110.001 244.262 109.575 244.736C109.154 245.205 108.614 245.569 107.956 245.83C107.298 246.085 106.545 246.213 105.697 246.213ZM123.132 235.091V237.08H116.86V235.091H123.132ZM118.409 232.477H120.98V242.719C120.98 243.064 121.032 243.33 121.136 243.514C121.245 243.694 121.387 243.817 121.562 243.884C121.737 243.95 121.931 243.983 122.145 243.983C122.306 243.983 122.452 243.971 122.585 243.947C122.722 243.924 122.826 243.902 122.897 243.884L123.331 245.893C123.193 245.941 122.997 245.993 122.741 246.05C122.49 246.107 122.182 246.14 121.818 246.149C121.174 246.168 120.594 246.071 120.078 245.858C119.562 245.64 119.152 245.304 118.849 244.849C118.551 244.395 118.404 243.827 118.409 243.145V232.477ZM125.282 246V235.091H127.775V236.909H127.888C128.087 236.279 128.428 235.794 128.911 235.453C129.399 235.107 129.955 234.935 130.58 234.935C130.722 234.935 130.881 234.942 131.056 234.956C131.236 234.965 131.385 234.982 131.504 235.006V237.371C131.395 237.333 131.222 237.3 130.985 237.271C130.753 237.238 130.528 237.222 130.31 237.222C129.842 237.222 129.42 237.323 129.046 237.527C128.677 237.726 128.386 238.003 128.173 238.358C127.96 238.713 127.853 239.123 127.853 239.587V246H125.282ZM136.156 246.22C135.464 246.22 134.842 246.097 134.288 245.851C133.738 245.6 133.303 245.231 132.981 244.743C132.664 244.255 132.505 243.654 132.505 242.939C132.505 242.323 132.619 241.814 132.846 241.412C133.073 241.009 133.383 240.688 133.776 240.446C134.169 240.205 134.612 240.022 135.104 239.899C135.602 239.771 136.115 239.679 136.646 239.622C137.285 239.556 137.803 239.497 138.201 239.445C138.599 239.388 138.888 239.303 139.067 239.189C139.252 239.071 139.344 238.888 139.344 238.642V238.599C139.344 238.064 139.186 237.65 138.869 237.357C138.551 237.063 138.094 236.916 137.498 236.916C136.868 236.916 136.369 237.054 135.999 237.328C135.635 237.603 135.388 237.927 135.261 238.301L132.86 237.96C133.049 237.297 133.362 236.743 133.798 236.298C134.233 235.848 134.766 235.512 135.396 235.29C136.025 235.062 136.721 234.949 137.484 234.949C138.009 234.949 138.532 235.01 139.053 235.134C139.574 235.257 140.05 235.46 140.481 235.744C140.912 236.024 141.257 236.405 141.518 236.888C141.783 237.371 141.915 237.974 141.915 238.699V246H139.444V244.501H139.359C139.202 244.804 138.982 245.089 138.698 245.354C138.419 245.614 138.066 245.825 137.64 245.986C137.219 246.142 136.724 246.22 136.156 246.22ZM136.823 244.331C137.339 244.331 137.787 244.229 138.165 244.026C138.544 243.817 138.835 243.543 139.039 243.202C139.247 242.861 139.352 242.489 139.352 242.087V240.801C139.271 240.867 139.134 240.929 138.94 240.986C138.75 241.043 138.537 241.092 138.3 241.135C138.064 241.178 137.829 241.215 137.597 241.249C137.365 241.282 137.164 241.31 136.994 241.334C136.61 241.386 136.267 241.471 135.964 241.589C135.661 241.708 135.422 241.874 135.246 242.087C135.071 242.295 134.984 242.565 134.984 242.896C134.984 243.37 135.156 243.727 135.502 243.969C135.848 244.21 136.288 244.331 136.823 244.331ZM148.549 246.192C147.692 246.192 146.925 245.972 146.248 245.531C145.571 245.091 145.036 244.452 144.643 243.614C144.25 242.776 144.053 241.758 144.053 240.56C144.053 239.348 144.252 238.325 144.65 237.491C145.052 236.653 145.594 236.021 146.276 235.595C146.958 235.164 147.718 234.949 148.556 234.949C149.195 234.949 149.721 235.058 150.133 235.276C150.545 235.489 150.871 235.747 151.113 236.05C151.354 236.348 151.541 236.63 151.674 236.895H151.781V231.455H154.359V246H151.83V244.281H151.674C151.541 244.546 151.35 244.828 151.099 245.126C150.848 245.42 150.516 245.671 150.104 245.879C149.692 246.088 149.174 246.192 148.549 246.192ZM149.266 244.082C149.811 244.082 150.275 243.936 150.658 243.642C151.042 243.344 151.333 242.929 151.532 242.399C151.731 241.869 151.83 241.251 151.83 240.545C151.83 239.84 151.731 239.227 151.532 238.706C151.338 238.185 151.049 237.78 150.665 237.491C150.287 237.203 149.82 237.058 149.266 237.058C148.693 237.058 148.215 237.207 147.832 237.506C147.448 237.804 147.159 238.216 146.965 238.741C146.771 239.267 146.674 239.868 146.674 240.545C146.674 241.227 146.771 241.836 146.965 242.371C147.164 242.901 147.455 243.32 147.839 243.628C148.227 243.931 148.703 244.082 149.266 244.082ZM161.928 246.213C160.834 246.213 159.89 245.986 159.094 245.531C158.303 245.072 157.695 244.423 157.269 243.585C156.843 242.742 156.63 241.75 156.63 240.609C156.63 239.487 156.843 238.502 157.269 237.655C157.7 236.803 158.301 236.14 159.073 235.666C159.845 235.188 160.751 234.949 161.793 234.949C162.465 234.949 163.1 235.058 163.696 235.276C164.298 235.489 164.828 235.82 165.287 236.27C165.751 236.72 166.116 237.293 166.381 237.989C166.646 238.68 166.779 239.504 166.779 240.46V241.249H157.837V239.516H164.314C164.31 239.023 164.203 238.585 163.995 238.202C163.786 237.813 163.495 237.508 163.121 237.286C162.752 237.063 162.321 236.952 161.828 236.952C161.303 236.952 160.841 237.08 160.444 237.335C160.046 237.586 159.736 237.918 159.513 238.33C159.295 238.737 159.184 239.184 159.179 239.672V241.185C159.179 241.819 159.295 242.364 159.527 242.818C159.759 243.268 160.084 243.614 160.5 243.855C160.917 244.092 161.405 244.21 161.963 244.21C162.337 244.21 162.676 244.158 162.979 244.054C163.282 243.945 163.545 243.786 163.767 243.578C163.99 243.37 164.158 243.112 164.272 242.804L166.672 243.074C166.521 243.708 166.232 244.262 165.806 244.736C165.384 245.205 164.845 245.569 164.186 245.83C163.528 246.085 162.775 246.213 161.928 246.213ZM177.576 237.974L175.232 238.23C175.166 237.993 175.05 237.771 174.884 237.562C174.723 237.354 174.505 237.186 174.231 237.058C173.956 236.93 173.62 236.866 173.222 236.866C172.687 236.866 172.237 236.982 171.873 237.214C171.513 237.446 171.335 237.747 171.34 238.116C171.335 238.434 171.451 238.692 171.688 238.891C171.93 239.089 172.327 239.253 172.881 239.381L174.742 239.778C175.774 240.001 176.541 240.354 177.043 240.837C177.55 241.32 177.806 241.952 177.81 242.733C177.806 243.42 177.604 244.026 177.207 244.551C176.814 245.072 176.267 245.479 175.566 245.773C174.865 246.066 174.06 246.213 173.151 246.213C171.816 246.213 170.741 245.934 169.927 245.375C169.112 244.812 168.627 244.028 168.471 243.024L170.978 242.783C171.092 243.275 171.333 243.647 171.702 243.898C172.072 244.149 172.552 244.274 173.144 244.274C173.755 244.274 174.245 244.149 174.614 243.898C174.988 243.647 175.175 243.337 175.175 242.967C175.175 242.655 175.055 242.397 174.813 242.193C174.576 241.99 174.207 241.833 173.705 241.724L171.844 241.334C170.798 241.116 170.024 240.749 169.522 240.233C169.02 239.712 168.772 239.054 168.776 238.259C168.772 237.586 168.954 237.004 169.323 236.511C169.697 236.014 170.216 235.631 170.879 235.361C171.546 235.086 172.316 234.949 173.187 234.949C174.465 234.949 175.471 235.221 176.205 235.766C176.944 236.31 177.401 237.046 177.576 237.974ZM188.031 246.22C187.339 246.22 186.717 246.097 186.163 245.851C185.613 245.6 185.178 245.231 184.856 244.743C184.539 244.255 184.38 243.654 184.38 242.939C184.38 242.323 184.494 241.814 184.721 241.412C184.948 241.009 185.258 240.688 185.651 240.446C186.044 240.205 186.487 240.022 186.979 239.899C187.477 239.771 187.99 239.679 188.521 239.622C189.16 239.556 189.678 239.497 190.076 239.445C190.474 239.388 190.763 239.303 190.942 239.189C191.127 239.071 191.219 238.888 191.219 238.642V238.599C191.219 238.064 191.061 237.65 190.744 237.357C190.426 237.063 189.969 236.916 189.373 236.916C188.743 236.916 188.244 237.054 187.874 237.328C187.51 237.603 187.263 237.927 187.136 238.301L184.735 237.96C184.924 237.297 185.237 236.743 185.673 236.298C186.108 235.848 186.641 235.512 187.271 235.29C187.9 235.062 188.596 234.949 189.359 234.949C189.884 234.949 190.407 235.01 190.928 235.134C191.449 235.257 191.925 235.46 192.356 235.744C192.787 236.024 193.132 236.405 193.393 236.888C193.658 237.371 193.79 237.974 193.79 238.699V246H191.319V244.501H191.234C191.077 244.804 190.857 245.089 190.573 245.354C190.294 245.614 189.941 245.825 189.515 245.986C189.094 246.142 188.599 246.22 188.031 246.22ZM188.698 244.331C189.214 244.331 189.662 244.229 190.04 244.026C190.419 243.817 190.71 243.543 190.914 243.202C191.122 242.861 191.227 242.489 191.227 242.087V240.801C191.146 240.867 191.009 240.929 190.815 240.986C190.625 241.043 190.412 241.092 190.175 241.135C189.939 241.178 189.704 241.215 189.472 241.249C189.24 241.282 189.039 241.31 188.869 241.334C188.485 241.386 188.142 241.471 187.839 241.589C187.536 241.708 187.297 241.874 187.121 242.087C186.946 242.295 186.859 242.565 186.859 242.896C186.859 243.37 187.031 243.727 187.377 243.969C187.723 244.21 188.163 244.331 188.698 244.331ZM203.329 241.412V235.091H205.9V246H203.407V244.061H203.293C203.047 244.672 202.642 245.171 202.079 245.56C201.52 245.948 200.831 246.142 200.012 246.142C199.297 246.142 198.665 245.983 198.116 245.666C197.571 245.344 197.145 244.878 196.837 244.267C196.53 243.652 196.376 242.908 196.376 242.037V235.091H198.947V241.639C198.947 242.33 199.136 242.88 199.515 243.287C199.894 243.694 200.391 243.898 201.006 243.898C201.385 243.898 201.752 243.805 202.107 243.621C202.462 243.436 202.754 243.161 202.981 242.797C203.213 242.428 203.329 241.966 203.329 241.412ZM213.991 235.091V237.08H207.72V235.091H213.991ZM209.268 232.477H211.839V242.719C211.839 243.064 211.891 243.33 211.995 243.514C212.104 243.694 212.246 243.817 212.422 243.884C212.597 243.95 212.791 243.983 213.004 243.983C213.165 243.983 213.312 243.971 213.444 243.947C213.582 243.924 213.686 243.902 213.757 243.884L214.19 245.893C214.053 245.941 213.856 245.993 213.6 246.05C213.35 246.107 213.042 246.14 212.677 246.149C212.033 246.168 211.453 246.071 210.937 245.858C210.421 245.64 210.011 245.304 209.708 244.849C209.41 244.395 209.263 243.827 209.268 243.145V232.477ZM220.783 246.213C219.717 246.213 218.794 245.979 218.013 245.51C217.232 245.041 216.625 244.385 216.195 243.543C215.768 242.7 215.555 241.715 215.555 240.588C215.555 239.461 215.768 238.474 216.195 237.626C216.625 236.779 217.232 236.121 218.013 235.652C218.794 235.183 219.717 234.949 220.783 234.949C221.848 234.949 222.771 235.183 223.553 235.652C224.334 236.121 224.938 236.779 225.364 237.626C225.795 238.474 226.01 239.461 226.01 240.588C226.01 241.715 225.795 242.7 225.364 243.543C224.938 244.385 224.334 245.041 223.553 245.51C222.771 245.979 221.848 246.213 220.783 246.213ZM220.797 244.153C221.375 244.153 221.857 243.995 222.246 243.678C222.634 243.356 222.923 242.925 223.112 242.385C223.306 241.845 223.403 241.244 223.403 240.581C223.403 239.913 223.306 239.31 223.112 238.77C222.923 238.225 222.634 237.792 222.246 237.47C221.857 237.148 221.375 236.987 220.797 236.987C220.205 236.987 219.713 237.148 219.32 237.47C218.931 237.792 218.64 238.225 218.446 238.77C218.257 239.31 218.162 239.913 218.162 240.581C218.162 241.244 218.257 241.845 218.446 242.385C218.64 242.925 218.931 243.356 219.32 243.678C219.713 243.995 220.205 244.153 220.797 244.153ZM228.192 246V235.091H230.65V236.945H230.777C231.005 236.32 231.381 235.832 231.907 235.482C232.432 235.126 233.06 234.949 233.789 234.949C234.527 234.949 235.15 235.129 235.657 235.489C236.168 235.844 236.528 236.329 236.736 236.945H236.85C237.091 236.339 237.498 235.856 238.071 235.496C238.649 235.131 239.333 234.949 240.124 234.949C241.128 234.949 241.947 235.266 242.581 235.901C243.216 236.535 243.533 237.461 243.533 238.678V246H240.955V239.075C240.955 238.398 240.775 237.903 240.415 237.591C240.055 237.274 239.615 237.115 239.094 237.115C238.474 237.115 237.989 237.309 237.638 237.697C237.292 238.081 237.12 238.58 237.12 239.196V246H234.598V238.969C234.598 238.405 234.428 237.955 234.087 237.619C233.751 237.283 233.31 237.115 232.766 237.115C232.397 237.115 232.06 237.21 231.757 237.399C231.454 237.584 231.213 237.847 231.033 238.188C230.853 238.524 230.763 238.917 230.763 239.366V246H228.192ZM249.281 246.22C248.589 246.22 247.967 246.097 247.413 245.851C246.863 245.6 246.428 245.231 246.106 244.743C245.789 244.255 245.63 243.654 245.63 242.939C245.63 242.323 245.744 241.814 245.971 241.412C246.198 241.009 246.508 240.688 246.901 240.446C247.294 240.205 247.737 240.022 248.229 239.899C248.727 239.771 249.24 239.679 249.771 239.622C250.41 239.556 250.928 239.497 251.326 239.445C251.724 239.388 252.013 239.303 252.192 239.189C252.377 239.071 252.469 238.888 252.469 238.642V238.599C252.469 238.064 252.311 237.65 251.994 237.357C251.676 237.063 251.219 236.916 250.623 236.916C249.993 236.916 249.494 237.054 249.124 237.328C248.76 237.603 248.513 237.927 248.386 238.301L245.985 237.96C246.174 237.297 246.487 236.743 246.923 236.298C247.358 235.848 247.891 235.512 248.521 235.29C249.15 235.062 249.846 234.949 250.609 234.949C251.134 234.949 251.657 235.01 252.178 235.134C252.699 235.257 253.175 235.46 253.606 235.744C254.037 236.024 254.382 236.405 254.643 236.888C254.908 237.371 255.04 237.974 255.04 238.699V246H252.569V244.501H252.484C252.327 244.804 252.107 245.089 251.823 245.354C251.544 245.614 251.191 245.825 250.765 245.986C250.344 246.142 249.849 246.22 249.281 246.22ZM249.948 244.331C250.464 244.331 250.912 244.229 251.29 244.026C251.669 243.817 251.96 243.543 252.164 243.202C252.372 242.861 252.477 242.489 252.477 242.087V240.801C252.396 240.867 252.259 240.929 252.065 240.986C251.875 241.043 251.662 241.092 251.425 241.135C251.189 241.178 250.954 241.215 250.722 241.249C250.49 241.282 250.289 241.31 250.119 241.334C249.735 241.386 249.392 241.471 249.089 241.589C248.786 241.708 248.547 241.874 248.371 242.087C248.196 242.295 248.109 242.565 248.109 242.896C248.109 243.37 248.281 243.727 248.627 243.969C248.973 244.21 249.413 244.331 249.948 244.331ZM263.073 235.091V237.08H256.802V235.091H263.073ZM258.35 232.477H260.921V242.719C260.921 243.064 260.973 243.33 261.077 243.514C261.186 243.694 261.328 243.817 261.504 243.884C261.679 243.95 261.873 243.983 262.086 243.983C262.247 243.983 262.394 243.971 262.526 243.947C262.664 243.924 262.768 243.902 262.839 243.884L263.272 245.893C263.135 245.941 262.938 245.993 262.683 246.05C262.432 246.107 262.124 246.14 261.759 246.149C261.115 246.168 260.535 246.071 260.019 245.858C259.503 245.64 259.094 245.304 258.79 244.849C258.492 244.395 258.345 243.827 258.35 243.145V232.477ZM265.223 246V235.091H267.794V246H265.223ZM266.516 233.543C266.109 233.543 265.758 233.408 265.465 233.138C265.171 232.863 265.025 232.534 265.025 232.151C265.025 231.762 265.171 231.433 265.465 231.163C265.758 230.889 266.109 230.751 266.516 230.751C266.928 230.751 267.278 230.889 267.567 231.163C267.861 231.433 268.007 231.762 268.007 232.151C268.007 232.534 267.861 232.863 267.567 233.138C267.278 233.408 266.928 233.543 266.516 233.543ZM275.197 246.213C274.108 246.213 273.173 245.974 272.391 245.496C271.615 245.018 271.016 244.357 270.594 243.514C270.178 242.667 269.969 241.691 269.969 240.588C269.969 239.48 270.183 238.502 270.609 237.655C271.035 236.803 271.636 236.14 272.413 235.666C273.194 235.188 274.117 234.949 275.183 234.949C276.068 234.949 276.852 235.112 277.533 235.439C278.22 235.761 278.767 236.218 279.174 236.81C279.581 237.397 279.813 238.083 279.87 238.869H277.413C277.313 238.344 277.076 237.906 276.702 237.555C276.333 237.2 275.838 237.023 275.218 237.023C274.692 237.023 274.231 237.165 273.833 237.449C273.435 237.728 273.125 238.131 272.903 238.656C272.685 239.182 272.576 239.812 272.576 240.545C272.576 241.289 272.685 241.928 272.903 242.463C273.121 242.993 273.426 243.403 273.819 243.692C274.217 243.976 274.683 244.118 275.218 244.118C275.597 244.118 275.935 244.047 276.234 243.905C276.537 243.758 276.79 243.547 276.994 243.273C277.197 242.998 277.337 242.664 277.413 242.271H279.87C279.808 243.043 279.581 243.727 279.188 244.324C278.795 244.916 278.26 245.38 277.583 245.716C276.906 246.047 276.111 246.213 275.197 246.213ZM285.12 246.22C284.429 246.22 283.806 246.097 283.252 245.851C282.703 245.6 282.268 245.231 281.946 244.743C281.628 244.255 281.47 243.654 281.47 242.939C281.47 242.323 281.583 241.814 281.811 241.412C282.038 241.009 282.348 240.688 282.741 240.446C283.134 240.205 283.577 240.022 284.069 239.899C284.566 239.771 285.08 239.679 285.61 239.622C286.25 239.556 286.768 239.497 287.166 239.445C287.564 239.388 287.852 239.303 288.032 239.189C288.217 239.071 288.309 238.888 288.309 238.642V238.599C288.309 238.064 288.151 237.65 287.833 237.357C287.516 237.063 287.059 236.916 286.463 236.916C285.833 236.916 285.333 237.054 284.964 237.328C284.6 237.603 284.353 237.927 284.225 238.301L281.825 237.96C282.014 237.297 282.327 236.743 282.762 236.298C283.198 235.848 283.731 235.512 284.36 235.29C284.99 235.062 285.686 234.949 286.449 234.949C286.974 234.949 287.497 235.01 288.018 235.134C288.539 235.257 289.015 235.46 289.446 235.744C289.877 236.024 290.222 236.405 290.483 236.888C290.748 237.371 290.88 237.974 290.88 238.699V246H288.409V244.501H288.324C288.167 244.804 287.947 245.089 287.663 245.354C287.384 245.614 287.031 245.825 286.605 245.986C286.183 246.142 285.689 246.22 285.12 246.22ZM285.788 244.331C286.304 244.331 286.752 244.229 287.13 244.026C287.509 243.817 287.8 243.543 288.004 243.202C288.212 242.861 288.316 242.489 288.316 242.087V240.801C288.236 240.867 288.099 240.929 287.904 240.986C287.715 241.043 287.502 241.092 287.265 241.135C287.029 241.178 286.794 241.215 286.562 241.249C286.33 241.282 286.129 241.31 285.958 241.334C285.575 241.386 285.232 241.471 284.929 241.589C284.626 241.708 284.386 241.874 284.211 242.087C284.036 242.295 283.949 242.565 283.949 242.896C283.949 243.37 284.121 243.727 284.467 243.969C284.813 244.21 285.253 244.331 285.788 244.331ZM296.037 231.455V246H293.466V231.455H296.037ZM301.251 231.455V246H298.68V231.455H301.251ZM305.493 250.091C305.143 250.091 304.819 250.063 304.52 250.006C304.227 249.954 303.992 249.892 303.817 249.821L304.414 247.818C304.788 247.927 305.122 247.979 305.415 247.974C305.709 247.97 305.967 247.877 306.189 247.697C306.417 247.522 306.608 247.229 306.765 246.817L306.985 246.227L303.029 235.091H305.756L308.27 243.33H308.384L310.905 235.091H313.64L309.272 247.321C309.068 247.899 308.798 248.393 308.462 248.805C308.126 249.222 307.714 249.539 307.226 249.757C306.743 249.98 306.166 250.091 305.493 250.091ZM318.565 231.455L318.331 241.724H316.044L315.816 231.455H318.565ZM317.187 246.156C316.756 246.156 316.387 246.005 316.079 245.702C315.776 245.399 315.625 245.029 315.625 244.594C315.625 244.168 315.776 243.803 316.079 243.5C316.387 243.197 316.756 243.045 317.187 243.045C317.609 243.045 317.973 243.197 318.281 243.5C318.593 243.803 318.75 244.168 318.75 244.594C318.75 244.883 318.676 245.145 318.529 245.382C318.387 245.619 318.198 245.808 317.961 245.95C317.729 246.088 317.471 246.156 317.187 246.156Z" fill="black"/>
<path d="M13.8547 360.468V360.468C17.7393 355.15 24.9124 353.442 30.7773 356.438L36.5974 359.413C37.8843 360.07 38.8751 361.19 39.3712 362.547L40.3869 365.327C42.3319 370.65 35.5122 374.756 31.7177 370.547V370.547C31.4643 370.266 31.2427 369.958 31.0567 369.628L29.1438 366.237C25.8829 360.457 17.0389 363.404 17.8967 369.985V369.985C18.6749 375.956 11.1907 379.263 7.29994 374.667L3.48596 370.161" stroke="black"/>
<defs>
<filter id="filter0_d_19_13" x="111.075" y="59.0746" width="276.799" height="254.907" filterUnits="userSpaceOnUse" color-interpolation-filters="sRGB">
<feFlood flood-opacity="0" result="BackgroundImageFix"/>
<feColorMatrix in="SourceAlpha" type="matrix" values="0 0 0 0 0 0 0 0 0 0 0 0 0 0 0 0 0 0 127 0" result="hardAlpha"/>
<feOffset dy="4"/>
<feGaussianBlur stdDeviation="2"/>
<feComposite in2="hardAlpha" operator="out"/>
<feColorMatrix type="matrix" values="0 0 0 0 0 0 0 0 0 0 0 0 0 0 0 0 0 0 0.25 0"/>
<feBlend mode="normal" in2="BackgroundImageFix" result="effect1_dropShadow_19_13"/>
<feBlend mode="normal" in="SourceGraphic" in2="effect1_dropShadow_19_13" result="shape"/>
</filter>
<filter id="filter1_d_19_13" x="81.0746" y="45.0746" width="276.799" height="254.907" filterUnits="userSpaceOnUse" color-interpolation-filters="sRGB">
<feFlood flood-opacity="0" result="BackgroundImageFix"/>
<feColorMatrix in="SourceAlpha" type="matrix" values="0 0 0 0 0 0 0 0 0 0 0 0 0 0 0 0 0 0 127 0" result="hardAlpha"/>
<feOffset dy="4"/>
<feGaussianBlur stdDeviation="2"/>
<feComposite in2="hardAlpha" operator="out"/>
<feColorMatrix type="matrix" values="0 0 0 0 0 0 0 0 0 0 0 0 0 0 0 0 0 0 0.25 0"/>
<feBlend mode="normal" in2="BackgroundImageFix" result="effect1_dropShadow_19_13"/>
<feBlend mode="normal" in="SourceGraphic" in2="effect1_dropShadow_19_13" result="shape"/>
</filter>
<clipPath id="clip0_19_13">
<rect width="15" height="17" fill="white" transform="translate(448)"/>
</clipPath>
<clipPath id="clip1_19_13">
<rect width="37" height="51" fill="white" transform="translate(6 38)"/>
</clipPath>
<clipPath id="clip2_19_13">
<rect width="15" height="14" fill="white" transform="translate(0 239)"/>
</clipPath>
</defs>
</svg>
