<svg width="636" height="845" viewBox="0 0 636 845" fill="none" xmlns="http://www.w3.org/2000/svg">
<rect x="2" y="2" width="632" height="841" rx="52" fill="white" stroke="#A9A9A9" stroke-width="4"/>
<path d="M54.6 777.5C51.7 777.5 49.2667 777.067 47.3 776.2C45.3333 775.3 43.8167 774.15 42.75 772.75C41.7167 771.317 41.1667 769.8 41.1 768.2C41.1 767.933 41.2 767.7 41.4 767.5C41.6333 767.267 41.9 767.15 42.2 767.15H44.75C45.15 767.15 45.45 767.25 45.65 767.45C45.85 767.65 45.9833 767.883 46.05 768.15C46.2167 768.95 46.6167 769.75 47.25 770.55C47.9167 771.317 48.8333 771.967 50 772.5C51.2 773 52.7333 773.25 54.6 773.25C57.4667 773.25 59.5667 772.75 60.9 771.75C62.2667 770.717 62.95 769.35 62.95 767.65C62.95 766.483 62.5833 765.55 61.85 764.85C61.15 764.117 60.0667 763.467 58.6 762.9C57.1333 762.333 55.2333 761.717 52.9 761.05C50.4667 760.35 48.45 759.583 46.85 758.75C45.25 757.917 44.05 756.883 43.25 755.65C42.4833 754.417 42.1 752.85 42.1 750.95C42.1 749.15 42.5833 747.55 43.55 746.15C44.5167 744.717 45.9 743.583 47.7 742.75C49.5333 741.917 51.75 741.5 54.35 741.5C56.4167 741.5 58.2167 741.783 59.75 742.35C61.3167 742.883 62.6167 743.617 63.65 744.55C64.6833 745.45 65.4667 746.433 66 747.5C66.5333 748.533 66.8167 749.55 66.85 750.55C66.85 750.783 66.7667 751.017 66.6 751.25C66.4333 751.45 66.1667 751.55 65.8 751.55H63.15C62.9167 751.55 62.6667 751.483 62.4 751.35C62.1667 751.217 61.9833 750.967 61.85 750.6C61.65 749.233 60.8833 748.083 59.55 747.15C58.2167 746.217 56.4833 745.75 54.35 745.75C52.1833 745.75 50.4167 746.167 49.05 747C47.7167 747.833 47.05 749.133 47.05 750.9C47.05 752.033 47.3667 752.983 48 753.75C48.6333 754.483 49.6333 755.133 51 755.7C52.3667 756.267 54.15 756.867 56.35 757.5C59.0167 758.233 61.2 759.017 62.9 759.85C64.6 760.65 65.85 761.667 66.65 762.9C67.4833 764.1 67.9 765.65 67.9 767.55C67.9 769.65 67.35 771.45 66.25 772.95C65.15 774.417 63.6 775.55 61.6 776.35C59.6333 777.117 57.3 777.5 54.6 777.5ZM75.0035 786.5C74.6702 786.5 74.3868 786.383 74.1535 786.15C73.9535 785.95 73.8535 785.683 73.8535 785.35V752.15C73.8535 751.817 73.9535 751.55 74.1535 751.35C74.3868 751.117 74.6702 751 75.0035 751H77.3035C77.6368 751 77.9035 751.117 78.1035 751.35C78.3368 751.55 78.4535 751.817 78.4535 752.15V754.35C79.2535 753.25 80.3202 752.333 81.6535 751.6C82.9868 750.867 84.6535 750.5 86.6535 750.5C88.5202 750.5 90.1035 750.817 91.4035 751.45C92.7369 752.083 93.8202 752.95 94.6535 754.05C95.5202 755.15 96.1702 756.4 96.6035 757.8C97.0369 759.2 97.2702 760.7 97.3035 762.3C97.3369 762.833 97.3535 763.4 97.3535 764C97.3535 764.6 97.3369 765.167 97.3035 765.7C97.2702 767.267 97.0369 768.767 96.6035 770.2C96.1702 771.6 95.5202 772.85 94.6535 773.95C93.8202 775.017 92.7369 775.883 91.4035 776.55C90.1035 777.183 88.5202 777.5 86.6535 777.5C84.7202 777.5 83.0868 777.15 81.7535 776.45C80.4535 775.717 79.3868 774.817 78.5535 773.75V785.35C78.5535 785.683 78.4535 785.95 78.2535 786.15C78.0535 786.383 77.7702 786.5 77.4035 786.5H75.0035ZM85.6035 773.45C87.3368 773.45 88.6869 773.083 89.6535 772.35C90.6535 771.583 91.3702 770.6 91.8035 769.4C92.2369 768.167 92.4869 766.85 92.5535 765.45C92.5869 764.483 92.5869 763.517 92.5535 762.55C92.4869 761.15 92.2369 759.85 91.8035 758.65C91.3702 757.417 90.6535 756.433 89.6535 755.7C88.6869 754.933 87.3368 754.55 85.6035 754.55C83.9702 754.55 82.6368 754.933 81.6035 755.7C80.6035 756.467 79.8535 757.45 79.3535 758.65C78.8868 759.817 78.6202 761.017 78.5535 762.25C78.5202 762.783 78.5035 763.417 78.5035 764.15C78.5035 764.883 78.5202 765.533 78.5535 766.1C78.5868 767.267 78.8535 768.417 79.3535 769.55C79.8868 770.683 80.6702 771.617 81.7035 772.35C82.7368 773.083 84.0368 773.45 85.6035 773.45ZM114.239 777.5C111.705 777.5 109.589 777.017 107.889 776.05C106.189 775.083 104.889 773.75 103.989 772.05C103.089 770.317 102.589 768.35 102.489 766.15C102.455 765.583 102.439 764.867 102.439 764C102.439 763.1 102.455 762.383 102.489 761.85C102.589 759.617 103.089 757.65 103.989 755.95C104.922 754.25 106.239 752.917 107.939 751.95C109.639 750.983 111.739 750.5 114.239 750.5C116.739 750.5 118.839 750.983 120.539 751.95C122.239 752.917 123.539 754.25 124.439 755.95C125.372 757.65 125.889 759.617 125.989 761.85C126.022 762.383 126.039 763.1 126.039 764C126.039 764.867 126.022 765.583 125.989 766.15C125.889 768.35 125.389 770.317 124.489 772.05C123.589 773.75 122.289 775.083 120.589 776.05C118.889 777.017 116.772 777.5 114.239 777.5ZM114.239 773.65C116.305 773.65 117.955 773 119.189 771.7C120.422 770.367 121.089 768.433 121.189 765.9C121.222 765.4 121.239 764.767 121.239 764C121.239 763.233 121.222 762.6 121.189 762.1C121.089 759.567 120.422 757.65 119.189 756.35C117.955 755.017 116.305 754.35 114.239 754.35C112.172 754.35 110.505 755.017 109.239 756.35C108.005 757.65 107.355 759.567 107.289 762.1C107.255 762.6 107.239 763.233 107.239 764C107.239 764.767 107.255 765.4 107.289 765.9C107.355 768.433 108.005 770.367 109.239 771.7C110.505 773 112.172 773.65 114.239 773.65Z" fill="#110404"/>
<path d="M142.45 777C140.583 777 139.066 776.65 137.9 775.95C136.733 775.217 135.883 774.2 135.35 772.9C134.816 771.567 134.55 770 134.55 768.2V755H130.65C130.316 755 130.033 754.9 129.8 754.7C129.6 754.467 129.5 754.183 129.5 753.85V752.15C129.5 751.817 129.6 751.55 129.8 751.35C130.033 751.117 130.316 751 130.65 751H134.55V742.65C134.55 742.317 134.65 742.05 134.85 741.85C135.083 741.617 135.366 741.5 135.7 741.5H138.05C138.383 741.5 138.65 741.617 138.85 741.85C139.083 742.05 139.2 742.317 139.2 742.65V751H145.4C145.733 751 146 751.117 146.2 751.35C146.433 751.55 146.55 751.817 146.55 752.15V753.85C146.55 754.183 146.433 754.467 146.2 754.7C146 754.9 145.733 755 145.4 755H139.2V767.85C139.2 769.417 139.466 770.65 140 771.55C140.533 772.45 141.483 772.9 142.85 772.9H145.9C146.233 772.9 146.5 773.017 146.7 773.25C146.933 773.45 147.05 773.717 147.05 774.05V775.85C147.05 776.183 146.933 776.467 146.7 776.7C146.5 776.9 146.233 777 145.9 777H142.45Z" fill="#110404"/>
<path d="M63.9 95.5C61.0667 95.5 58.6333 95.0167 56.6 94.05C54.5667 93.05 53 91.5333 51.9 89.5C50.8 87.4333 50.1833 84.85 50.05 81.75C50.0167 80.2833 50 78.8833 50 77.55C50 76.1833 50.0167 74.7667 50.05 73.3C50.1833 70.2333 50.8167 67.6833 51.95 65.65C53.1167 63.5833 54.7167 62.05 56.75 61.05C58.8167 60.0167 61.2 59.5 63.9 59.5C66.6333 59.5 69.0167 60.0167 71.05 61.05C73.1167 62.05 74.7333 63.5833 75.9 65.65C77.0667 67.6833 77.7 70.2333 77.8 73.3C77.8667 74.7667 77.9 76.1833 77.9 77.55C77.9 78.8833 77.8667 80.2833 77.8 81.75C77.7 84.85 77.0833 87.4333 75.95 89.5C74.85 91.5333 73.2833 93.05 71.25 94.05C69.2167 95.0167 66.7667 95.5 63.9 95.5ZM63.9 91.25C66.4667 91.25 68.55 90.4833 70.15 88.95C71.7833 87.4167 72.6667 84.9333 72.8 81.5C72.8667 80 72.9 78.6667 72.9 77.5C72.9 76.3 72.8667 74.9667 72.8 73.5C72.7333 71.2 72.3 69.3333 71.5 67.9C70.7333 66.4667 69.7 65.4167 68.4 64.75C67.1 64.0833 65.6 63.75 63.9 63.75C62.2667 63.75 60.8 64.0833 59.5 64.75C58.2 65.4167 57.15 66.4667 56.35 67.9C55.5833 69.3333 55.15 71.2 55.05 73.5C55.0167 74.9667 55 76.3 55 77.5C55 78.6667 55.0167 80 55.05 81.5C55.1833 84.9333 56.0667 87.4167 57.7 88.95C59.3333 90.4833 61.4 91.25 63.9 91.25ZM85.7379 104.5C85.4046 104.5 85.1212 104.383 84.8879 104.15C84.6879 103.95 84.5879 103.683 84.5879 103.35V70.15C84.5879 69.8167 84.6879 69.55 84.8879 69.35C85.1212 69.1167 85.4046 69 85.7379 69H88.0379C88.3712 69 88.6379 69.1167 88.8379 69.35C89.0712 69.55 89.1879 69.8167 89.1879 70.15V72.35C89.9879 71.25 91.0546 70.3333 92.3879 69.6C93.7212 68.8667 95.3879 68.5 97.3879 68.5C99.2546 68.5 100.838 68.8167 102.138 69.45C103.471 70.0833 104.555 70.95 105.388 72.05C106.255 73.15 106.905 74.4 107.338 75.8C107.771 77.2 108.005 78.7 108.038 80.3C108.071 80.8333 108.088 81.4 108.088 82C108.088 82.6 108.071 83.1667 108.038 83.7C108.005 85.2667 107.771 86.7667 107.338 88.2C106.905 89.6 106.255 90.85 105.388 91.95C104.555 93.0167 103.471 93.8833 102.138 94.55C100.838 95.1833 99.2546 95.5 97.3879 95.5C95.4546 95.5 93.8212 95.15 92.4879 94.45C91.1879 93.7167 90.1212 92.8167 89.2879 91.75V103.35C89.2879 103.683 89.1879 103.95 88.9879 104.15C88.7879 104.383 88.5046 104.5 88.1379 104.5H85.7379ZM96.3379 91.45C98.0712 91.45 99.4212 91.0833 100.388 90.35C101.388 89.5833 102.105 88.6 102.538 87.4C102.971 86.1667 103.221 84.85 103.288 83.45C103.321 82.4833 103.321 81.5167 103.288 80.55C103.221 79.15 102.971 77.85 102.538 76.65C102.105 75.4167 101.388 74.4333 100.388 73.7C99.4212 72.9333 98.0712 72.55 96.3379 72.55C94.7046 72.55 93.3712 72.9333 92.3379 73.7C91.3379 74.4667 90.5879 75.45 90.0879 76.65C89.6212 77.8167 89.3546 79.0167 89.2879 80.25C89.2546 80.7833 89.2379 81.4167 89.2379 82.15C89.2379 82.8833 89.2546 83.5333 89.2879 84.1C89.3212 85.2667 89.5879 86.4167 90.0879 87.55C90.6212 88.6833 91.4046 89.6167 92.4379 90.35C93.4712 91.0833 94.7712 91.45 96.3379 91.45ZM124.18 95C122.313 95 120.797 94.65 119.63 93.95C118.463 93.2167 117.613 92.2 117.08 90.9C116.547 89.5667 116.28 88 116.28 86.2V73H112.38C112.047 73 111.763 72.9 111.53 72.7C111.33 72.4667 111.23 72.1833 111.23 71.85V70.15C111.23 69.8167 111.33 69.55 111.53 69.35C111.763 69.1167 112.047 69 112.38 69H116.28V60.65C116.28 60.3167 116.38 60.05 116.58 59.85C116.813 59.6167 117.097 59.5 117.43 59.5H119.78C120.113 59.5 120.38 59.6167 120.58 59.85C120.813 60.05 120.93 60.3167 120.93 60.65V69H127.13C127.463 69 127.73 69.1167 127.93 69.35C128.163 69.55 128.28 69.8167 128.28 70.15V71.85C128.28 72.1833 128.163 72.4667 127.93 72.7C127.73 72.9 127.463 73 127.13 73H120.93V85.85C120.93 87.4167 121.197 88.65 121.73 89.55C122.263 90.45 123.213 90.9 124.58 90.9H127.63C127.963 90.9 128.23 91.0167 128.43 91.25C128.663 91.45 128.78 91.7167 128.78 92.05V93.85C128.78 94.1833 128.663 94.4667 128.43 94.7C128.23 94.9 127.963 95 127.63 95H124.18ZM134.711 95C134.378 95 134.095 94.9 133.861 94.7C133.661 94.4667 133.561 94.1833 133.561 93.85V70.15C133.561 69.8167 133.661 69.55 133.861 69.35C134.095 69.1167 134.378 69 134.711 69H137.111C137.445 69 137.711 69.1167 137.911 69.35C138.111 69.55 138.211 69.8167 138.211 70.15V93.85C138.211 94.1833 138.111 94.4667 137.911 94.7C137.711 94.9 137.445 95 137.111 95H134.711ZM134.311 64.15C133.978 64.15 133.695 64.05 133.461 63.85C133.261 63.6167 133.161 63.3333 133.161 63V60.3C133.161 59.9667 133.261 59.7 133.461 59.5C133.695 59.2667 133.978 59.15 134.311 59.15H137.461C137.795 59.15 138.061 59.2667 138.261 59.5C138.495 59.7 138.611 59.9667 138.611 60.3V63C138.611 63.3333 138.495 63.6167 138.261 63.85C138.061 64.05 137.795 64.15 137.461 64.15H134.311ZM156.418 95.5C153.885 95.5 151.768 95.0167 150.068 94.05C148.368 93.0833 147.068 91.75 146.168 90.05C145.268 88.3167 144.768 86.35 144.668 84.15C144.635 83.5833 144.618 82.8667 144.618 82C144.618 81.1 144.635 80.3833 144.668 79.85C144.768 77.6167 145.268 75.65 146.168 73.95C147.102 72.25 148.418 70.9167 150.118 69.95C151.818 68.9833 153.918 68.5 156.418 68.5C158.918 68.5 161.018 68.9833 162.718 69.95C164.418 70.9167 165.718 72.25 166.618 73.95C167.552 75.65 168.068 77.6167 168.168 79.85C168.202 80.3833 168.218 81.1 168.218 82C168.218 82.8667 168.202 83.5833 168.168 84.15C168.068 86.35 167.568 88.3167 166.668 90.05C165.768 91.75 164.468 93.0833 162.768 94.05C161.068 95.0167 158.952 95.5 156.418 95.5ZM156.418 91.65C158.485 91.65 160.135 91 161.368 89.7C162.602 88.3667 163.268 86.4333 163.368 83.9C163.402 83.4 163.418 82.7667 163.418 82C163.418 81.2333 163.402 80.6 163.368 80.1C163.268 77.5667 162.602 75.65 161.368 74.35C160.135 73.0167 158.485 72.35 156.418 72.35C154.352 72.35 152.685 73.0167 151.418 74.35C150.185 75.65 149.535 77.5667 149.468 80.1C149.435 80.6 149.418 81.2333 149.418 82C149.418 82.7667 149.435 83.4 149.468 83.9C149.535 86.4333 150.185 88.3667 151.418 89.7C152.685 91 154.352 91.65 156.418 91.65ZM175.629 95C175.296 95 175.013 94.9 174.779 94.7C174.579 94.4667 174.479 94.1833 174.479 93.85V70.15C174.479 69.8167 174.579 69.55 174.779 69.35C175.013 69.1167 175.296 69 175.629 69H177.979C178.313 69 178.579 69.1167 178.779 69.35C179.013 69.55 179.129 69.8167 179.129 70.15V72.35C179.996 71.2167 181.079 70.3 182.379 69.6C183.713 68.8667 185.413 68.5 187.479 68.5C189.646 68.5 191.479 68.9833 192.979 69.95C194.513 70.8833 195.663 72.2 196.429 73.9C197.196 75.5667 197.579 77.5167 197.579 79.75V93.85C197.579 94.1833 197.479 94.4667 197.279 94.7C197.079 94.9 196.813 95 196.479 95H193.979C193.646 95 193.363 94.9 193.129 94.7C192.929 94.4667 192.829 94.1833 192.829 93.85V80C192.829 77.6667 192.263 75.85 191.129 74.55C189.996 73.2167 188.329 72.55 186.129 72.55C184.063 72.55 182.396 73.2167 181.129 74.55C179.896 75.85 179.279 77.6667 179.279 80V93.85C179.279 94.1833 179.163 94.4667 178.929 94.7C178.729 94.9 178.463 95 178.129 95H175.629ZM213.802 95.5C211.935 95.5 210.335 95.2667 209.002 94.8C207.668 94.3333 206.585 93.7667 205.752 93.1C204.918 92.4333 204.285 91.7667 203.852 91.1C203.452 90.4333 203.235 89.9 203.202 89.5C203.168 89.1333 203.285 88.85 203.552 88.65C203.818 88.45 204.085 88.35 204.352 88.35H206.552C206.752 88.35 206.902 88.3833 207.002 88.45C207.135 88.4833 207.302 88.6167 207.502 88.85C207.935 89.3167 208.418 89.7833 208.952 90.25C209.485 90.7167 210.135 91.1 210.902 91.4C211.702 91.7 212.685 91.85 213.852 91.85C215.552 91.85 216.952 91.5333 218.052 90.9C219.152 90.2333 219.702 89.2667 219.702 88C219.702 87.1667 219.468 86.5 219.002 86C218.568 85.5 217.768 85.05 216.602 84.65C215.468 84.25 213.902 83.8333 211.902 83.4C209.902 82.9333 208.318 82.3667 207.152 81.7C205.985 81 205.152 80.1833 204.652 79.25C204.152 78.2833 203.902 77.2 203.902 76C203.902 74.7667 204.268 73.5833 205.002 72.45C205.735 71.2833 206.802 70.3333 208.202 69.6C209.635 68.8667 211.418 68.5 213.552 68.5C215.285 68.5 216.768 68.7167 218.002 69.15C219.235 69.5833 220.252 70.1333 221.052 70.8C221.852 71.4333 222.452 72.0667 222.852 72.7C223.252 73.3333 223.468 73.8667 223.502 74.3C223.535 74.6333 223.435 74.9167 223.202 75.15C222.968 75.35 222.702 75.45 222.402 75.45H220.302C220.068 75.45 219.868 75.4 219.702 75.3C219.568 75.2 219.435 75.0833 219.302 74.95C218.968 74.5167 218.568 74.0833 218.102 73.65C217.668 73.2167 217.085 72.8667 216.352 72.6C215.652 72.3 214.718 72.15 213.552 72.15C211.885 72.15 210.635 72.5 209.802 73.2C208.968 73.9 208.552 74.7833 208.552 75.85C208.552 76.4833 208.735 77.05 209.102 77.55C209.468 78.05 210.168 78.5 211.202 78.9C212.235 79.3 213.768 79.7333 215.802 80.2C218.002 80.6333 219.735 81.2167 221.002 81.95C222.268 82.6833 223.168 83.5333 223.702 84.5C224.235 85.4667 224.502 86.5833 224.502 87.85C224.502 89.25 224.085 90.5333 223.252 91.7C222.452 92.8667 221.252 93.8 219.652 94.5C218.085 95.1667 216.135 95.5 213.802 95.5Z" fill="#110404"/>
<rect x="454" y="48" width="148" height="58" rx="21" fill="#D94F4F" fill-opacity="0.84"/>
<path d="M483.04 90.45C480.43 90.45 478.24 90.06 476.47 89.28C474.7 88.47 473.335 87.435 472.375 86.175C471.445 84.885 470.95 83.52 470.89 82.08C470.89 81.84 470.98 81.63 471.16 81.45C471.37 81.24 471.61 81.135 471.88 81.135H474.175C474.535 81.135 474.805 81.225 474.985 81.405C475.165 81.585 475.285 81.795 475.345 82.035C475.495 82.755 475.855 83.475 476.425 84.195C477.025 84.885 477.85 85.47 478.9 85.95C479.98 86.4 481.36 86.625 483.04 86.625C485.62 86.625 487.51 86.175 488.71 85.275C489.94 84.345 490.555 83.115 490.555 81.585C490.555 80.535 490.225 79.695 489.565 79.065C488.935 78.405 487.96 77.82 486.64 77.31C485.32 76.8 483.61 76.245 481.51 75.645C479.32 75.015 477.505 74.325 476.065 73.575C474.625 72.825 473.545 71.895 472.825 70.785C472.135 69.675 471.79 68.265 471.79 66.555C471.79 64.935 472.225 63.495 473.095 62.235C473.965 60.945 475.21 59.925 476.83 59.175C478.48 58.425 480.475 58.05 482.815 58.05C484.675 58.05 486.295 58.305 487.675 58.815C489.085 59.295 490.255 59.955 491.185 60.795C492.115 61.605 492.82 62.49 493.3 63.45C493.78 64.38 494.035 65.295 494.065 66.195C494.065 66.405 493.99 66.615 493.84 66.825C493.69 67.005 493.45 67.095 493.12 67.095H490.735C490.525 67.095 490.3 67.035 490.06 66.915C489.85 66.795 489.685 66.57 489.565 66.24C489.385 65.01 488.695 63.975 487.495 63.135C486.295 62.295 484.735 61.875 482.815 61.875C480.865 61.875 479.275 62.25 478.045 63C476.845 63.75 476.245 64.92 476.245 66.51C476.245 67.53 476.53 68.385 477.1 69.075C477.67 69.735 478.57 70.32 479.8 70.83C481.03 71.34 482.635 71.88 484.615 72.45C487.015 73.11 488.98 73.815 490.51 74.565C492.04 75.285 493.165 76.2 493.885 77.31C494.635 78.39 495.01 79.785 495.01 81.495C495.01 83.385 494.515 85.005 493.525 86.355C492.535 87.675 491.14 88.695 489.34 89.415C487.57 90.105 485.47 90.45 483.04 90.45ZM501.403 90C501.103 90 500.848 89.91 500.638 89.73C500.458 89.52 500.368 89.265 500.368 88.965V59.085C500.368 58.785 500.458 58.545 500.638 58.365C500.848 58.155 501.103 58.05 501.403 58.05H503.653C503.983 58.05 504.238 58.155 504.418 58.365C504.598 58.545 504.688 58.785 504.688 59.085V69.57C505.498 68.55 506.488 67.725 507.658 67.095C508.828 66.465 510.313 66.15 512.113 66.15C514.063 66.15 515.713 66.585 517.063 67.455C518.443 68.295 519.478 69.48 520.168 71.01C520.888 72.51 521.248 74.265 521.248 76.275V88.965C521.248 89.265 521.158 89.52 520.978 89.73C520.798 89.91 520.543 90 520.213 90H517.963C517.663 90 517.408 89.91 517.198 89.73C517.018 89.52 516.928 89.265 516.928 88.965V76.5C516.928 74.4 516.418 72.765 515.398 71.595C514.378 70.395 512.878 69.795 510.898 69.795C509.038 69.795 507.538 70.395 506.398 71.595C505.258 72.765 504.688 74.4 504.688 76.5V88.965C504.688 89.265 504.598 89.52 504.418 89.73C504.238 89.91 503.983 90 503.653 90H501.403ZM537.33 90.45C535.05 90.45 533.145 90.015 531.615 89.145C530.085 88.275 528.915 87.075 528.105 85.545C527.295 83.985 526.845 82.215 526.755 80.235C526.725 79.725 526.71 79.08 526.71 78.3C526.71 77.49 526.725 76.845 526.755 76.365C526.845 74.355 527.295 72.585 528.105 71.055C528.945 69.525 530.13 68.325 531.66 67.455C533.19 66.585 535.08 66.15 537.33 66.15C539.58 66.15 541.47 66.585 543 67.455C544.53 68.325 545.7 69.525 546.51 71.055C547.35 72.585 547.815 74.355 547.905 76.365C547.935 76.845 547.95 77.49 547.95 78.3C547.95 79.08 547.935 79.725 547.905 80.235C547.815 82.215 547.365 83.985 546.555 85.545C545.745 87.075 544.575 88.275 543.045 89.145C541.515 90.015 539.61 90.45 537.33 90.45ZM537.33 86.985C539.19 86.985 540.675 86.4 541.785 85.23C542.895 84.03 543.495 82.29 543.585 80.01C543.615 79.56 543.63 78.99 543.63 78.3C543.63 77.61 543.615 77.04 543.585 76.59C543.495 74.31 542.895 72.585 541.785 71.415C540.675 70.215 539.19 69.615 537.33 69.615C535.47 69.615 533.97 70.215 532.83 71.415C531.72 72.585 531.135 74.31 531.075 76.59C531.045 77.04 531.03 77.61 531.03 78.3C531.03 78.99 531.045 79.56 531.075 80.01C531.135 82.29 531.72 84.03 532.83 85.23C533.97 86.4 535.47 86.985 537.33 86.985ZM554.62 90C554.32 90 554.065 89.91 553.855 89.73C553.675 89.52 553.585 89.265 553.585 88.965V67.68C553.585 67.38 553.675 67.125 553.855 66.915C554.065 66.705 554.32 66.6 554.62 66.6H556.69C556.99 66.6 557.245 66.705 557.455 66.915C557.665 67.125 557.77 67.38 557.77 67.68V69.66C558.37 68.64 559.195 67.875 560.245 67.365C561.295 66.855 562.555 66.6 564.025 66.6H565.825C566.125 66.6 566.365 66.705 566.545 66.915C566.725 67.095 566.815 67.335 566.815 67.635V69.48C566.815 69.78 566.725 70.02 566.545 70.2C566.365 70.38 566.125 70.47 565.825 70.47H563.125C561.505 70.47 560.23 70.95 559.3 71.91C558.37 72.84 557.905 74.115 557.905 75.735V88.965C557.905 89.265 557.8 89.52 557.59 89.73C557.38 89.91 557.125 90 556.825 90H554.62ZM579.815 90C578.135 90 576.77 89.685 575.72 89.055C574.67 88.395 573.905 87.48 573.425 86.31C572.945 85.11 572.705 83.7 572.705 82.08V70.2H569.195C568.895 70.2 568.64 70.11 568.43 69.93C568.25 69.72 568.16 69.465 568.16 69.165V67.635C568.16 67.335 568.25 67.095 568.43 66.915C568.64 66.705 568.895 66.6 569.195 66.6H572.705V59.085C572.705 58.785 572.795 58.545 572.975 58.365C573.185 58.155 573.44 58.05 573.74 58.05H575.855C576.155 58.05 576.395 58.155 576.575 58.365C576.785 58.545 576.89 58.785 576.89 59.085V66.6H582.47C582.77 66.6 583.01 66.705 583.19 66.915C583.4 67.095 583.505 67.335 583.505 67.635V69.165C583.505 69.465 583.4 69.72 583.19 69.93C583.01 70.11 582.77 70.2 582.47 70.2H576.89V81.765C576.89 83.175 577.13 84.285 577.61 85.095C578.09 85.905 578.945 86.31 580.175 86.31H582.92C583.22 86.31 583.46 86.415 583.64 86.625C583.85 86.805 583.955 87.045 583.955 87.345V88.965C583.955 89.265 583.85 89.52 583.64 89.73C583.46 89.91 583.22 90 582.92 90H579.815Z" fill="white"/>
<rect x="156" y="381" width="467" height="78" rx="27" fill="#46CA93"/>
<path d="M223.15 437C222.817 437 222.533 436.9 222.3 436.7C222.1 436.467 222 436.183 222 435.85V406.45H212.4C212.067 406.45 211.783 406.35 211.55 406.15C211.35 405.917 211.25 405.633 211.25 405.3V403.2C211.25 402.833 211.35 402.55 211.55 402.35C211.783 402.117 212.067 402 212.4 402H236.5C236.867 402 237.15 402.117 237.35 402.35C237.583 402.55 237.7 402.833 237.7 403.2V405.3C237.7 405.633 237.583 405.917 237.35 406.15C237.15 406.35 236.867 406.45 236.5 406.45H226.95V435.85C226.95 436.183 226.833 436.467 226.6 436.7C226.4 436.9 226.117 437 225.75 437H223.15ZM245.315 437.5C243.649 437.5 242.132 437.167 240.765 436.5C239.399 435.833 238.299 434.933 237.465 433.8C236.632 432.667 236.215 431.383 236.215 429.95C236.215 427.65 237.149 425.817 239.015 424.45C240.882 423.083 243.315 422.183 246.315 421.75L253.765 420.7V419.25C253.765 417.65 253.299 416.4 252.365 415.5C251.465 414.6 249.982 414.15 247.915 414.15C246.415 414.15 245.199 414.45 244.265 415.05C243.365 415.65 242.732 416.417 242.365 417.35C242.165 417.85 241.815 418.1 241.315 418.1H239.065C238.699 418.1 238.415 418 238.215 417.8C238.049 417.567 237.965 417.3 237.965 417C237.965 416.5 238.149 415.883 238.515 415.15C238.915 414.417 239.515 413.7 240.315 413C241.115 412.3 242.132 411.717 243.365 411.25C244.632 410.75 246.165 410.5 247.965 410.5C249.965 410.5 251.649 410.767 253.015 411.3C254.382 411.8 255.449 412.483 256.215 413.35C257.015 414.217 257.582 415.2 257.915 416.3C258.282 417.4 258.465 418.517 258.465 419.65V435.85C258.465 436.183 258.349 436.467 258.115 436.7C257.915 436.9 257.649 437 257.315 437H255.015C254.649 437 254.365 436.9 254.165 436.7C253.965 436.467 253.865 436.183 253.865 435.85V433.7C253.432 434.3 252.849 434.9 252.115 435.5C251.382 436.067 250.465 436.55 249.365 436.95C248.265 437.317 246.915 437.5 245.315 437.5ZM246.365 433.75C247.732 433.75 248.982 433.467 250.115 432.9C251.249 432.3 252.132 431.383 252.765 430.15C253.432 428.917 253.765 427.367 253.765 425.5V424.1L247.965 424.95C245.599 425.283 243.815 425.85 242.615 426.65C241.415 427.417 240.815 428.4 240.815 429.6C240.815 430.533 241.082 431.317 241.615 431.95C242.182 432.55 242.882 433 243.715 433.3C244.582 433.6 245.465 433.75 246.365 433.75ZM266.853 437C266.52 437 266.236 436.9 266.003 436.7C265.803 436.467 265.703 436.183 265.703 435.85V402.65C265.703 402.317 265.803 402.05 266.003 401.85C266.236 401.617 266.52 401.5 266.853 401.5H269.203C269.536 401.5 269.803 401.617 270.003 401.85C270.236 402.05 270.353 402.317 270.353 402.65V420.05L280.203 411.85C280.603 411.517 280.903 411.3 281.103 411.2C281.336 411.067 281.703 411 282.203 411H284.853C285.153 411 285.403 411.1 285.603 411.3C285.803 411.5 285.903 411.75 285.903 412.05C285.903 412.183 285.853 412.333 285.753 412.5C285.686 412.667 285.536 412.833 285.303 413L273.753 422.6L286.553 435.05C286.953 435.383 287.153 435.683 287.153 435.95C287.153 436.25 287.053 436.5 286.853 436.7C286.653 436.9 286.403 437 286.103 437H283.503C283.003 437 282.636 436.95 282.403 436.85C282.17 436.717 281.87 436.483 281.503 436.15L270.353 425.5V435.85C270.353 436.183 270.236 436.467 270.003 436.7C269.803 436.9 269.536 437 269.203 437H266.853ZM300.564 437.5C297.13 437.5 294.397 436.45 292.364 434.35C290.33 432.217 289.214 429.317 289.014 425.65C288.98 425.217 288.964 424.667 288.964 424C288.964 423.3 288.98 422.733 289.014 422.3C289.147 419.933 289.697 417.867 290.664 416.1C291.63 414.3 292.947 412.917 294.614 411.95C296.314 410.983 298.297 410.5 300.564 410.5C303.097 410.5 305.214 411.033 306.914 412.1C308.647 413.167 309.964 414.683 310.864 416.65C311.764 418.617 312.214 420.917 312.214 423.55V424.4C312.214 424.767 312.097 425.05 311.864 425.25C311.664 425.45 311.397 425.55 311.064 425.55H293.764C293.764 425.583 293.764 425.65 293.764 425.75C293.764 425.85 293.764 425.933 293.764 426C293.83 427.367 294.13 428.65 294.664 429.85C295.197 431.017 295.964 431.967 296.964 432.7C297.964 433.433 299.164 433.8 300.564 433.8C301.764 433.8 302.764 433.617 303.564 433.25C304.364 432.883 305.014 432.483 305.514 432.05C306.014 431.583 306.347 431.233 306.514 431C306.814 430.567 307.047 430.317 307.214 430.25C307.38 430.15 307.647 430.1 308.014 430.1H310.414C310.747 430.1 311.014 430.2 311.214 430.4C311.447 430.567 311.547 430.817 311.514 431.15C311.48 431.65 311.214 432.267 310.714 433C310.214 433.7 309.497 434.4 308.564 435.1C307.63 435.8 306.497 436.383 305.164 436.85C303.83 437.283 302.297 437.5 300.564 437.5ZM293.764 422.1H307.464V421.95C307.464 420.45 307.18 419.117 306.614 417.95C306.08 416.783 305.297 415.867 304.264 415.2C303.23 414.5 301.997 414.15 300.564 414.15C299.13 414.15 297.897 414.5 296.864 415.2C295.864 415.867 295.097 416.783 294.564 417.95C294.03 419.117 293.764 420.45 293.764 421.95V422.1ZM331.648 446.5C331.315 446.5 331.031 446.383 330.798 446.15C330.598 445.95 330.498 445.683 330.498 445.35V412.15C330.498 411.817 330.598 411.55 330.798 411.35C331.031 411.117 331.315 411 331.648 411H333.948C334.281 411 334.548 411.117 334.748 411.35C334.981 411.55 335.098 411.817 335.098 412.15V414.35C335.898 413.25 336.965 412.333 338.298 411.6C339.631 410.867 341.298 410.5 343.298 410.5C345.165 410.5 346.748 410.817 348.048 411.45C349.381 412.083 350.465 412.95 351.298 414.05C352.165 415.15 352.815 416.4 353.248 417.8C353.681 419.2 353.915 420.7 353.948 422.3C353.981 422.833 353.998 423.4 353.998 424C353.998 424.6 353.981 425.167 353.948 425.7C353.915 427.267 353.681 428.767 353.248 430.2C352.815 431.6 352.165 432.85 351.298 433.95C350.465 435.017 349.381 435.883 348.048 436.55C346.748 437.183 345.165 437.5 343.298 437.5C341.365 437.5 339.731 437.15 338.398 436.45C337.098 435.717 336.031 434.817 335.198 433.75V445.35C335.198 445.683 335.098 445.95 334.898 446.15C334.698 446.383 334.415 446.5 334.048 446.5H331.648ZM342.248 433.45C343.981 433.45 345.331 433.083 346.298 432.35C347.298 431.583 348.015 430.6 348.448 429.4C348.881 428.167 349.131 426.85 349.198 425.45C349.231 424.483 349.231 423.517 349.198 422.55C349.131 421.15 348.881 419.85 348.448 418.65C348.015 417.417 347.298 416.433 346.298 415.7C345.331 414.933 343.981 414.55 342.248 414.55C340.615 414.55 339.281 414.933 338.248 415.7C337.248 416.467 336.498 417.45 335.998 418.65C335.531 419.817 335.265 421.017 335.198 422.25C335.165 422.783 335.148 423.417 335.148 424.15C335.148 424.883 335.165 425.533 335.198 426.1C335.231 427.267 335.498 428.417 335.998 429.55C336.531 430.683 337.315 431.617 338.348 432.35C339.381 433.083 340.681 433.45 342.248 433.45ZM361.383 437C361.05 437 360.767 436.9 360.533 436.7C360.333 436.467 360.233 436.183 360.233 435.85V412.2C360.233 411.867 360.333 411.583 360.533 411.35C360.767 411.117 361.05 411 361.383 411H363.683C364.017 411 364.3 411.117 364.533 411.35C364.767 411.583 364.883 411.867 364.883 412.2V414.4C365.55 413.267 366.467 412.417 367.633 411.85C368.8 411.283 370.2 411 371.833 411H373.833C374.167 411 374.433 411.117 374.633 411.35C374.833 411.55 374.933 411.817 374.933 412.15V414.2C374.933 414.533 374.833 414.8 374.633 415C374.433 415.2 374.167 415.3 373.833 415.3H370.833C369.033 415.3 367.617 415.833 366.583 416.9C365.55 417.933 365.033 419.35 365.033 421.15V435.85C365.033 436.183 364.917 436.467 364.683 436.7C364.45 436.9 364.167 437 363.833 437H361.383ZM389.389 437.5C386.856 437.5 384.739 437.017 383.039 436.05C381.339 435.083 380.039 433.75 379.139 432.05C378.239 430.317 377.739 428.35 377.639 426.15C377.606 425.583 377.589 424.867 377.589 424C377.589 423.1 377.606 422.383 377.639 421.85C377.739 419.617 378.239 417.65 379.139 415.95C380.072 414.25 381.389 412.917 383.089 411.95C384.789 410.983 386.889 410.5 389.389 410.5C391.889 410.5 393.989 410.983 395.689 411.95C397.389 412.917 398.689 414.25 399.589 415.95C400.522 417.65 401.039 419.617 401.139 421.85C401.172 422.383 401.189 423.1 401.189 424C401.189 424.867 401.172 425.583 401.139 426.15C401.039 428.35 400.539 430.317 399.639 432.05C398.739 433.75 397.439 435.083 395.739 436.05C394.039 437.017 391.922 437.5 389.389 437.5ZM389.389 433.65C391.456 433.65 393.106 433 394.339 431.7C395.572 430.367 396.239 428.433 396.339 425.9C396.372 425.4 396.389 424.767 396.389 424C396.389 423.233 396.372 422.6 396.339 422.1C396.239 419.567 395.572 417.65 394.339 416.35C393.106 415.017 391.456 414.35 389.389 414.35C387.322 414.35 385.656 415.017 384.389 416.35C383.156 417.65 382.506 419.567 382.439 422.1C382.406 422.6 382.389 423.233 382.389 424C382.389 424.767 382.406 425.4 382.439 425.9C382.506 428.433 383.156 430.367 384.389 431.7C385.656 433 387.322 433.65 389.389 433.65ZM410.907 437C410.574 437 410.29 436.9 410.057 436.7C409.857 436.467 409.757 436.183 409.757 435.85V415H405.507C405.174 415 404.89 414.9 404.657 414.7C404.457 414.467 404.357 414.183 404.357 413.85V412.15C404.357 411.817 404.457 411.55 404.657 411.35C404.89 411.117 405.174 411 405.507 411H409.757V408.5C409.757 406.8 410.04 405.317 410.607 404.05C411.174 402.75 412.074 401.75 413.307 401.05C414.574 400.35 416.257 400 418.357 400H426.057C426.39 400 426.657 400.117 426.857 400.35C427.09 400.55 427.207 400.817 427.207 401.15V402.85C427.207 403.183 427.09 403.467 426.857 403.7C426.657 403.9 426.39 404 426.057 404H418.457C416.89 404 415.824 404.417 415.257 405.25C414.69 406.05 414.407 407.217 414.407 408.75V411H426.057C426.39 411 426.657 411.117 426.857 411.35C427.09 411.55 427.207 411.817 427.207 412.15V435.85C427.207 436.183 427.09 436.467 426.857 436.7C426.657 436.9 426.39 437 426.057 437H423.757C423.39 437 423.107 436.9 422.907 436.7C422.707 436.467 422.607 436.183 422.607 435.85V415H414.407V435.85C414.407 436.183 414.29 436.467 414.057 436.7C413.857 436.9 413.59 437 413.257 437H410.907ZM444.748 437C442.882 437 441.365 436.65 440.198 435.95C439.032 435.217 438.182 434.2 437.648 432.9C437.115 431.567 436.848 430 436.848 428.2V415H432.948C432.615 415 432.332 414.9 432.098 414.7C431.898 414.467 431.798 414.183 431.798 413.85V412.15C431.798 411.817 431.898 411.55 432.098 411.35C432.332 411.117 432.615 411 432.948 411H436.848V402.65C436.848 402.317 436.948 402.05 437.148 401.85C437.382 401.617 437.665 401.5 437.998 401.5H440.348C440.682 401.5 440.948 401.617 441.148 401.85C441.382 402.05 441.498 402.317 441.498 402.65V411H447.698C448.032 411 448.298 411.117 448.498 411.35C448.732 411.55 448.848 411.817 448.848 412.15V413.85C448.848 414.183 448.732 414.467 448.498 414.7C448.298 414.9 448.032 415 447.698 415H441.498V427.85C441.498 429.417 441.765 430.65 442.298 431.55C442.832 432.45 443.782 432.9 445.148 432.9H448.198C448.532 432.9 448.798 433.017 448.998 433.25C449.232 433.45 449.348 433.717 449.348 434.05V435.85C449.348 436.183 449.232 436.467 448.998 436.7C448.798 436.9 448.532 437 448.198 437H444.748Z" fill="white"/>
<rect x="156" y="510" width="467" height="78" rx="27" fill="#445FEE"/>
<path d="M221.15 566C220.817 566 220.533 565.9 220.3 565.7C220.1 565.467 220 565.183 220 564.85V535.45H210.4C210.067 535.45 209.783 535.35 209.55 535.15C209.35 534.917 209.25 534.633 209.25 534.3V532.2C209.25 531.833 209.35 531.55 209.55 531.35C209.783 531.117 210.067 531 210.4 531H234.5C234.867 531 235.15 531.117 235.35 531.35C235.583 531.55 235.7 531.833 235.7 532.2V534.3C235.7 534.633 235.583 534.917 235.35 535.15C235.15 535.35 234.867 535.45 234.5 535.45H224.95V564.85C224.95 565.183 224.833 565.467 224.6 565.7C224.4 565.9 224.117 566 223.75 566H221.15ZM237.752 566C237.419 566 237.136 565.9 236.902 565.7C236.702 565.467 236.602 565.183 236.602 564.85V541.2C236.602 540.867 236.702 540.583 236.902 540.35C237.136 540.117 237.419 540 237.752 540H240.052C240.386 540 240.669 540.117 240.902 540.35C241.136 540.583 241.252 540.867 241.252 541.2V543.4C241.919 542.267 242.836 541.417 244.002 540.85C245.169 540.283 246.569 540 248.202 540H250.202C250.536 540 250.802 540.117 251.002 540.35C251.202 540.55 251.302 540.817 251.302 541.15V543.2C251.302 543.533 251.202 543.8 251.002 544C250.802 544.2 250.536 544.3 250.202 544.3H247.202C245.402 544.3 243.986 544.833 242.952 545.9C241.919 546.933 241.402 548.35 241.402 550.15V564.85C241.402 565.183 241.286 565.467 241.052 565.7C240.819 565.9 240.536 566 240.202 566H237.752ZM262.456 566.5C260.789 566.5 259.273 566.167 257.906 565.5C256.539 564.833 255.439 563.933 254.606 562.8C253.773 561.667 253.356 560.383 253.356 558.95C253.356 556.65 254.289 554.817 256.156 553.45C258.023 552.083 260.456 551.183 263.456 550.75L270.906 549.7V548.25C270.906 546.65 270.439 545.4 269.506 544.5C268.606 543.6 267.123 543.15 265.056 543.15C263.556 543.15 262.339 543.45 261.406 544.05C260.506 544.65 259.873 545.417 259.506 546.35C259.306 546.85 258.956 547.1 258.456 547.1H256.206C255.839 547.1 255.556 547 255.356 546.8C255.189 546.567 255.106 546.3 255.106 546C255.106 545.5 255.289 544.883 255.656 544.15C256.056 543.417 256.656 542.7 257.456 542C258.256 541.3 259.273 540.717 260.506 540.25C261.773 539.75 263.306 539.5 265.106 539.5C267.106 539.5 268.789 539.767 270.156 540.3C271.523 540.8 272.589 541.483 273.356 542.35C274.156 543.217 274.723 544.2 275.056 545.3C275.423 546.4 275.606 547.517 275.606 548.65V564.85C275.606 565.183 275.489 565.467 275.256 565.7C275.056 565.9 274.789 566 274.456 566H272.156C271.789 566 271.506 565.9 271.306 565.7C271.106 565.467 271.006 565.183 271.006 564.85V562.7C270.573 563.3 269.989 563.9 269.256 564.5C268.523 565.067 267.606 565.55 266.506 565.95C265.406 566.317 264.056 566.5 262.456 566.5ZM263.506 562.75C264.873 562.75 266.123 562.467 267.256 561.9C268.389 561.3 269.273 560.383 269.906 559.15C270.573 557.917 270.906 556.367 270.906 554.5V553.1L265.106 553.95C262.739 554.283 260.956 554.85 259.756 555.65C258.556 556.417 257.956 557.4 257.956 558.6C257.956 559.533 258.223 560.317 258.756 560.95C259.323 561.55 260.023 562 260.856 562.3C261.723 562.6 262.606 562.75 263.506 562.75ZM283.944 566C283.61 566 283.327 565.9 283.094 565.7C282.894 565.467 282.794 565.183 282.794 564.85V541.15C282.794 540.817 282.894 540.55 283.094 540.35C283.327 540.117 283.61 540 283.944 540H286.344C286.677 540 286.944 540.117 287.144 540.35C287.344 540.55 287.444 540.817 287.444 541.15V564.85C287.444 565.183 287.344 565.467 287.144 565.7C286.944 565.9 286.677 566 286.344 566H283.944ZM283.544 535.15C283.21 535.15 282.927 535.05 282.694 534.85C282.494 534.617 282.394 534.333 282.394 534V531.3C282.394 530.967 282.494 530.7 282.694 530.5C282.927 530.267 283.21 530.15 283.544 530.15H286.694C287.027 530.15 287.294 530.267 287.494 530.5C287.727 530.7 287.844 530.967 287.844 531.3V534C287.844 534.333 287.727 534.617 287.494 534.85C287.294 535.05 287.027 535.15 286.694 535.15H283.544ZM296.103 566C295.77 566 295.486 565.9 295.253 565.7C295.053 565.467 294.953 565.183 294.953 564.85V531.65C294.953 531.317 295.053 531.05 295.253 530.85C295.486 530.617 295.77 530.5 296.103 530.5H298.453C298.82 530.5 299.103 530.617 299.303 530.85C299.503 531.05 299.603 531.317 299.603 531.65V564.85C299.603 565.183 299.503 565.467 299.303 565.7C299.103 565.9 298.82 566 298.453 566H296.103ZM308.7 566C308.366 566 308.083 565.9 307.85 565.7C307.65 565.467 307.55 565.183 307.55 564.85V541.15C307.55 540.817 307.65 540.55 307.85 540.35C308.083 540.117 308.366 540 308.7 540H311.1C311.433 540 311.7 540.117 311.9 540.35C312.1 540.55 312.2 540.817 312.2 541.15V564.85C312.2 565.183 312.1 565.467 311.9 565.7C311.7 565.9 311.433 566 311.1 566H308.7ZM308.3 535.15C307.966 535.15 307.683 535.05 307.45 534.85C307.25 534.617 307.15 534.333 307.15 534V531.3C307.15 530.967 307.25 530.7 307.45 530.5C307.683 530.267 307.966 530.15 308.3 530.15H311.45C311.783 530.15 312.05 530.267 312.25 530.5C312.483 530.7 312.6 530.967 312.6 531.3V534C312.6 534.333 312.483 534.617 312.25 534.85C312.05 535.05 311.783 535.15 311.45 535.15H308.3ZM321.297 566C320.964 566 320.681 565.9 320.447 565.7C320.247 565.467 320.147 565.183 320.147 564.85V541.15C320.147 540.817 320.247 540.55 320.447 540.35C320.681 540.117 320.964 540 321.297 540H323.647C323.981 540 324.247 540.117 324.447 540.35C324.681 540.55 324.797 540.817 324.797 541.15V543.35C325.664 542.217 326.747 541.3 328.047 540.6C329.381 539.867 331.081 539.5 333.147 539.5C335.314 539.5 337.147 539.983 338.647 540.95C340.181 541.883 341.331 543.2 342.097 544.9C342.864 546.567 343.247 548.517 343.247 550.75V564.85C343.247 565.183 343.147 565.467 342.947 565.7C342.747 565.9 342.481 566 342.147 566H339.647C339.314 566 339.031 565.9 338.797 565.7C338.597 565.467 338.497 565.183 338.497 564.85V551C338.497 548.667 337.931 546.85 336.797 545.55C335.664 544.217 333.997 543.55 331.797 543.55C329.731 543.55 328.064 544.217 326.797 545.55C325.564 546.85 324.947 548.667 324.947 551V564.85C324.947 565.183 324.831 565.467 324.597 565.7C324.397 565.9 324.131 566 323.797 566H321.297ZM361.12 577C358.853 577 356.986 576.7 355.52 576.1C354.086 575.5 352.953 574.767 352.12 573.9C351.32 573.067 350.736 572.217 350.37 571.35C350.036 570.517 349.853 569.85 349.82 569.35C349.786 569.017 349.886 568.733 350.12 568.5C350.386 568.267 350.67 568.15 350.97 568.15H353.37C353.67 568.15 353.92 568.217 354.12 568.35C354.32 568.483 354.486 568.767 354.62 569.2C354.82 569.7 355.12 570.25 355.52 570.85C355.92 571.483 356.536 572.017 357.37 572.45C358.203 572.917 359.37 573.15 360.87 573.15C362.436 573.15 363.753 572.933 364.82 572.5C365.886 572.1 366.686 571.367 367.22 570.3C367.786 569.267 368.07 567.833 368.07 566V562.6C367.27 563.633 366.22 564.5 364.92 565.2C363.62 565.867 361.986 566.2 360.02 566.2C358.153 566.2 356.553 565.883 355.22 565.25C353.886 564.583 352.786 563.7 351.92 562.6C351.086 561.467 350.453 560.183 350.02 558.75C349.62 557.317 349.386 555.817 349.32 554.25C349.286 553.317 349.286 552.4 349.32 551.5C349.386 549.933 349.62 548.433 350.02 547C350.453 545.567 351.086 544.283 351.92 543.15C352.786 542.017 353.886 541.133 355.22 540.5C356.553 539.833 358.153 539.5 360.02 539.5C362.02 539.5 363.67 539.883 364.97 540.65C366.303 541.383 367.386 542.283 368.22 543.35V541.2C368.22 540.867 368.32 540.583 368.52 540.35C368.753 540.117 369.036 540 369.37 540H371.67C372.003 540 372.286 540.117 372.52 540.35C372.753 540.583 372.87 540.867 372.87 541.2V565.45C372.87 567.683 372.486 569.667 371.72 571.4C370.986 573.133 369.753 574.5 368.02 575.5C366.32 576.5 364.02 577 361.12 577ZM361.02 562.2C362.686 562.2 364.02 561.817 365.02 561.05C366.053 560.283 366.803 559.317 367.27 558.15C367.77 556.983 368.036 555.8 368.07 554.6C368.103 554.133 368.12 553.567 368.12 552.9C368.12 552.2 368.103 551.617 368.07 551.15C368.036 549.95 367.77 548.767 367.27 547.6C366.803 546.433 366.053 545.467 365.02 544.7C364.02 543.933 362.686 543.55 361.02 543.55C359.353 543.55 358.02 543.933 357.02 544.7C356.02 545.433 355.303 546.417 354.87 547.65C354.436 548.85 354.186 550.15 354.12 551.55C354.086 552.417 354.086 553.3 354.12 554.2C354.186 555.6 354.436 556.917 354.87 558.15C355.303 559.35 356.02 560.333 357.02 561.1C358.02 561.833 359.353 562.2 361.02 562.2ZM404.459 566.5C401.559 566.5 399.126 566.067 397.159 565.2C395.193 564.3 393.676 563.15 392.609 561.75C391.576 560.317 391.026 558.8 390.959 557.2C390.959 556.933 391.059 556.7 391.259 556.5C391.493 556.267 391.759 556.15 392.059 556.15H394.609C395.009 556.15 395.309 556.25 395.509 556.45C395.709 556.65 395.843 556.883 395.909 557.15C396.076 557.95 396.476 558.75 397.109 559.55C397.776 560.317 398.693 560.967 399.859 561.5C401.059 562 402.593 562.25 404.459 562.25C407.326 562.25 409.426 561.75 410.759 560.75C412.126 559.717 412.809 558.35 412.809 556.65C412.809 555.483 412.443 554.55 411.709 553.85C411.009 553.117 409.926 552.467 408.459 551.9C406.993 551.333 405.093 550.717 402.759 550.05C400.326 549.35 398.309 548.583 396.709 547.75C395.109 546.917 393.909 545.883 393.109 544.65C392.343 543.417 391.959 541.85 391.959 539.95C391.959 538.15 392.443 536.55 393.409 535.15C394.376 533.717 395.759 532.583 397.559 531.75C399.393 530.917 401.609 530.5 404.209 530.5C406.276 530.5 408.076 530.783 409.609 531.35C411.176 531.883 412.476 532.617 413.509 533.55C414.543 534.45 415.326 535.433 415.859 536.5C416.393 537.533 416.676 538.55 416.709 539.55C416.709 539.783 416.626 540.017 416.459 540.25C416.293 540.45 416.026 540.55 415.659 540.55H413.009C412.776 540.55 412.526 540.483 412.259 540.35C412.026 540.217 411.843 539.967 411.709 539.6C411.509 538.233 410.743 537.083 409.409 536.15C408.076 535.217 406.343 534.75 404.209 534.75C402.043 534.75 400.276 535.167 398.909 536C397.576 536.833 396.909 538.133 396.909 539.9C396.909 541.033 397.226 541.983 397.859 542.75C398.493 543.483 399.493 544.133 400.859 544.7C402.226 545.267 404.009 545.867 406.209 546.5C408.876 547.233 411.059 548.017 412.759 548.85C414.459 549.65 415.709 550.667 416.509 551.9C417.343 553.1 417.759 554.65 417.759 556.55C417.759 558.65 417.209 560.45 416.109 561.95C415.009 563.417 413.459 564.55 411.459 565.35C409.493 566.117 407.159 566.5 404.459 566.5ZM425.463 566C425.096 566 424.813 565.9 424.613 565.7C424.413 565.467 424.313 565.183 424.313 564.85V532.15C424.313 531.817 424.413 531.55 424.613 531.35C424.813 531.117 425.096 531 425.463 531H428.113C428.446 531 428.713 531.117 428.913 531.35C429.113 531.55 429.213 531.817 429.213 532.15V561.65H445.863C446.23 561.65 446.513 561.767 446.713 562C446.913 562.2 447.013 562.483 447.013 562.85V564.85C447.013 565.183 446.913 565.467 446.713 565.7C446.513 565.9 446.23 566 445.863 566H425.463Z" fill="white"/>
<rect x="156" y="631" width="467" height="78" rx="27" fill="#445FEE"/>
<path d="M221.15 687C220.817 687 220.533 686.9 220.3 686.7C220.1 686.467 220 686.183 220 685.85V656.45H210.4C210.067 656.45 209.783 656.35 209.55 656.15C209.35 655.917 209.25 655.633 209.25 655.3V653.2C209.25 652.833 209.35 652.55 209.55 652.35C209.783 652.117 210.067 652 210.4 652H234.5C234.867 652 235.15 652.117 235.35 652.35C235.583 652.55 235.7 652.833 235.7 653.2V655.3C235.7 655.633 235.583 655.917 235.35 656.15C235.15 656.35 234.867 656.45 234.5 656.45H224.95V685.85C224.95 686.183 224.833 686.467 224.6 686.7C224.4 686.9 224.117 687 223.75 687H221.15ZM237.752 687C237.419 687 237.136 686.9 236.902 686.7C236.702 686.467 236.602 686.183 236.602 685.85V662.2C236.602 661.867 236.702 661.583 236.902 661.35C237.136 661.117 237.419 661 237.752 661H240.052C240.386 661 240.669 661.117 240.902 661.35C241.136 661.583 241.252 661.867 241.252 662.2V664.4C241.919 663.267 242.836 662.417 244.002 661.85C245.169 661.283 246.569 661 248.202 661H250.202C250.536 661 250.802 661.117 251.002 661.35C251.202 661.55 251.302 661.817 251.302 662.15V664.2C251.302 664.533 251.202 664.8 251.002 665C250.802 665.2 250.536 665.3 250.202 665.3H247.202C245.402 665.3 243.986 665.833 242.952 666.9C241.919 667.933 241.402 669.35 241.402 671.15V685.85C241.402 686.183 241.286 686.467 241.052 686.7C240.819 686.9 240.536 687 240.202 687H237.752ZM262.456 687.5C260.789 687.5 259.273 687.167 257.906 686.5C256.539 685.833 255.439 684.933 254.606 683.8C253.773 682.667 253.356 681.383 253.356 679.95C253.356 677.65 254.289 675.817 256.156 674.45C258.023 673.083 260.456 672.183 263.456 671.75L270.906 670.7V669.25C270.906 667.65 270.439 666.4 269.506 665.5C268.606 664.6 267.123 664.15 265.056 664.15C263.556 664.15 262.339 664.45 261.406 665.05C260.506 665.65 259.873 666.417 259.506 667.35C259.306 667.85 258.956 668.1 258.456 668.1H256.206C255.839 668.1 255.556 668 255.356 667.8C255.189 667.567 255.106 667.3 255.106 667C255.106 666.5 255.289 665.883 255.656 665.15C256.056 664.417 256.656 663.7 257.456 663C258.256 662.3 259.273 661.717 260.506 661.25C261.773 660.75 263.306 660.5 265.106 660.5C267.106 660.5 268.789 660.767 270.156 661.3C271.523 661.8 272.589 662.483 273.356 663.35C274.156 664.217 274.723 665.2 275.056 666.3C275.423 667.4 275.606 668.517 275.606 669.65V685.85C275.606 686.183 275.489 686.467 275.256 686.7C275.056 686.9 274.789 687 274.456 687H272.156C271.789 687 271.506 686.9 271.306 686.7C271.106 686.467 271.006 686.183 271.006 685.85V683.7C270.573 684.3 269.989 684.9 269.256 685.5C268.523 686.067 267.606 686.55 266.506 686.95C265.406 687.317 264.056 687.5 262.456 687.5ZM263.506 683.75C264.873 683.75 266.123 683.467 267.256 682.9C268.389 682.3 269.273 681.383 269.906 680.15C270.573 678.917 270.906 677.367 270.906 675.5V674.1L265.106 674.95C262.739 675.283 260.956 675.85 259.756 676.65C258.556 677.417 257.956 678.4 257.956 679.6C257.956 680.533 258.223 681.317 258.756 681.95C259.323 682.55 260.023 683 260.856 683.3C261.723 683.6 262.606 683.75 263.506 683.75ZM283.944 687C283.61 687 283.327 686.9 283.094 686.7C282.894 686.467 282.794 686.183 282.794 685.85V662.15C282.794 661.817 282.894 661.55 283.094 661.35C283.327 661.117 283.61 661 283.944 661H286.344C286.677 661 286.944 661.117 287.144 661.35C287.344 661.55 287.444 661.817 287.444 662.15V685.85C287.444 686.183 287.344 686.467 287.144 686.7C286.944 686.9 286.677 687 286.344 687H283.944ZM283.544 656.15C283.21 656.15 282.927 656.05 282.694 655.85C282.494 655.617 282.394 655.333 282.394 655V652.3C282.394 651.967 282.494 651.7 282.694 651.5C282.927 651.267 283.21 651.15 283.544 651.15H286.694C287.027 651.15 287.294 651.267 287.494 651.5C287.727 651.7 287.844 651.967 287.844 652.3V655C287.844 655.333 287.727 655.617 287.494 655.85C287.294 656.05 287.027 656.15 286.694 656.15H283.544ZM296.103 687C295.77 687 295.486 686.9 295.253 686.7C295.053 686.467 294.953 686.183 294.953 685.85V652.65C294.953 652.317 295.053 652.05 295.253 651.85C295.486 651.617 295.77 651.5 296.103 651.5H298.453C298.82 651.5 299.103 651.617 299.303 651.85C299.503 652.05 299.603 652.317 299.603 652.65V685.85C299.603 686.183 299.503 686.467 299.303 686.7C299.103 686.9 298.82 687 298.453 687H296.103ZM308.7 687C308.366 687 308.083 686.9 307.85 686.7C307.65 686.467 307.55 686.183 307.55 685.85V662.15C307.55 661.817 307.65 661.55 307.85 661.35C308.083 661.117 308.366 661 308.7 661H311.1C311.433 661 311.7 661.117 311.9 661.35C312.1 661.55 312.2 661.817 312.2 662.15V685.85C312.2 686.183 312.1 686.467 311.9 686.7C311.7 686.9 311.433 687 311.1 687H308.7ZM308.3 656.15C307.966 656.15 307.683 656.05 307.45 655.85C307.25 655.617 307.15 655.333 307.15 655V652.3C307.15 651.967 307.25 651.7 307.45 651.5C307.683 651.267 307.966 651.15 308.3 651.15H311.45C311.783 651.15 312.05 651.267 312.25 651.5C312.483 651.7 312.6 651.967 312.6 652.3V655C312.6 655.333 312.483 655.617 312.25 655.85C312.05 656.05 311.783 656.15 311.45 656.15H308.3ZM321.297 687C320.964 687 320.681 686.9 320.447 686.7C320.247 686.467 320.147 686.183 320.147 685.85V662.15C320.147 661.817 320.247 661.55 320.447 661.35C320.681 661.117 320.964 661 321.297 661H323.647C323.981 661 324.247 661.117 324.447 661.35C324.681 661.55 324.797 661.817 324.797 662.15V664.35C325.664 663.217 326.747 662.3 328.047 661.6C329.381 660.867 331.081 660.5 333.147 660.5C335.314 660.5 337.147 660.983 338.647 661.95C340.181 662.883 341.331 664.2 342.097 665.9C342.864 667.567 343.247 669.517 343.247 671.75V685.85C343.247 686.183 343.147 686.467 342.947 686.7C342.747 686.9 342.481 687 342.147 687H339.647C339.314 687 339.031 686.9 338.797 686.7C338.597 686.467 338.497 686.183 338.497 685.85V672C338.497 669.667 337.931 667.85 336.797 666.55C335.664 665.217 333.997 664.55 331.797 664.55C329.731 664.55 328.064 665.217 326.797 666.55C325.564 667.85 324.947 669.667 324.947 672V685.85C324.947 686.183 324.831 686.467 324.597 686.7C324.397 686.9 324.131 687 323.797 687H321.297ZM361.12 698C358.853 698 356.986 697.7 355.52 697.1C354.086 696.5 352.953 695.767 352.12 694.9C351.32 694.067 350.736 693.217 350.37 692.35C350.036 691.517 349.853 690.85 349.82 690.35C349.786 690.017 349.886 689.733 350.12 689.5C350.386 689.267 350.67 689.15 350.97 689.15H353.37C353.67 689.15 353.92 689.217 354.12 689.35C354.32 689.483 354.486 689.767 354.62 690.2C354.82 690.7 355.12 691.25 355.52 691.85C355.92 692.483 356.536 693.017 357.37 693.45C358.203 693.917 359.37 694.15 360.87 694.15C362.436 694.15 363.753 693.933 364.82 693.5C365.886 693.1 366.686 692.367 367.22 691.3C367.786 690.267 368.07 688.833 368.07 687V683.6C367.27 684.633 366.22 685.5 364.92 686.2C363.62 686.867 361.986 687.2 360.02 687.2C358.153 687.2 356.553 686.883 355.22 686.25C353.886 685.583 352.786 684.7 351.92 683.6C351.086 682.467 350.453 681.183 350.02 679.75C349.62 678.317 349.386 676.817 349.32 675.25C349.286 674.317 349.286 673.4 349.32 672.5C349.386 670.933 349.62 669.433 350.02 668C350.453 666.567 351.086 665.283 351.92 664.15C352.786 663.017 353.886 662.133 355.22 661.5C356.553 660.833 358.153 660.5 360.02 660.5C362.02 660.5 363.67 660.883 364.97 661.65C366.303 662.383 367.386 663.283 368.22 664.35V662.2C368.22 661.867 368.32 661.583 368.52 661.35C368.753 661.117 369.036 661 369.37 661H371.67C372.003 661 372.286 661.117 372.52 661.35C372.753 661.583 372.87 661.867 372.87 662.2V686.45C372.87 688.683 372.486 690.667 371.72 692.4C370.986 694.133 369.753 695.5 368.02 696.5C366.32 697.5 364.02 698 361.12 698ZM361.02 683.2C362.686 683.2 364.02 682.817 365.02 682.05C366.053 681.283 366.803 680.317 367.27 679.15C367.77 677.983 368.036 676.8 368.07 675.6C368.103 675.133 368.12 674.567 368.12 673.9C368.12 673.2 368.103 672.617 368.07 672.15C368.036 670.95 367.77 669.767 367.27 668.6C366.803 667.433 366.053 666.467 365.02 665.7C364.02 664.933 362.686 664.55 361.02 664.55C359.353 664.55 358.02 664.933 357.02 665.7C356.02 666.433 355.303 667.417 354.87 668.65C354.436 669.85 354.186 671.15 354.12 672.55C354.086 673.417 354.086 674.3 354.12 675.2C354.186 676.6 354.436 677.917 354.87 679.15C355.303 680.35 356.02 681.333 357.02 682.1C358.02 682.833 359.353 683.2 361.02 683.2ZM400.74 687C400.407 687 400.123 686.9 399.89 686.7C399.69 686.467 399.59 686.183 399.59 685.85V656.45H389.99C389.657 656.45 389.373 656.35 389.14 656.15C388.94 655.917 388.84 655.633 388.84 655.3V653.2C388.84 652.833 388.94 652.55 389.14 652.35C389.373 652.117 389.657 652 389.99 652H414.09C414.457 652 414.74 652.117 414.94 652.35C415.173 652.55 415.29 652.833 415.29 653.2V655.3C415.29 655.633 415.173 655.917 414.94 656.15C414.74 656.35 414.457 656.45 414.09 656.45H404.54V685.85C404.54 686.183 404.423 686.467 404.19 686.7C403.99 686.9 403.707 687 403.34 687H400.74ZM422.045 687C421.678 687 421.395 686.9 421.195 686.7C420.995 686.467 420.895 686.183 420.895 685.85V653.2C420.895 652.833 420.995 652.55 421.195 652.35C421.395 652.117 421.678 652 422.045 652H434.745C437.212 652 439.345 652.4 441.145 653.2C442.978 654 444.395 655.2 445.395 656.8C446.395 658.367 446.895 660.333 446.895 662.7C446.895 665.067 446.395 667.033 445.395 668.6C444.395 670.167 442.978 671.35 441.145 672.15C439.345 672.95 437.212 673.35 434.745 673.35H425.895V685.85C425.895 686.183 425.778 686.467 425.545 686.7C425.345 686.9 425.062 687 424.695 687H422.045ZM425.845 669.15H434.495C436.962 669.15 438.812 668.6 440.045 667.5C441.278 666.4 441.895 664.8 441.895 662.7C441.895 660.633 441.295 659.033 440.095 657.9C438.895 656.767 437.028 656.2 434.495 656.2H425.845V669.15Z" fill="white"/>
<rect x="156" y="246" width="467" height="78" rx="27" fill="#DF6B6B"/>
<path d="M225.6 302.5C222.7 302.5 220.267 302.067 218.3 301.2C216.333 300.3 214.817 299.15 213.75 297.75C212.717 296.317 212.167 294.8 212.1 293.2C212.1 292.933 212.2 292.7 212.4 292.5C212.633 292.267 212.9 292.15 213.2 292.15H215.75C216.15 292.15 216.45 292.25 216.65 292.45C216.85 292.65 216.983 292.883 217.05 293.15C217.217 293.95 217.617 294.75 218.25 295.55C218.917 296.317 219.833 296.967 221 297.5C222.2 298 223.733 298.25 225.6 298.25C228.467 298.25 230.567 297.75 231.9 296.75C233.267 295.717 233.95 294.35 233.95 292.65C233.95 291.483 233.583 290.55 232.85 289.85C232.15 289.117 231.067 288.467 229.6 287.9C228.133 287.333 226.233 286.717 223.9 286.05C221.467 285.35 219.45 284.583 217.85 283.75C216.25 282.917 215.05 281.883 214.25 280.65C213.483 279.417 213.1 277.85 213.1 275.95C213.1 274.15 213.583 272.55 214.55 271.15C215.517 269.717 216.9 268.583 218.7 267.75C220.533 266.917 222.75 266.5 225.35 266.5C227.417 266.5 229.217 266.783 230.75 267.35C232.317 267.883 233.617 268.617 234.65 269.55C235.683 270.45 236.467 271.433 237 272.5C237.533 273.533 237.817 274.55 237.85 275.55C237.85 275.783 237.767 276.017 237.6 276.25C237.433 276.45 237.167 276.55 236.8 276.55H234.15C233.917 276.55 233.667 276.483 233.4 276.35C233.167 276.217 232.983 275.967 232.85 275.6C232.65 274.233 231.883 273.083 230.55 272.15C229.217 271.217 227.483 270.75 225.35 270.75C223.183 270.75 221.417 271.167 220.05 272C218.717 272.833 218.05 274.133 218.05 275.9C218.05 277.033 218.367 277.983 219 278.75C219.633 279.483 220.633 280.133 222 280.7C223.367 281.267 225.15 281.867 227.35 282.5C230.017 283.233 232.2 284.017 233.9 284.85C235.6 285.65 236.85 286.667 237.65 287.9C238.483 289.1 238.9 290.65 238.9 292.55C238.9 294.65 238.35 296.45 237.25 297.95C236.15 299.417 234.6 300.55 232.6 301.35C230.633 302.117 228.3 302.5 225.6 302.5ZM254.954 302C253.087 302 251.57 301.65 250.404 300.95C249.237 300.217 248.387 299.2 247.854 297.9C247.32 296.567 247.054 295 247.054 293.2V280H243.154C242.82 280 242.537 279.9 242.304 279.7C242.104 279.467 242.004 279.183 242.004 278.85V277.15C242.004 276.817 242.104 276.55 242.304 276.35C242.537 276.117 242.82 276 243.154 276H247.054V267.65C247.054 267.317 247.154 267.05 247.354 266.85C247.587 266.617 247.87 266.5 248.204 266.5H250.554C250.887 266.5 251.154 266.617 251.354 266.85C251.587 267.05 251.704 267.317 251.704 267.65V276H257.904C258.237 276 258.504 276.117 258.704 276.35C258.937 276.55 259.054 276.817 259.054 277.15V278.85C259.054 279.183 258.937 279.467 258.704 279.7C258.504 279.9 258.237 280 257.904 280H251.704V292.85C251.704 294.417 251.97 295.65 252.504 296.55C253.037 297.45 253.987 297.9 255.354 297.9H258.404C258.737 297.9 259.004 298.017 259.204 298.25C259.437 298.45 259.554 298.717 259.554 299.05V300.85C259.554 301.183 259.437 301.467 259.204 301.7C259.004 301.9 258.737 302 258.404 302H254.954ZM274.985 302.5C272.451 302.5 270.335 302.017 268.635 301.05C266.935 300.083 265.635 298.75 264.735 297.05C263.835 295.317 263.335 293.35 263.235 291.15C263.201 290.583 263.185 289.867 263.185 289C263.185 288.1 263.201 287.383 263.235 286.85C263.335 284.617 263.835 282.65 264.735 280.95C265.668 279.25 266.985 277.917 268.685 276.95C270.385 275.983 272.485 275.5 274.985 275.5C277.485 275.5 279.585 275.983 281.285 276.95C282.985 277.917 284.285 279.25 285.185 280.95C286.118 282.65 286.635 284.617 286.735 286.85C286.768 287.383 286.785 288.1 286.785 289C286.785 289.867 286.768 290.583 286.735 291.15C286.635 293.35 286.135 295.317 285.235 297.05C284.335 298.75 283.035 300.083 281.335 301.05C279.635 302.017 277.518 302.5 274.985 302.5ZM274.985 298.65C277.051 298.65 278.701 298 279.935 296.7C281.168 295.367 281.835 293.433 281.935 290.9C281.968 290.4 281.985 289.767 281.985 289C281.985 288.233 281.968 287.6 281.935 287.1C281.835 284.567 281.168 282.65 279.935 281.35C278.701 280.017 277.051 279.35 274.985 279.35C272.918 279.35 271.251 280.017 269.985 281.35C268.751 282.65 268.101 284.567 268.035 287.1C268.001 287.6 267.985 288.233 267.985 289C267.985 289.767 268.001 290.4 268.035 290.9C268.101 293.433 268.751 295.367 269.985 296.7C271.251 298 272.918 298.65 274.985 298.65ZM294.246 311.5C293.912 311.5 293.629 311.383 293.396 311.15C293.196 310.95 293.096 310.683 293.096 310.35V277.15C293.096 276.817 293.196 276.55 293.396 276.35C293.629 276.117 293.912 276 294.246 276H296.546C296.879 276 297.146 276.117 297.346 276.35C297.579 276.55 297.696 276.817 297.696 277.15V279.35C298.496 278.25 299.562 277.333 300.896 276.6C302.229 275.867 303.896 275.5 305.896 275.5C307.762 275.5 309.346 275.817 310.646 276.45C311.979 277.083 313.062 277.95 313.896 279.05C314.762 280.15 315.412 281.4 315.846 282.8C316.279 284.2 316.512 285.7 316.546 287.3C316.579 287.833 316.596 288.4 316.596 289C316.596 289.6 316.579 290.167 316.546 290.7C316.512 292.267 316.279 293.767 315.846 295.2C315.412 296.6 314.762 297.85 313.896 298.95C313.062 300.017 311.979 300.883 310.646 301.55C309.346 302.183 307.762 302.5 305.896 302.5C303.962 302.5 302.329 302.15 300.996 301.45C299.696 300.717 298.629 299.817 297.796 298.75V310.35C297.796 310.683 297.696 310.95 297.496 311.15C297.296 311.383 297.012 311.5 296.646 311.5H294.246ZM304.846 298.45C306.579 298.45 307.929 298.083 308.896 297.35C309.896 296.583 310.612 295.6 311.046 294.4C311.479 293.167 311.729 291.85 311.796 290.45C311.829 289.483 311.829 288.517 311.796 287.55C311.729 286.15 311.479 284.85 311.046 283.65C310.612 282.417 309.896 281.433 308.896 280.7C307.929 279.933 306.579 279.55 304.846 279.55C303.212 279.55 301.879 279.933 300.846 280.7C299.846 281.467 299.096 282.45 298.596 283.65C298.129 284.817 297.862 286.017 297.796 287.25C297.762 287.783 297.746 288.417 297.746 289.15C297.746 289.883 297.762 290.533 297.796 291.1C297.829 292.267 298.096 293.417 298.596 294.55C299.129 295.683 299.912 296.617 300.946 297.35C301.979 298.083 303.279 298.45 304.846 298.45ZM336.887 302C336.52 302 336.237 301.9 336.037 301.7C335.837 301.467 335.737 301.183 335.737 300.85V268.15C335.737 267.817 335.837 267.55 336.037 267.35C336.237 267.117 336.52 267 336.887 267H339.537C339.87 267 340.137 267.117 340.337 267.35C340.537 267.55 340.637 267.817 340.637 268.15V297.65H357.287C357.653 297.65 357.937 297.767 358.137 298C358.337 298.2 358.437 298.483 358.437 298.85V300.85C358.437 301.183 358.337 301.467 358.137 301.7C357.937 301.9 357.653 302 357.287 302H336.887ZM373.373 302.5C370.84 302.5 368.723 302.017 367.023 301.05C365.323 300.083 364.023 298.75 363.123 297.05C362.223 295.317 361.723 293.35 361.623 291.15C361.59 290.583 361.573 289.867 361.573 289C361.573 288.1 361.59 287.383 361.623 286.85C361.723 284.617 362.223 282.65 363.123 280.95C364.057 279.25 365.373 277.917 367.073 276.95C368.773 275.983 370.873 275.5 373.373 275.5C375.873 275.5 377.973 275.983 379.673 276.95C381.373 277.917 382.673 279.25 383.573 280.95C384.507 282.65 385.023 284.617 385.123 286.85C385.157 287.383 385.173 288.1 385.173 289C385.173 289.867 385.157 290.583 385.123 291.15C385.023 293.35 384.523 295.317 383.623 297.05C382.723 298.75 381.423 300.083 379.723 301.05C378.023 302.017 375.907 302.5 373.373 302.5ZM373.373 298.65C375.44 298.65 377.09 298 378.323 296.7C379.557 295.367 380.223 293.433 380.323 290.9C380.357 290.4 380.373 289.767 380.373 289C380.373 288.233 380.357 287.6 380.323 287.1C380.223 284.567 379.557 282.65 378.323 281.35C377.09 280.017 375.44 279.35 373.373 279.35C371.307 279.35 369.64 280.017 368.373 281.35C367.14 282.65 366.49 284.567 366.423 287.1C366.39 287.6 366.373 288.233 366.373 289C366.373 289.767 366.39 290.4 366.423 290.9C366.49 293.433 367.14 295.367 368.373 296.7C369.64 298 371.307 298.65 373.373 298.65ZM400.434 302.5C398.568 302.5 396.968 302.267 395.634 301.8C394.301 301.333 393.218 300.767 392.384 300.1C391.551 299.433 390.918 298.767 390.484 298.1C390.084 297.433 389.868 296.9 389.834 296.5C389.801 296.133 389.918 295.85 390.184 295.65C390.451 295.45 390.718 295.35 390.984 295.35H393.184C393.384 295.35 393.534 295.383 393.634 295.45C393.768 295.483 393.934 295.617 394.134 295.85C394.568 296.317 395.051 296.783 395.584 297.25C396.118 297.717 396.768 298.1 397.534 298.4C398.334 298.7 399.318 298.85 400.484 298.85C402.184 298.85 403.584 298.533 404.684 297.9C405.784 297.233 406.334 296.267 406.334 295C406.334 294.167 406.101 293.5 405.634 293C405.201 292.5 404.401 292.05 403.234 291.65C402.101 291.25 400.534 290.833 398.534 290.4C396.534 289.933 394.951 289.367 393.784 288.7C392.618 288 391.784 287.183 391.284 286.25C390.784 285.283 390.534 284.2 390.534 283C390.534 281.767 390.901 280.583 391.634 279.45C392.368 278.283 393.434 277.333 394.834 276.6C396.268 275.867 398.051 275.5 400.184 275.5C401.918 275.5 403.401 275.717 404.634 276.15C405.868 276.583 406.884 277.133 407.684 277.8C408.484 278.433 409.084 279.067 409.484 279.7C409.884 280.333 410.101 280.867 410.134 281.3C410.168 281.633 410.068 281.917 409.834 282.15C409.601 282.35 409.334 282.45 409.034 282.45H406.934C406.701 282.45 406.501 282.4 406.334 282.3C406.201 282.2 406.068 282.083 405.934 281.95C405.601 281.517 405.201 281.083 404.734 280.65C404.301 280.217 403.718 279.867 402.984 279.6C402.284 279.3 401.351 279.15 400.184 279.15C398.518 279.15 397.268 279.5 396.434 280.2C395.601 280.9 395.184 281.783 395.184 282.85C395.184 283.483 395.368 284.05 395.734 284.55C396.101 285.05 396.801 285.5 397.834 285.9C398.868 286.3 400.401 286.733 402.434 287.2C404.634 287.633 406.368 288.217 407.634 288.95C408.901 289.683 409.801 290.533 410.334 291.5C410.868 292.467 411.134 293.583 411.134 294.85C411.134 296.25 410.718 297.533 409.884 298.7C409.084 299.867 407.884 300.8 406.284 301.5C404.718 302.167 402.768 302.5 400.434 302.5ZM425.923 302.5C424.056 302.5 422.456 302.267 421.123 301.8C419.789 301.333 418.706 300.767 417.873 300.1C417.039 299.433 416.406 298.767 415.973 298.1C415.573 297.433 415.356 296.9 415.323 296.5C415.289 296.133 415.406 295.85 415.673 295.65C415.939 295.45 416.206 295.35 416.473 295.35H418.673C418.873 295.35 419.023 295.383 419.123 295.45C419.256 295.483 419.423 295.617 419.623 295.85C420.056 296.317 420.539 296.783 421.073 297.25C421.606 297.717 422.256 298.1 423.023 298.4C423.823 298.7 424.806 298.85 425.973 298.85C427.673 298.85 429.073 298.533 430.173 297.9C431.273 297.233 431.823 296.267 431.823 295C431.823 294.167 431.589 293.5 431.123 293C430.689 292.5 429.889 292.05 428.723 291.65C427.589 291.25 426.023 290.833 424.023 290.4C422.023 289.933 420.439 289.367 419.273 288.7C418.106 288 417.273 287.183 416.773 286.25C416.273 285.283 416.023 284.2 416.023 283C416.023 281.767 416.389 280.583 417.123 279.45C417.856 278.283 418.923 277.333 420.323 276.6C421.756 275.867 423.539 275.5 425.673 275.5C427.406 275.5 428.889 275.717 430.123 276.15C431.356 276.583 432.373 277.133 433.173 277.8C433.973 278.433 434.573 279.067 434.973 279.7C435.373 280.333 435.589 280.867 435.623 281.3C435.656 281.633 435.556 281.917 435.323 282.15C435.089 282.35 434.823 282.45 434.523 282.45H432.423C432.189 282.45 431.989 282.4 431.823 282.3C431.689 282.2 431.556 282.083 431.423 281.95C431.089 281.517 430.689 281.083 430.223 280.65C429.789 280.217 429.206 279.867 428.473 279.6C427.773 279.3 426.839 279.15 425.673 279.15C424.006 279.15 422.756 279.5 421.923 280.2C421.089 280.9 420.673 281.783 420.673 282.85C420.673 283.483 420.856 284.05 421.223 284.55C421.589 285.05 422.289 285.5 423.323 285.9C424.356 286.3 425.889 286.733 427.923 287.2C430.123 287.633 431.856 288.217 433.123 288.95C434.389 289.683 435.289 290.533 435.823 291.5C436.356 292.467 436.623 293.583 436.623 294.85C436.623 296.25 436.206 297.533 435.373 298.7C434.573 299.867 433.373 300.8 431.773 301.5C430.206 302.167 428.256 302.5 425.923 302.5Z" fill="white"/>
<rect x="39" y="270" width="62" height="17" rx="8.5" fill="#DF6B6B"/>
<circle cx="70" cy="303" r="6" fill="#46CA93"/>
<rect x="101.432" y="435.998" width="62" height="17" rx="8.5" transform="rotate(179.36 101.432 435.998)" fill="#46CA93"/>
<circle cx="70.0651" cy="403.346" r="6" transform="rotate(179.36 70.0651 403.346)" fill="#DF6B6B"/>
<line x1="47" y1="533.5" x2="101" y2="533.5" stroke="#445FEE"/>
<line x1="47" y1="577.5" x2="101" y2="577.5" stroke="#445FEE"/>
<path d="M72.9393 568.061C73.5251 568.646 74.4749 568.646 75.0607 568.061L84.6066 558.515C85.1924 557.929 85.1924 556.979 84.6066 556.393C84.0208 555.808 83.0711 555.808 82.4853 556.393L74 564.879L65.5147 556.393C64.9289 555.808 63.9792 555.808 63.3934 556.393C62.8076 556.979 62.8076 557.929 63.3934 558.515L72.9393 568.061ZM72.5 538V567H75.5V538H72.5Z" fill="black"/>
<line x1="101" y1="687.5" x2="47" y2="687.5" stroke="#445FEE"/>
<line x1="101" y1="645.5" x2="47" y2="645.5" stroke="#445FEE"/>
<path d="M75.0607 652.939C74.4749 652.354 73.5251 652.354 72.9393 652.939L63.3934 662.485C62.8076 663.071 62.8076 664.021 63.3934 664.607C63.9792 665.192 64.9289 665.192 65.5147 664.607L74 656.121L82.4853 664.607C83.0711 665.192 84.0208 665.192 84.6066 664.607C85.1924 664.021 85.1924 663.071 84.6066 662.485L75.0607 652.939ZM75.5 683V654H72.5V683H75.5Z" fill="black"/>
</svg>
