<svg width="208" height="280" viewBox="0 0 208 280" fill="none" xmlns="http://www.w3.org/2000/svg">
<rect width="208" height="280" rx="20" fill="white"/>
<path d="M22.66 33.18C20.92 33.18 19.588 32.73 18.664 31.83C17.752 30.918 17.296 29.574 17.296 27.798V20.31H19.6V27.78C19.6 28.92 19.858 29.778 20.374 30.354C20.902 30.918 21.664 31.2 22.66 31.2C24.688 31.2 25.702 30.06 25.702 27.78V20.31H27.988V27.798C27.988 29.574 27.538 30.918 26.638 31.83C25.738 32.73 24.412 33.18 22.66 33.18ZM30.6751 33V20.31H32.4031L39.2251 29.166V20.31H41.3671V33H39.6571L32.8171 24.108V33H30.6751ZM44.1399 33V20.31H46.4439V33H44.1399ZM49.0404 29.076V27.276H54.4044V29.076H49.0404ZM57.0071 33V20.31H62.5511C63.8831 20.31 64.9151 20.604 65.6471 21.192C66.3791 21.768 66.7451 22.572 66.7451 23.604C66.7451 24.288 66.5711 24.876 66.2231 25.368C65.8751 25.86 65.3951 26.22 64.7831 26.448C65.5031 26.652 66.0611 27.012 66.4571 27.528C66.8651 28.032 67.0691 28.674 67.0691 29.454C67.0691 30.582 66.6851 31.458 65.9171 32.082C65.1611 32.694 64.1051 33 62.7491 33H57.0071ZM59.2211 25.692H62.1551C63.7271 25.692 64.5131 25.086 64.5131 23.874C64.5131 22.662 63.7271 22.056 62.1551 22.056H59.2211V25.692ZM59.2211 31.254H62.4611C64.0451 31.254 64.8371 30.618 64.8371 29.346C64.8371 28.074 64.0451 27.438 62.4611 27.438H59.2211V31.254ZM72.2839 33V22.236H67.9279V20.31H78.9439V22.236H74.5879V33H72.2839ZM85.5341 33.18C84.2141 33.18 83.0801 32.916 82.1321 32.388C81.1961 31.848 80.4761 31.092 79.9721 30.12C79.4681 29.136 79.2161 27.978 79.2161 26.646C79.2161 25.314 79.4681 24.162 79.9721 23.19C80.4761 22.218 81.1961 21.468 82.1321 20.94C83.0801 20.4 84.2141 20.13 85.5341 20.13C86.3861 20.13 87.1901 20.262 87.9461 20.526C88.7141 20.79 89.3441 21.168 89.8361 21.66L89.0801 23.496C88.5401 23.04 87.9881 22.71 87.4241 22.506C86.8601 22.29 86.2541 22.182 85.6061 22.182C84.3221 22.182 83.3441 22.572 82.6721 23.352C82.0001 24.12 81.6641 25.218 81.6641 26.646C81.6641 28.074 82.0001 29.178 82.6721 29.958C83.3441 30.738 84.3221 31.128 85.6061 31.128C86.2541 31.128 86.8601 31.026 87.4241 30.822C87.9881 30.606 88.5401 30.27 89.0801 29.814L89.8361 31.65C89.3441 32.13 88.7141 32.508 87.9461 32.784C87.1901 33.048 86.3861 33.18 85.5341 33.18Z" fill="black"/>
<path d="M149 21C149 18.2386 151.239 16 154 16H187C189.761 16 192 18.2386 192 21V33C192 35.7614 189.761 38 187 38H154C151.239 38 149 35.7614 149 33V21Z" fill="#46CA93"/>
<path d="M154.155 32V21.425H156.075V30.365H161.145V32H154.155ZM165.67 32.15C164.91 32.15 164.25 31.995 163.69 31.685C163.13 31.375 162.695 30.935 162.385 30.365C162.075 29.785 161.92 29.105 161.92 28.325C161.92 27.545 162.075 26.87 162.385 26.3C162.695 25.73 163.13 25.29 163.69 24.98C164.25 24.67 164.91 24.515 165.67 24.515C166.43 24.515 167.09 24.67 167.65 24.98C168.21 25.29 168.645 25.73 168.955 26.3C169.265 26.87 169.42 27.545 169.42 28.325C169.42 29.105 169.265 29.785 168.955 30.365C168.645 30.935 168.21 31.375 167.65 31.685C167.09 31.995 166.43 32.15 165.67 32.15ZM165.67 30.725C166.23 30.725 166.68 30.525 167.02 30.125C167.36 29.715 167.53 29.115 167.53 28.325C167.53 27.525 167.36 26.93 167.02 26.54C166.68 26.14 166.23 25.94 165.67 25.94C165.11 25.94 164.66 26.14 164.32 26.54C163.98 26.93 163.81 27.525 163.81 28.325C163.81 29.115 163.98 29.715 164.32 30.125C164.66 30.525 165.11 30.725 165.67 30.725ZM170.967 32V24.665H172.797V25.805C173.047 25.385 173.382 25.065 173.802 24.845C174.232 24.625 174.712 24.515 175.242 24.515C176.972 24.515 177.837 25.52 177.837 27.53V32H175.962V27.62C175.962 27.05 175.852 26.635 175.632 26.375C175.422 26.115 175.092 25.985 174.642 25.985C174.092 25.985 173.652 26.16 173.322 26.51C173.002 26.85 172.842 27.305 172.842 27.875V32H170.967ZM183.162 34.85C182.482 34.85 181.842 34.77 181.242 34.61C180.652 34.46 180.132 34.225 179.682 33.905L180.222 32.6C180.642 32.88 181.092 33.085 181.572 33.215C182.052 33.355 182.532 33.425 183.012 33.425C184.352 33.425 185.022 32.78 185.022 31.49V30.485C184.812 30.895 184.487 31.22 184.047 31.46C183.617 31.7 183.137 31.82 182.607 31.82C181.947 31.82 181.372 31.67 180.882 31.37C180.392 31.06 180.012 30.63 179.742 30.08C179.472 29.53 179.337 28.89 179.337 28.16C179.337 27.43 179.472 26.795 179.742 26.255C180.012 25.705 180.392 25.28 180.882 24.98C181.372 24.67 181.947 24.515 182.607 24.515C183.157 24.515 183.647 24.64 184.077 24.89C184.507 25.13 184.822 25.455 185.022 25.865V24.665H186.852V31.265C186.852 32.455 186.537 33.35 185.907 33.95C185.277 34.55 184.362 34.85 183.162 34.85ZM183.117 30.395C183.697 30.395 184.157 30.195 184.497 29.795C184.837 29.395 185.007 28.85 185.007 28.16C185.007 27.47 184.837 26.93 184.497 26.54C184.157 26.14 183.697 25.94 183.117 25.94C182.537 25.94 182.077 26.14 181.737 26.54C181.397 26.93 181.227 27.47 181.227 28.16C181.227 28.85 181.397 29.395 181.737 29.795C182.077 30.195 182.537 30.395 183.117 30.395Z" fill="white"/>
<path d="M46.2398 60.0903V66.9845H39.3884V60.9805C39.3884 60.4871 38.988 60.0869 38.4944 60.0869H36.1749V76.5908C36.1749 77.0842 36.5753 77.4844 37.0689 77.4844H39.3884V69.7863H46.2433V76.5873C46.2364 77.0807 46.6298 77.4879 47.1234 77.4948H47.1372H49.4567V60.9805C49.4567 60.4871 49.0563 60.0869 48.5627 60.0869H46.2398V60.0903ZM59.846 64.4035V72.6744C59.8529 73.4266 59.4594 74.1271 58.8105 74.5135C56.995 75.5625 55.1139 74.2478 55.1139 72.5226V65.2972C55.1139 64.8037 54.7135 64.4035 54.2199 64.4035H51.9004V72.8193C51.9073 75.5314 54.1026 77.726 56.8155 77.7398H58.134C60.8504 77.7329 63.0526 75.5314 63.0595 72.8159V65.2972C63.0595 64.8037 62.6591 64.4035 62.1655 64.4035H59.846Z" fill="#1B2143"/>
<path d="M94.9379 77.4949H97.2574V65.7769C97.2574 65.2834 96.857 64.8832 96.3634 64.8832H94.044V76.5943C94.0405 77.0877 94.4374 77.4914 94.931 77.4949H94.9379Z" fill="#2CA6E0"/>
<path d="M97.3063 62.5394C97.685 61.6256 97.2509 60.578 96.3368 60.1995C95.4228 59.821 94.3748 60.2549 93.9962 61.1687C93.6175 62.0825 94.0516 63.1301 94.9657 63.5086C95.8798 63.8871 96.9277 63.4532 97.3063 62.5394Z" fill="#2CA6E0"/>
<path d="M71.3496 64.3969C67.9843 64.3969 65.2299 66.8019 65.2299 70.1661V71.9846C65.2299 75.3488 67.9843 77.7401 71.3496 77.7401C74.715 77.7401 77.4693 75.3488 77.4693 71.9846V70.1661C77.4728 66.8019 74.7184 64.3969 71.3496 64.3969ZM74.2421 72.202C74.2421 73.7926 72.9408 74.852 71.3462 74.852C69.7515 74.852 68.4537 73.7926 68.4537 72.202V69.9315C68.4537 68.3408 69.755 67.2815 71.3462 67.2815C72.9374 67.2815 74.2421 68.3408 74.2421 69.9315V72.202Z" fill="#1B2143"/>
<path d="M85.7601 64.3968C84.7522 64.3899 83.7581 64.6176 82.8504 65.0558V60.998C82.8504 60.5046 82.45 60.1043 81.9564 60.1043H79.6369V71.9845C79.6369 75.3488 82.3913 77.74 85.7566 77.74C89.1219 77.74 91.8763 75.3488 91.8763 71.9845V70.1661C91.8798 66.8018 89.1323 64.3968 85.7601 64.3968ZM88.656 72.2019C88.656 73.7926 87.3547 74.8519 85.7601 74.8519C84.1689 74.8519 82.8676 73.7926 82.8676 72.2019V69.9314C82.8676 68.3407 84.1689 67.2814 85.7601 67.2814C87.3513 67.2814 88.656 68.3407 88.656 69.9314V72.2019Z" fill="#2CA6E0"/>
<path d="M26.4617 61.5155C26.4617 58.0098 24.7532 54.9906 23.4519 54.0106C23.4519 54.0106 23.3518 53.9554 23.3622 54.0969C23.2552 60.8703 19.7932 62.7059 17.8914 65.1765C13.501 70.8837 17.5808 77.1395 21.7434 78.2954C24.0629 78.9441 21.2049 77.1499 20.8356 73.3646C20.3835 68.7961 26.4617 65.3042 26.4617 61.5155Z" fill="#1B2143"/>
<path d="M28.4571 63.8239C28.4295 63.8066 28.3915 63.7928 28.3674 63.8377C28.2949 64.69 27.4251 66.5118 26.3206 68.1888C22.5756 73.8684 24.7087 76.6081 25.9098 78.0815C26.6071 78.9338 25.9098 78.0815 27.6494 77.2085C29.7998 75.9042 31.1942 73.6475 31.4013 71.1425C31.743 67.1053 29.32 64.5623 28.4571 63.8239Z" fill="#2CA6E0"/>
<path d="M192 135.467C182.458 135.467 174.1 141.388 171.855 156.783C169.784 170.993 167.084 180.967 154.361 180.967C144.349 180.967 144.289 170.401 132.627 170.401C120.964 170.401 125.667 161.769 114.072 161.769C104.314 161.769 103.761 149.02 93.4614 149.02C84.7877 149.02 87.1612 154.984 77.126 154.984C68.4257 154.984 66.2629 146.852 58.6828 146.852C47.2637 146.852 45.4121 161.769 34.5367 161.769C23.6613 161.769 26.0723 172.384 16 172.384" stroke="#46CA93" stroke-width="3"/>
<path d="M22.34 258.18C21.2333 258.18 20.22 258.04 19.3 257.76C18.38 257.467 17.6 257.06 16.96 256.54L17.62 254.9C18.2867 255.407 19 255.787 19.76 256.04C20.52 256.293 21.38 256.42 22.34 256.42C23.4733 256.42 24.3067 256.22 24.84 255.82C25.3867 255.407 25.66 254.873 25.66 254.22C25.66 253.687 25.4667 253.267 25.08 252.96C24.6933 252.64 24.0467 252.387 23.14 252.2L21 251.76C19.7333 251.493 18.7867 251.053 18.16 250.44C17.5467 249.827 17.24 249 17.24 247.96C17.24 247.12 17.46 246.38 17.9 245.74C18.3533 245.1 18.98 244.607 19.78 244.26C20.58 243.9 21.5 243.72 22.54 243.72C23.5 243.72 24.3867 243.867 25.2 244.16C26.0267 244.44 26.7267 244.853 27.3 245.4L26.62 246.98C25.4867 245.98 24.12 245.48 22.52 245.48C21.5333 245.48 20.7467 245.7 20.16 246.14C19.5867 246.58 19.3 247.167 19.3 247.9C19.3 248.46 19.48 248.907 19.84 249.24C20.2 249.573 20.8 249.827 21.64 250L23.76 250.44C25.0933 250.72 26.0867 251.153 26.74 251.74C27.3933 252.313 27.72 253.093 27.72 254.08C27.72 254.907 27.5 255.627 27.06 256.24C26.62 256.853 26 257.333 25.2 257.68C24.4 258.013 23.4467 258.18 22.34 258.18ZM29.8614 261.6V248.24H31.8414V249.9C32.1214 249.34 32.5481 248.893 33.1214 248.56C33.6947 248.227 34.3547 248.06 35.1014 248.06C35.9681 248.06 36.7214 248.267 37.3614 248.68C38.0147 249.093 38.5147 249.68 38.8614 250.44C39.2214 251.187 39.4014 252.08 39.4014 253.12C39.4014 254.16 39.2214 255.06 38.8614 255.82C38.5147 256.58 38.0147 257.167 37.3614 257.58C36.7214 257.98 35.9681 258.18 35.1014 258.18C34.3814 258.18 33.7347 258.027 33.1614 257.72C32.6014 257.4 32.1747 256.967 31.8814 256.42V261.6H29.8614ZM34.6014 256.62C35.4414 256.62 36.1081 256.32 36.6014 255.72C37.1081 255.12 37.3614 254.253 37.3614 253.12C37.3614 251.987 37.1081 251.127 36.6014 250.54C36.1081 249.94 35.4414 249.64 34.6014 249.64C33.7614 249.64 33.0881 249.94 32.5814 250.54C32.0881 251.127 31.8414 251.987 31.8414 253.12C31.8414 254.253 32.0881 255.12 32.5814 255.72C33.0881 256.32 33.7614 256.62 34.6014 256.62ZM45.9178 258.18C44.9311 258.18 44.0778 257.973 43.3578 257.56C42.6378 257.147 42.0778 256.567 41.6778 255.82C41.2911 255.06 41.0978 254.16 41.0978 253.12C41.0978 252.08 41.2911 251.187 41.6778 250.44C42.0778 249.68 42.6378 249.093 43.3578 248.68C44.0778 248.267 44.9311 248.06 45.9178 248.06C46.8778 248.06 47.7178 248.267 48.4378 248.68C49.1578 249.093 49.7178 249.68 50.1178 250.44C50.5178 251.187 50.7178 252.08 50.7178 253.12C50.7178 254.16 50.5178 255.06 50.1178 255.82C49.7178 256.567 49.1578 257.147 48.4378 257.56C47.7178 257.973 46.8778 258.18 45.9178 258.18ZM45.9178 256.62C46.7445 256.62 47.4111 256.32 47.9178 255.72C48.4245 255.12 48.6778 254.253 48.6778 253.12C48.6778 251.987 48.4245 251.127 47.9178 250.54C47.4111 249.94 46.7445 249.64 45.9178 249.64C45.0778 249.64 44.4045 249.94 43.8978 250.54C43.3911 251.127 43.1378 251.987 43.1378 253.12C43.1378 254.253 43.3911 255.12 43.8978 255.72C44.4045 256.32 45.0778 256.62 45.9178 256.62ZM57.0488 258.18C55.8221 258.18 54.9088 257.867 54.3088 257.24C53.7088 256.613 53.4088 255.707 53.4088 254.52V249.8H51.5088V248.24H53.4088V245.3H55.4288V248.24H58.4488V249.8H55.4288V254.36C55.4288 255.067 55.5754 255.6 55.8688 255.96C56.1754 256.32 56.6688 256.5 57.3487 256.5C57.5621 256.5 57.7688 256.48 57.9688 256.44C58.1688 256.387 58.3688 256.327 58.5688 256.26L58.8888 257.78C58.6888 257.9 58.4088 257.993 58.0488 258.06C57.7021 258.14 57.3688 258.18 57.0488 258.18Z" fill="black"/>
<path d="M142.08 257.2V253.14H138.12V251.38H142.08V247.44H143.92V251.38H147.88V253.14H143.92V257.2H142.08ZM151.172 258V255.88H154.352V246.82L151.892 248.3L150.892 246.42L155.092 243.9H156.912V255.88H159.892V258H151.172ZM167.104 258.2C166.184 258.2 165.291 258.06 164.424 257.78C163.558 257.487 162.851 257.093 162.304 256.6L163.144 254.64C164.358 255.573 165.664 256.04 167.064 256.04C167.904 256.04 168.558 255.827 169.024 255.4C169.504 254.96 169.744 254.373 169.744 253.64C169.744 252.893 169.518 252.293 169.064 251.84C168.611 251.373 167.991 251.14 167.204 251.14C166.084 251.14 165.158 251.587 164.424 252.48H162.704V243.9H171.364V246.02H165.204V249.84C165.911 249.307 166.778 249.04 167.804 249.04C168.698 249.04 169.471 249.233 170.124 249.62C170.791 249.993 171.304 250.52 171.664 251.2C172.038 251.867 172.224 252.647 172.224 253.54C172.224 254.46 172.018 255.273 171.604 255.98C171.191 256.673 170.598 257.22 169.824 257.62C169.064 258.007 168.158 258.2 167.104 258.2ZM179.137 258.56L177.497 257.6L185.737 243.34L187.357 244.3L179.137 258.56ZM177.417 252.32C176.297 252.32 175.423 251.933 174.797 251.16C174.17 250.387 173.857 249.333 173.857 248C173.857 246.667 174.17 245.62 174.797 244.86C175.423 244.087 176.297 243.7 177.417 243.7C178.537 243.7 179.41 244.087 180.037 244.86C180.663 245.62 180.977 246.667 180.977 248C180.977 249.333 180.663 250.387 180.037 251.16C179.41 251.933 178.537 252.32 177.417 252.32ZM177.417 250.64C177.897 250.64 178.27 250.427 178.537 250C178.803 249.56 178.937 248.893 178.937 248C178.937 247.107 178.803 246.447 178.537 246.02C178.27 245.593 177.897 245.38 177.417 245.38C176.937 245.38 176.563 245.593 176.297 246.02C176.03 246.433 175.897 247.093 175.897 248C175.897 248.907 176.03 249.573 176.297 250C176.563 250.427 176.937 250.64 177.417 250.64ZM187.457 258.2C186.337 258.2 185.463 257.813 184.837 257.04C184.21 256.267 183.897 255.213 183.897 253.88C183.897 252.547 184.21 251.5 184.837 250.74C185.463 249.967 186.337 249.58 187.457 249.58C188.577 249.58 189.45 249.967 190.077 250.74C190.703 251.5 191.017 252.547 191.017 253.88C191.017 255.213 190.703 256.267 190.077 257.04C189.45 257.813 188.577 258.2 187.457 258.2ZM187.457 256.52C187.937 256.52 188.31 256.307 188.577 255.88C188.843 255.44 188.977 254.773 188.977 253.88C188.977 252.987 188.843 252.327 188.577 251.9C188.31 251.473 187.937 251.26 187.457 251.26C186.977 251.26 186.603 251.473 186.337 251.9C186.07 252.313 185.937 252.973 185.937 253.88C185.937 254.787 186.07 255.453 186.337 255.88C186.603 256.307 186.977 256.52 187.457 256.52Z" fill="#46CA93"/>
<rect x="1" y="1" width="206" height="278" rx="19" stroke="#95C9EF" stroke-opacity="0.45" stroke-width="2"/>
</svg>
