<svg width="547" height="384" viewBox="0 0 547 384" fill="none" xmlns="http://www.w3.org/2000/svg">
<g clip-path="url(#clip0_19_13)">
<path d="M57.2107 368.019C49.2126 371.439 46.9228 375.173 51.3051 380.111C52.2892 381.219 53.5096 381.991 54.8558 382.503C61.2394 384.934 63.8739 376.308 59.3425 371.197" stroke="black"/>
</g>
<g clip-path="url(#clip1_19_13)">
<path d="M44.4663 184.754C39.176 183.852 29.6809 180.117 25.5947 178.362L45.5383 173.142L21.8824 168.202L39.7821 159.004L17.3085 152.452L39.0257 144.812L15.5852 141.27" stroke="black"/>
</g>
<rect x="152.451" y="71.088" width="267.422" height="245.484" rx="34.5" transform="rotate(-0.122304 152.451 71.088)" fill="white" fill-opacity="0.93" stroke="black"/>
<rect x="131.501" y="51.0719" width="267.422" height="245.484" rx="34.5" transform="rotate(-0.122304 131.501 51.0719)" stroke="#215FFF"/>
<rect x="205" y="160" width="27" height="61" fill="#3840FF"/>
<path d="M272 160H300L278 221H251L272 160Z" fill="#3840FF"/>
<circle cx="251" cy="170" r="10" fill="#3840FF"/>
<rect x="182" y="160" width="30" height="27" fill="#5135FB"/>
<path d="M183.45 265.017V263.455H194.359V265.017H189.785V278H188.024V265.017H183.45ZM195.718 278V267.091H197.337V268.739H197.451C197.649 268.199 198.009 267.761 198.53 267.425C199.051 267.089 199.638 266.92 200.291 266.92C200.415 266.92 200.568 266.923 200.753 266.928C200.938 266.932 201.077 266.939 201.172 266.949V268.653C201.115 268.639 200.985 268.618 200.781 268.59C200.583 268.556 200.372 268.54 200.149 268.54C199.619 268.54 199.146 268.651 198.729 268.874C198.317 269.091 197.99 269.394 197.749 269.783C197.512 270.166 197.394 270.604 197.394 271.097V278H195.718ZM206.369 278.256C205.678 278.256 205.051 278.126 204.487 277.865C203.924 277.6 203.476 277.219 203.145 276.722C202.813 276.22 202.648 275.614 202.648 274.903C202.648 274.278 202.771 273.772 203.017 273.384C203.263 272.991 203.592 272.683 204.004 272.46C204.416 272.238 204.871 272.072 205.368 271.963C205.87 271.849 206.374 271.76 206.881 271.693C207.543 271.608 208.081 271.544 208.493 271.501C208.909 271.454 209.212 271.376 209.402 271.267C209.596 271.158 209.693 270.969 209.693 270.699V270.642C209.693 269.941 209.501 269.397 209.118 269.009C208.739 268.62 208.164 268.426 207.392 268.426C206.592 268.426 205.964 268.601 205.51 268.952C205.055 269.302 204.736 269.676 204.551 270.074L202.96 269.506C203.244 268.843 203.623 268.327 204.096 267.957C204.575 267.583 205.096 267.323 205.659 267.176C206.227 267.025 206.786 266.949 207.335 266.949C207.685 266.949 208.088 266.992 208.542 267.077C209.002 267.157 209.444 267.325 209.871 267.581C210.301 267.837 210.659 268.223 210.943 268.739C211.227 269.255 211.369 269.946 211.369 270.813V278H209.693V276.523H209.608C209.494 276.76 209.305 277.013 209.04 277.283C208.774 277.553 208.422 277.782 207.981 277.972C207.541 278.161 207.004 278.256 206.369 278.256ZM206.625 276.75C207.288 276.75 207.846 276.62 208.301 276.359C208.76 276.099 209.106 275.763 209.338 275.351C209.575 274.939 209.693 274.506 209.693 274.051V272.517C209.622 272.602 209.466 272.68 209.224 272.751C208.988 272.818 208.713 272.877 208.4 272.929C208.093 272.976 207.792 273.019 207.498 273.057C207.21 273.09 206.975 273.118 206.795 273.142C206.36 273.199 205.953 273.291 205.574 273.419C205.2 273.542 204.897 273.729 204.665 273.98C204.437 274.226 204.324 274.563 204.324 274.989C204.324 275.571 204.539 276.011 204.97 276.31C205.406 276.603 205.957 276.75 206.625 276.75ZM218.548 278.227C217.639 278.227 216.836 277.998 216.14 277.538C215.444 277.074 214.9 276.421 214.507 275.578C214.114 274.731 213.917 273.729 213.917 272.574C213.917 271.428 214.114 270.434 214.507 269.591C214.9 268.748 215.446 268.097 216.147 267.638C216.848 267.179 217.658 266.949 218.576 266.949C219.286 266.949 219.848 267.067 220.259 267.304C220.676 267.536 220.993 267.801 221.211 268.099C221.434 268.393 221.607 268.634 221.73 268.824H221.872V263.455H223.548V278H221.929V276.324H221.73C221.607 276.523 221.431 276.774 221.204 277.077C220.977 277.375 220.652 277.643 220.231 277.879C219.81 278.111 219.249 278.227 218.548 278.227ZM218.775 276.722C219.447 276.722 220.016 276.546 220.48 276.196C220.944 275.841 221.296 275.351 221.538 274.726C221.779 274.096 221.9 273.369 221.9 272.545C221.9 271.731 221.782 271.018 221.545 270.408C221.308 269.792 220.958 269.314 220.494 268.973C220.03 268.627 219.457 268.455 218.775 268.455C218.065 268.455 217.473 268.637 217 269.001C216.531 269.361 216.178 269.851 215.941 270.472C215.709 271.087 215.593 271.778 215.593 272.545C215.593 273.322 215.712 274.027 215.948 274.662C216.19 275.292 216.545 275.794 217.014 276.168C217.487 276.537 218.074 276.722 218.775 276.722ZM226.85 278V267.091H228.527V278H226.85ZM227.703 265.273C227.376 265.273 227.094 265.161 226.857 264.939C226.625 264.716 226.509 264.449 226.509 264.136C226.509 263.824 226.625 263.556 226.857 263.334C227.094 263.111 227.376 263 227.703 263C228.029 263 228.309 263.111 228.541 263.334C228.777 263.556 228.896 263.824 228.896 264.136C228.896 264.449 228.777 264.716 228.541 264.939C228.309 265.161 228.029 265.273 227.703 265.273ZM233.273 271.438V278H231.596V267.091H233.216V268.795H233.358C233.614 268.242 234.002 267.796 234.523 267.46C235.043 267.119 235.716 266.949 236.54 266.949C237.278 266.949 237.925 267.1 238.479 267.403C239.033 267.702 239.463 268.156 239.771 268.767C240.079 269.373 240.233 270.14 240.233 271.068V278H238.557V271.182C238.557 270.325 238.334 269.657 237.889 269.179C237.444 268.696 236.833 268.455 236.057 268.455C235.522 268.455 235.043 268.571 234.622 268.803C234.205 269.035 233.876 269.373 233.635 269.818C233.393 270.263 233.273 270.803 233.273 271.438ZM247.699 282.318C246.889 282.318 246.193 282.214 245.611 282.006C245.029 281.802 244.543 281.532 244.155 281.196C243.772 280.865 243.466 280.51 243.239 280.131L244.574 279.193C244.726 279.392 244.917 279.619 245.149 279.875C245.381 280.135 245.699 280.36 246.101 280.55C246.508 280.744 247.041 280.841 247.699 280.841C248.58 280.841 249.307 280.628 249.879 280.202C250.452 279.776 250.739 279.108 250.739 278.199V275.983H250.597C250.474 276.182 250.299 276.428 250.071 276.722C249.849 277.01 249.527 277.268 249.105 277.496C248.689 277.718 248.125 277.83 247.415 277.83C246.534 277.83 245.744 277.621 245.043 277.205C244.347 276.788 243.795 276.182 243.388 275.386C242.986 274.591 242.784 273.625 242.784 272.489C242.784 271.371 242.981 270.398 243.374 269.57C243.767 268.736 244.314 268.092 245.014 267.638C245.715 267.179 246.525 266.949 247.443 266.949C248.154 266.949 248.717 267.067 249.134 267.304C249.555 267.536 249.877 267.801 250.1 268.099C250.327 268.393 250.502 268.634 250.625 268.824H250.796V267.091H252.415V278.313C252.415 279.25 252.202 280.012 251.776 280.599C251.354 281.191 250.786 281.625 250.071 281.899C249.361 282.179 248.57 282.318 247.699 282.318ZM247.642 276.324C248.315 276.324 248.883 276.17 249.347 275.862C249.811 275.554 250.164 275.112 250.405 274.534C250.647 273.956 250.767 273.265 250.767 272.46C250.767 271.674 250.649 270.981 250.412 270.379C250.175 269.778 249.825 269.307 249.361 268.966C248.897 268.625 248.324 268.455 247.642 268.455C246.932 268.455 246.34 268.634 245.867 268.994C245.398 269.354 245.045 269.837 244.808 270.443C244.576 271.049 244.46 271.722 244.46 272.46C244.46 273.218 244.579 273.888 244.816 274.47C245.057 275.048 245.412 275.502 245.881 275.834C246.354 276.161 246.942 276.324 247.642 276.324ZM270.029 267.091L265.995 278H264.29L260.256 267.091H262.074L265.085 275.784H265.199L268.21 267.091H270.029ZM272.241 278V267.091H273.917V278H272.241ZM273.093 265.273C272.767 265.273 272.485 265.161 272.248 264.939C272.016 264.716 271.9 264.449 271.9 264.136C271.9 263.824 272.016 263.556 272.248 263.334C272.485 263.111 272.767 263 273.093 263C273.42 263 273.699 263.111 273.931 263.334C274.168 263.556 274.286 263.824 274.286 264.136C274.286 264.449 274.168 264.716 273.931 264.939C273.699 265.161 273.42 265.273 273.093 265.273ZM281.561 278.227C280.51 278.227 279.603 277.995 278.841 277.531C278.083 277.063 277.498 276.409 277.087 275.571C276.679 274.728 276.476 273.748 276.476 272.631C276.476 271.513 276.679 270.528 277.087 269.676C277.498 268.819 278.071 268.152 278.805 267.673C279.544 267.19 280.406 266.949 281.391 266.949C281.959 266.949 282.52 267.044 283.074 267.233C283.628 267.422 284.132 267.73 284.587 268.156C285.041 268.578 285.403 269.136 285.673 269.832C285.943 270.528 286.078 271.385 286.078 272.403V273.114H277.669V271.665H284.373C284.373 271.049 284.25 270.5 284.004 270.017C283.763 269.534 283.417 269.153 282.967 268.874C282.522 268.594 281.997 268.455 281.391 268.455C280.723 268.455 280.145 268.62 279.658 268.952C279.175 269.278 278.803 269.705 278.542 270.23C278.282 270.756 278.152 271.319 278.152 271.92V272.886C278.152 273.71 278.294 274.409 278.578 274.982C278.867 275.55 279.267 275.983 279.778 276.281C280.29 276.575 280.884 276.722 281.561 276.722C282.001 276.722 282.399 276.66 282.754 276.537C283.114 276.409 283.424 276.22 283.685 275.969C283.945 275.713 284.146 275.396 284.288 275.017L285.908 275.472C285.737 276.021 285.451 276.504 285.048 276.92C284.646 277.332 284.149 277.654 283.557 277.886C282.965 278.114 282.3 278.227 281.561 278.227ZM291.099 278L287.775 267.091H289.537L291.895 275.443H292.008L294.338 267.091H296.128L298.429 275.415H298.542L300.9 267.091H302.662L299.338 278H297.69L295.304 269.619H295.133L292.747 278H291.099ZM318.23 269.534L316.724 269.96C316.63 269.709 316.49 269.465 316.305 269.229C316.125 268.987 315.879 268.788 315.567 268.632C315.254 268.476 314.854 268.398 314.366 268.398C313.699 268.398 313.142 268.552 312.697 268.859C312.257 269.162 312.037 269.548 312.037 270.017C312.037 270.434 312.188 270.763 312.491 271.004C312.794 271.246 313.268 271.447 313.912 271.608L315.531 272.006C316.507 272.242 317.233 272.605 317.712 273.092C318.19 273.575 318.429 274.198 318.429 274.96C318.429 275.585 318.249 276.144 317.889 276.636C317.534 277.129 317.037 277.517 316.398 277.801C315.758 278.085 315.015 278.227 314.167 278.227C313.055 278.227 312.134 277.986 311.405 277.503C310.676 277.02 310.214 276.314 310.02 275.386L311.611 274.989C311.762 275.576 312.049 276.016 312.47 276.31C312.896 276.603 313.453 276.75 314.139 276.75C314.92 276.75 315.541 276.584 316 276.253C316.464 275.917 316.696 275.514 316.696 275.045C316.696 274.667 316.563 274.349 316.298 274.094C316.033 273.833 315.626 273.639 315.077 273.511L313.258 273.085C312.259 272.849 311.525 272.482 311.057 271.984C310.593 271.483 310.361 270.855 310.361 270.102C310.361 269.487 310.533 268.942 310.879 268.469C311.23 267.995 311.705 267.624 312.307 267.354C312.913 267.084 313.599 266.949 314.366 266.949C315.446 266.949 316.293 267.186 316.909 267.659C317.529 268.133 317.97 268.758 318.23 269.534ZM320.952 278V267.091H322.628V278H320.952ZM321.804 265.273C321.478 265.273 321.196 265.161 320.959 264.939C320.727 264.716 320.611 264.449 320.611 264.136C320.611 263.824 320.727 263.556 320.959 263.334C321.196 263.111 321.478 263 321.804 263C322.131 263 322.41 263.111 322.642 263.334C322.879 263.556 322.997 263.824 322.997 264.136C322.997 264.449 322.879 264.716 322.642 264.939C322.41 265.161 322.131 265.273 321.804 265.273ZM330.101 282.318C329.292 282.318 328.596 282.214 328.013 282.006C327.431 281.802 326.946 281.532 326.557 281.196C326.174 280.865 325.868 280.51 325.641 280.131L326.976 279.193C327.128 279.392 327.32 279.619 327.552 279.875C327.784 280.135 328.101 280.36 328.503 280.55C328.911 280.744 329.443 280.841 330.101 280.841C330.982 280.841 331.709 280.628 332.282 280.202C332.855 279.776 333.141 279.108 333.141 278.199V275.983H332.999C332.876 276.182 332.701 276.428 332.474 276.722C332.251 277.01 331.929 277.268 331.508 277.496C331.091 277.718 330.528 277.83 329.817 277.83C328.937 277.83 328.146 277.621 327.445 277.205C326.749 276.788 326.198 276.182 325.79 275.386C325.388 274.591 325.187 273.625 325.187 272.489C325.187 271.371 325.383 270.398 325.776 269.57C326.169 268.736 326.716 268.092 327.417 267.638C328.118 267.179 328.927 266.949 329.846 266.949C330.556 266.949 331.119 267.067 331.536 267.304C331.958 267.536 332.279 267.801 332.502 268.099C332.729 268.393 332.904 268.634 333.028 268.824H333.198V267.091H334.817V278.313C334.817 279.25 334.604 280.012 334.178 280.599C333.757 281.191 333.189 281.625 332.474 281.899C331.763 282.179 330.973 282.318 330.101 282.318ZM330.045 276.324C330.717 276.324 331.285 276.17 331.749 275.862C332.213 275.554 332.566 275.112 332.807 274.534C333.049 273.956 333.17 273.265 333.17 272.46C333.17 271.674 333.051 270.981 332.815 270.379C332.578 269.778 332.227 269.307 331.763 268.966C331.299 268.625 330.726 268.455 330.045 268.455C329.334 268.455 328.743 268.634 328.269 268.994C327.8 269.354 327.448 269.837 327.211 270.443C326.979 271.049 326.863 271.722 326.863 272.46C326.863 273.218 326.981 273.888 327.218 274.47C327.459 275.048 327.815 275.502 328.283 275.834C328.757 276.161 329.344 276.324 330.045 276.324ZM339.562 271.438V278H337.886V267.091H339.505V268.795H339.647C339.903 268.242 340.291 267.796 340.812 267.46C341.333 267.119 342.005 266.949 342.829 266.949C343.567 266.949 344.214 267.1 344.768 267.403C345.322 267.702 345.752 268.156 346.06 268.767C346.368 269.373 346.522 270.14 346.522 271.068V278H344.846V271.182C344.846 270.325 344.623 269.657 344.178 269.179C343.733 268.696 343.122 268.455 342.346 268.455C341.811 268.455 341.333 268.571 340.911 268.803C340.494 269.035 340.165 269.373 339.924 269.818C339.682 270.263 339.562 270.803 339.562 271.438ZM352.795 278.256C352.104 278.256 351.476 278.126 350.913 277.865C350.349 277.6 349.902 277.219 349.571 276.722C349.239 276.22 349.073 275.614 349.073 274.903C349.073 274.278 349.196 273.772 349.443 273.384C349.689 272.991 350.018 272.683 350.43 272.46C350.842 272.238 351.296 272.072 351.794 271.963C352.295 271.849 352.8 271.76 353.306 271.693C353.969 271.608 354.507 271.544 354.919 271.501C355.335 271.454 355.638 271.376 355.828 271.267C356.022 271.158 356.119 270.969 356.119 270.699V270.642C356.119 269.941 355.927 269.397 355.544 269.009C355.165 268.62 354.589 268.426 353.818 268.426C353.018 268.426 352.39 268.601 351.936 268.952C351.481 269.302 351.161 269.676 350.977 270.074L349.386 269.506C349.67 268.843 350.049 268.327 350.522 267.957C351 267.583 351.521 267.323 352.085 267.176C352.653 267.025 353.212 266.949 353.761 266.949C354.111 266.949 354.514 266.992 354.968 267.077C355.428 267.157 355.87 267.325 356.296 267.581C356.727 267.837 357.085 268.223 357.369 268.739C357.653 269.255 357.795 269.946 357.795 270.813V278H356.119V276.523H356.034C355.92 276.76 355.731 277.013 355.465 277.283C355.2 277.553 354.848 277.782 354.407 277.972C353.967 278.161 353.429 278.256 352.795 278.256ZM353.051 276.75C353.714 276.75 354.272 276.62 354.727 276.359C355.186 276.099 355.532 275.763 355.764 275.351C356 274.939 356.119 274.506 356.119 274.051V272.517C356.048 272.602 355.892 272.68 355.65 272.751C355.413 272.818 355.139 272.877 354.826 272.929C354.518 272.976 354.218 273.019 353.924 273.057C353.635 273.09 353.401 273.118 353.221 273.142C352.786 273.199 352.378 273.291 352 273.419C351.625 273.542 351.322 273.729 351.09 273.98C350.863 274.226 350.75 274.563 350.75 274.989C350.75 275.571 350.965 276.011 351.396 276.31C351.831 276.603 352.383 276.75 353.051 276.75ZM362.53 263.455V278H360.854V263.455H362.53ZM373.328 269.534L371.822 269.96C371.727 269.709 371.588 269.465 371.403 269.229C371.223 268.987 370.977 268.788 370.664 268.632C370.352 268.476 369.952 268.398 369.464 268.398C368.796 268.398 368.24 268.552 367.795 268.859C367.355 269.162 367.134 269.548 367.134 270.017C367.134 270.434 367.286 270.763 367.589 271.004C367.892 271.246 368.366 271.447 369.009 271.608L370.629 272.006C371.604 272.242 372.331 272.605 372.809 273.092C373.287 273.575 373.527 274.198 373.527 274.96C373.527 275.585 373.347 276.144 372.987 276.636C372.632 277.129 372.134 277.517 371.495 277.801C370.856 278.085 370.113 278.227 369.265 278.227C368.152 278.227 367.232 277.986 366.502 277.503C365.773 277.02 365.312 276.314 365.117 275.386L366.708 274.989C366.86 275.576 367.146 276.016 367.568 276.31C367.994 276.603 368.55 276.75 369.237 276.75C370.018 276.75 370.638 276.584 371.098 276.253C371.562 275.917 371.794 275.514 371.794 275.045C371.794 274.667 371.661 274.349 371.396 274.094C371.131 273.833 370.723 273.639 370.174 273.511L368.356 273.085C367.357 272.849 366.623 272.482 366.154 271.984C365.69 271.483 365.458 270.855 365.458 270.102C365.458 269.487 365.631 268.942 365.977 268.469C366.327 267.995 366.803 267.624 367.404 267.354C368.01 267.084 368.697 266.949 369.464 266.949C370.544 266.949 371.391 267.186 372.007 267.659C372.627 268.133 373.067 268.758 373.328 269.534Z" fill="black"/>
<path d="M472.443 43L474.601 54.0158C475.854 60.411 482.716 63.9927 488.679 61.3642V61.3642C494.436 58.8267 501.092 62.0741 502.636 68.1733L502.851 69.0245C504.439 75.3013 511.114 78.8213 517.191 76.5874L518.258 76.1949C524.793 73.7929 531.987 77.4713 533.866 84.1748L537.285 96.3728" stroke="#385CDC"/>
<g clip-path="url(#clip2_19_13)">
<path d="M109.142 0.971308C107.527 9.51896 109.352 13.5004 115.894 12.6117C117.363 12.4121 118.683 11.8282 119.859 10.9959C125.434 7.0486 119.738 0.0555809 112.969 0.971314" stroke="#5F6FFF"/>
</g>
<path d="M503.306 336.166V336.166C505.517 329.962 511.908 326.284 518.383 327.489L524.809 328.685C526.23 328.949 527.498 329.741 528.36 330.901L530.124 333.277C533.503 337.826 528.133 343.703 523.298 340.747V340.747C522.975 340.55 522.675 340.318 522.403 340.055L519.605 337.348C514.834 332.734 507.194 338.074 509.888 344.14V344.14C512.333 349.643 506.098 354.942 501.061 351.642L496.123 348.408" stroke="black"/>
<defs>
<clipPath id="clip0_19_13">
<rect width="15" height="17" fill="white" transform="translate(47.9998 367)"/>
</clipPath>
<clipPath id="clip1_19_13">
<rect width="37" height="51" fill="white" transform="translate(0 160.843) rotate(-53.7617)"/>
</clipPath>
<clipPath id="clip2_19_13">
<rect width="15" height="14" fill="white" transform="translate(108)"/>
</clipPath>
</defs>
</svg>
