<svg width="65" height="109" viewBox="0 0 65 109" fill="none" xmlns="http://www.w3.org/2000/svg">
<path d="M3.19602 32.9553V21.5455H56.9531V32.9553H36.9141V87H23.2351V32.9553H3.19602Z" fill="white"/>
<path d="M3.19602 32.9553H2.19602V33.9553H3.19602V32.9553ZM3.19602 21.5455V20.5455H2.19602V21.5455H3.19602ZM56.9531 21.5455H57.9531V20.5455H56.9531V21.5455ZM56.9531 32.9553V33.9553H57.9531V32.9553H56.9531ZM36.9141 32.9553V31.9553H35.9141V32.9553H36.9141ZM36.9141 87V88H37.9141V87H36.9141ZM23.2351 87H22.2351V88H23.2351V87ZM23.2351 32.9553H24.2351V31.9553H23.2351V32.9553ZM4.19602 32.9553V21.5455H2.19602V32.9553H4.19602ZM3.19602 22.5455H56.9531V20.5455H3.19602V22.5455ZM55.9531 21.5455V32.9553H57.9531V21.5455H55.9531ZM56.9531 31.9553H36.9141V33.9553H56.9531V31.9553ZM35.9141 32.9553V87H37.9141V32.9553H35.9141ZM36.9141 86H23.2351V88H36.9141V86ZM24.2351 87V32.9553H22.2351V87H24.2351ZM23.2351 31.9553H3.19602V33.9553H23.2351V31.9553Z" fill="black"/>
<path d="M7.19602 32.9553V21.5455H60.9531V32.9553H40.9141V87H27.2351V32.9553H7.19602Z" fill="#31E579"/>
<path d="M7.19602 32.9553H6.19602V33.9553H7.19602V32.9553ZM7.19602 21.5455V20.5455H6.19602V21.5455H7.19602ZM60.9531 21.5455H61.9531V20.5455H60.9531V21.5455ZM60.9531 32.9553V33.9553H61.9531V32.9553H60.9531ZM40.9141 32.9553V31.9553H39.9141V32.9553H40.9141ZM40.9141 87V88H41.9141V87H40.9141ZM27.2351 87H26.2351V88H27.2351V87ZM27.2351 32.9553H28.2351V31.9553H27.2351V32.9553ZM8.19602 32.9553V21.5455H6.19602V32.9553H8.19602ZM7.19602 22.5455H60.9531V20.5455H7.19602V22.5455ZM59.9531 21.5455V32.9553H61.9531V21.5455H59.9531ZM60.9531 31.9553H40.9141V33.9553H60.9531V31.9553ZM39.9141 32.9553V87H41.9141V32.9553H39.9141ZM40.9141 86H27.2351V88H40.9141V86ZM28.2351 87V32.9553H26.2351V87H28.2351ZM27.2351 31.9553H7.19602V33.9553H27.2351V31.9553Z" fill="black"/>
<path d="M59.5 52.9167C59.5 52.2217 58.9321 51.4194 57.543 50.5886C56.1857 49.7768 54.1884 49.0282 51.6764 48.3927C46.6599 47.1237 39.7031 46.3333 32 46.3333C24.2969 46.3333 17.3401 47.1237 12.3236 48.3927C9.8116 49.0282 7.8143 49.7768 6.45703 50.5886C5.06793 51.4194 4.5 52.2217 4.5 52.9167C4.5 53.6117 5.06793 54.4139 6.45703 55.2447C7.8143 56.0565 9.8116 56.8051 12.3236 57.4406C17.3401 58.7096 24.2969 59.5 32 59.5C39.7031 59.5 46.6599 58.7096 51.6764 57.4406C54.1884 56.8051 56.1857 56.0565 57.543 55.2447C58.9321 54.4139 59.5 53.6117 59.5 52.9167Z" stroke="black"/>
<path d="M59.5 50.0833C59.5 49.3883 58.9321 48.5861 57.543 47.7553C56.1857 46.9435 54.1884 46.1949 51.6764 45.5594C46.6599 44.2904 39.7031 43.5 32 43.5C24.2969 43.5 17.3401 44.2904 12.3236 45.5594C9.8116 46.1949 7.8143 46.9435 6.45703 47.7553C5.06793 48.5861 4.5 49.3883 4.5 50.0833C4.5 50.7783 5.06793 51.5806 6.45703 52.4114C7.8143 53.2232 9.8116 53.9718 12.3236 54.6073C17.3401 55.8763 24.2969 56.6667 32 56.6667C39.7031 56.6667 46.6599 55.8763 51.6764 54.6073C54.1884 53.9718 56.1857 53.2232 57.543 52.4114C58.9321 51.5806 59.5 50.7783 59.5 50.0833Z" stroke="black"/>
</svg>
