<svg width="36" height="58" viewBox="0 0 36 58" fill="none" xmlns="http://www.w3.org/2000/svg">
<path d="M1.70455 17.1761V11.0909H30.375V17.1761H19.6875V46H12.392V17.1761H1.70455Z" fill="white"/>
<path d="M1.70455 17.1761H0.704545V18.1761H1.70455V17.1761ZM1.70455 11.0909V10.0909H0.704545V11.0909H1.70455ZM30.375 11.0909H31.375V10.0909H30.375V11.0909ZM30.375 17.1761V18.1761H31.375V17.1761H30.375ZM19.6875 17.1761V16.1761H18.6875V17.1761H19.6875ZM19.6875 46V47H20.6875V46H19.6875ZM12.392 46H11.392V47H12.392V46ZM12.392 17.1761H13.392V16.1761H12.392V17.1761ZM2.70455 17.1761V11.0909H0.704545V17.1761H2.70455ZM1.70455 12.0909H30.375V10.0909H1.70455V12.0909ZM29.375 11.0909V17.1761H31.375V11.0909H29.375ZM30.375 16.1761H19.6875V18.1761H30.375V16.1761ZM18.6875 17.1761V46H20.6875V17.1761H18.6875ZM19.6875 45H12.392V47H19.6875V45ZM13.392 46V17.1761H11.392V46H13.392ZM12.392 16.1761H1.70455V18.1761H12.392V16.1761Z" fill="black"/>
<path d="M4.70455 17.1761V11.0909H33.375V17.1761H22.6875V46H15.392V17.1761H4.70455Z" fill="#31E579"/>
<path d="M4.70455 17.1761H3.70455V18.1761H4.70455V17.1761ZM4.70455 11.0909V10.0909H3.70455V11.0909H4.70455ZM33.375 11.0909H34.375V10.0909H33.375V11.0909ZM33.375 17.1761V18.1761H34.375V17.1761H33.375ZM22.6875 17.1761V16.1761H21.6875V17.1761H22.6875ZM22.6875 46V47H23.6875V46H22.6875ZM15.392 46H14.392V47H15.392V46ZM15.392 17.1761H16.392V16.1761H15.392V17.1761ZM5.70455 17.1761V11.0909H3.70455V17.1761H5.70455ZM4.70455 12.0909H33.375V10.0909H4.70455V12.0909ZM32.375 11.0909V17.1761H34.375V11.0909H32.375ZM33.375 16.1761H22.6875V18.1761H33.375V16.1761ZM21.6875 17.1761V46H23.6875V17.1761H21.6875ZM22.6875 45H15.392V47H22.6875V45ZM16.392 46V17.1761H14.392V46H16.392ZM15.392 16.1761H4.70455V18.1761H15.392V16.1761Z" fill="black"/>
<path d="M32.5 27C32.5 27.4861 32.2255 28.0168 31.5772 28.5642C30.9312 29.1097 29.9668 29.6234 28.7313 30.0647C26.2647 30.9456 22.8242 31.5 19 31.5C15.1758 31.5 11.7353 30.9456 9.26867 30.0647C8.03318 29.6234 7.06876 29.1097 6.42277 28.5642C5.77445 28.0168 5.5 27.4861 5.5 27C5.5 26.5139 5.77445 25.9832 6.42277 25.4358C7.06876 24.8903 8.03318 24.3766 9.26867 23.9353C11.7353 23.0544 15.1758 22.5 19 22.5C22.8242 22.5 26.2647 23.0544 28.7313 23.9353C29.9668 24.3766 30.9312 24.8903 31.5772 25.4358C32.2255 25.9832 32.5 26.5139 32.5 27Z" stroke="black"/>
<path d="M32.5 29C32.5 29.4861 32.2255 30.0168 31.5772 30.5642C30.9312 31.1097 29.9668 31.6234 28.7313 32.0647C26.2647 32.9456 22.8242 33.5 19 33.5C15.1758 33.5 11.7353 32.9456 9.26867 32.0647C8.03318 31.6234 7.06876 31.1097 6.42277 30.5642C5.77445 30.0168 5.5 29.4861 5.5 29C5.5 28.5139 5.77445 27.9832 6.42277 27.4358C7.06876 26.8903 8.03318 26.3766 9.26867 25.9353C11.7353 25.0544 15.1758 24.5 19 24.5C22.8242 24.5 26.2647 25.0544 28.7313 25.9353C29.9668 26.3766 30.9312 26.8903 31.5772 27.4358C32.2255 27.9832 32.5 28.5139 32.5 29Z" stroke="black"/>
</svg>
